<svg width="80" height="37" viewBox="0 0 80 37" fill="none" xmlns="http://www.w3.org/2000/svg">
<rect width="80" height="37" rx="18.5" fill="#9A70E2"/>
<path fill-rule="evenodd" clip-rule="evenodd" d="M20.483 23.6944C21.2892 24.3511 22.3095 24.7435 23.4192 24.7435C24.1146 24.7435 24.7751 24.589 25.37 24.3123L27.4376 25.1429L26.9339 23.1357C27.6856 22.2785 28.1428 21.1452 28.1428 19.9022C28.1428 18.3643 27.4427 16.9945 26.3521 16.1077C26.3935 16.4129 26.4155 16.7244 26.4155 17.0414C26.4155 20.5281 23.8082 23.3911 20.483 23.6944Z" fill="white"/>
<path d="M15.8581 21.0419L15.89 20.9148L15.8036 20.8162C14.9267 19.816 14.3928 18.4933 14.3928 17.0413C14.3928 13.9159 16.8633 11.3928 19.8979 11.3928C22.9321 11.3928 25.4027 13.9159 25.4027 17.0413C25.4027 20.1663 22.9321 22.6894 19.8979 22.6894C19.0877 22.6894 18.3189 22.5097 17.6264 22.1877L17.5282 22.142L17.4278 22.1824L15.3638 23.0113L15.8581 21.0419Z" stroke="white" stroke-width="0.5"/>
<path fill-rule="evenodd" clip-rule="evenodd" d="M18.713 13.4215C19.3922 13.1399 20.1681 13.0224 20.8538 13.349C21.4772 13.6454 21.8636 14.2429 21.8946 14.9457C21.9314 15.7771 21.4645 16.5176 20.8336 16.9972C20.728 17.0874 20.658 17.1956 20.6137 17.3283C20.5704 17.4595 20.6166 17.5929 20.614 17.7281C20.6068 18.0773 20.3253 18.3552 19.9842 18.3485C19.6435 18.3419 19.3717 18.0525 19.3789 17.703C19.385 17.4015 19.3421 17.2211 19.4423 16.9203C19.5786 16.5109 19.7737 16.2652 20.0945 15.9822C20.3905 15.7571 20.6775 15.4009 20.6595 15.0011C20.6497 14.7776 20.534 14.5943 20.3354 14.5001C19.9738 14.3282 19.5357 14.4483 19.1856 14.5965C18.4523 14.9061 17.9732 13.7278 18.713 13.4215ZM19.9218 18.9907C20.3419 18.9907 20.6815 19.3395 20.6815 19.7696C20.6815 20.2001 20.3419 20.5486 19.9218 20.5486C19.5018 20.5486 19.1618 20.2001 19.1618 19.7696C19.1618 19.3395 19.5018 18.9907 19.9218 18.9907Z" fill="white"/>
<path d="M52.0156 11.375V18.5938H50.8125V11.375H52.0156ZM40.7656 17.6406C42.8359 16.9531 44.3203 15.25 44.3281 13.3438V13.1875H41.0781V12.1719H48.7656V13.1875H45.5625V13.3438C45.5703 15.1484 47.0469 16.7422 49.1406 17.3594L48.5312 18.3125C46.8906 17.7969 45.5859 16.6953 44.9688 15.2734C44.3672 16.8281 43.0391 18.0391 41.3438 18.6094L40.7656 17.6406ZM43 20.2344V19.2656H52.0312V22.5781H44.2344V24.125H52.5312V25.1094H43.0312V21.6562H50.8125V20.2344H43ZM67.2537 18.4844V19.5H61.5975V22.3438H60.3787V19.5H54.535V18.4844H67.2537ZM56.16 24.9688V20.9688H57.3944V23.9375H65.8319V24.9688H56.16ZM56.1912 16.8906V12.0625H65.5975V16.8906H56.1912ZM57.3944 15.9062H64.3787V13.0312H57.3944V15.9062Z" fill="white"/>
</svg>
