<svg width="8" height="7" viewBox="0 0 8 7" fill="none" xmlns="http://www.w3.org/2000/svg">
<path d="M7.01143 6.30143L5.80343 5.92716L5.592 6.02537C5.10629 6.25046 4.56629 6.37044 4 6.37044C2.10857 6.37044 0.571428 4.98699 0.571428 3.45065C0.571428 1.91432 2.10857 0.53087 4 0.53087C5.89143 0.53087 7.42857 1.91432 7.42857 3.45065C7.42857 4.02399 7.20571 4.60583 6.796 5.10325L6.59886 5.34214L7.012 6.3009L7.01143 6.30143ZM7.41543 6.98625C7.46714 7.00234 7.52273 7.00436 7.57563 6.99204C7.62853 6.97973 7.67653 6.95361 7.71397 6.91677C7.7514 6.87992 7.77671 6.8339 7.78689 6.78412C7.79707 6.73435 7.79171 6.68291 7.77143 6.63587L7.25029 5.42549C7.72571 4.84684 8 4.15459 8 3.45065C8 1.69135 6.28571 0 4 0C1.71429 0 0 1.69135 0 3.45065C0 5.20996 1.71429 6.90131 4 6.90131C4.64105 6.90299 5.27365 6.76556 5.84743 6.49997L7.41543 6.98572V6.98625Z" fill="#212529"/>
</svg>
