<svg width="24" height="24" viewBox="0 0 24 24" fill="none" xmlns="http://www.w3.org/2000/svg">
<path d="M11.7667 2.82572L11.7668 2.82568C11.8302 2.77832 11.9122 2.75 12 2.75C12.0878 2.75 12.1698 2.77832 12.2332 2.82568L12.2332 2.82572L21.1221 9.46861C21.1221 9.46862 21.1221 9.46863 21.1221 9.46865C21.1652 9.50086 21.1975 9.54013 21.2187 9.58183C21.2398 9.6234 21.25 9.6674 21.25 9.71079V9.71132V20.9323C21.25 21.0067 21.2195 21.0844 21.1549 21.1465C21.0893 21.2096 20.9941 21.25 20.8889 21.25H16.75V17C16.75 14.3766 14.6234 12.25 12 12.25C9.37665 12.25 7.25 14.3766 7.25 17V21.25H3.11111C3.00589 21.25 2.91072 21.2096 2.84509 21.1465C2.78047 21.0844 2.75 21.0067 2.75 20.9323L2.75 9.71132L2.75 9.71078C2.74997 9.6674 2.76019 9.6234 2.78133 9.58182C2.80253 9.54012 2.83479 9.50085 2.87786 9.46865C2.87788 9.46863 2.8779 9.46862 2.87792 9.46861L11.7667 2.82572Z" stroke="#A7A7A7" stroke-width="1.5"/>
</svg>
