<svg width="54" height="54" viewBox="0 0 54 54" fill="none" xmlns="http://www.w3.org/2000/svg">
<path d="M54 27C54 41.9117 41.9117 54 27 54C12.0883 54 0 41.9117 0 27C0 12.0883 12.0883 0 27 0C41.9117 0 54 12.0883 54 27Z" fill="#E8E8FC"/>
<path d="M38.7 23.85C38.7 30.3117 33.4617 35.55 27 35.55C20.5383 35.55 15.3 30.3117 15.3 23.85C15.3 17.3883 20.5383 12.15 27 12.15C33.4617 12.15 38.7 17.3883 38.7 23.85Z" fill="white"/>
<path d="M22.05 21.15C22.05 20.6529 22.4529 20.25 22.95 20.25C23.4471 20.25 23.85 20.6529 23.85 21.15V22.95C23.85 23.4471 23.4471 23.85 22.95 23.85C22.4529 23.85 22.05 23.4471 22.05 22.95V21.15Z" fill="#D9D9D9"/>
<path d="M30.15 21.15C30.15 20.6529 30.5529 20.25 31.05 20.25C31.5471 20.25 31.95 20.6529 31.95 21.15V22.95C31.95 23.4471 31.5471 23.85 31.05 23.85C30.5529 23.85 30.15 23.4471 30.15 22.95V21.15Z" fill="#D9D9D9"/>
<path d="M31.2618 26.7076C31.5122 26.7961 31.6515 27.0664 31.555 27.3139C31.2054 28.2104 30.6387 28.99 29.9122 29.5666C29.0669 30.2374 28.0488 30.5992 27.0035 30.6C25.9583 30.6008 24.9396 30.2406 24.0935 29.5711C23.3662 28.9956 22.7985 28.2169 22.4478 27.3209C22.351 27.0736 22.4898 26.8031 22.7401 26.7142C23.0091 26.6186 23.301 26.7694 23.4136 27.0318C23.6969 27.6918 24.1298 28.2656 24.6748 28.6969C25.3517 29.2325 26.1666 29.5206 27.0028 29.52C27.839 29.5194 28.6536 29.23 29.3297 28.6933C29.8742 28.2612 30.3065 27.6865 30.5888 27.0261C30.7011 26.7636 30.9927 26.6124 31.2618 26.7076Z" fill="#D9D9D9"/>
<path d="M8.55 46.5097C9.96684 37.4925 17.6878 30.6 27 30.6C36.3122 30.6 44.0332 37.4925 45.45 46.5097C40.6571 51.1496 34.1576 54 27 54C19.8424 54 13.3429 51.1496 8.55 46.5097Z" fill="white"/>
</svg>
