<svg width="24" height="24" viewBox="0 0 24 24" fill="none" xmlns="http://www.w3.org/2000/svg">
<path d="M16.2364 6.99312L16.2364 6.99323C16.0465 9.38147 14.0956 11.2499 12 11.2499C9.90375 11.2499 7.94999 9.38043 7.76324 6.99326C7.67181 5.81818 8.05928 4.75562 8.83838 3.9756C9.61418 3.19904 10.7272 2.75 12 2.75C13.2621 2.75 14.3716 3.20017 15.1535 3.9841C15.9413 4.77391 16.3286 5.83484 16.2364 6.99312ZM20.4702 21.2499V21.2499H20.4613H3.53869V21.2498L3.52964 21.2499C3.41111 21.2514 3.29528 21.2281 3.19115 21.1837C3.08711 21.1392 2.99972 21.0758 2.93299 21.0016L2.93249 21.001C2.7857 20.8381 2.71569 20.6065 2.76626 20.3468L2.76634 20.3464C3.12801 18.4833 4.255 16.8974 6.08714 15.7627C7.72443 14.7495 9.82467 14.1785 12 14.1785C14.1751 14.1785 16.2753 14.7499 17.9127 15.7626C19.7449 16.8968 20.872 18.4828 21.2337 20.3459L21.2337 20.3464C21.2843 20.6061 21.2143 20.8376 21.0675 21.0006L21.0668 21.0014C21.0001 21.0756 20.9127 21.1391 20.8087 21.1836C20.7046 21.2281 20.5887 21.2513 20.4702 21.2499Z" stroke="#A7A7A7" stroke-width="1.5"/>
</svg>
