<svg width="56" height="56" viewBox="0 0 56 56" fill="none" xmlns="http://www.w3.org/2000/svg">
<path d="M41.3047 11.3194C41.0999 11.1149 40.8224 11 40.5329 11C40.2435 11 39.966 11.1149 39.7612 11.3194L22.5819 28.5084C22.4642 28.6258 22.3745 28.7683 22.3195 28.9251L20.0582 35.5653C19.9928 35.7569 19.9823 35.963 20.0279 36.1602C20.0736 36.3575 20.1735 36.538 20.3165 36.6814C20.4595 36.8247 20.6397 36.9252 20.8369 36.9714C21.034 37.0176 21.2402 37.0077 21.4319 36.9428L28.0729 34.6779C28.2287 34.6225 28.3708 34.5343 28.4897 34.4194L45.6806 17.2304C45.8851 17.0257 46 16.7481 46 16.4587C46 16.1693 45.8851 15.8918 45.6806 15.6871L41.3047 11.3194ZM27.1314 32.7063L22.8443 34.1725L24.3106 29.8665L37.4691 16.6941L40.3053 19.53L27.1314 32.7063ZM41.8411 17.9982L39.001 15.1585L40.5445 13.6151L43.3846 16.4549L41.8411 17.9982Z" fill="#9A70E2"/>
<path d="M18.1633 13.1894H28.5C28.7791 13.1728 29.0412 13.0502 29.2329 12.8467C29.4246 12.6433 29.5314 12.3743 29.5314 12.0947C29.5314 11.8152 29.4246 11.5462 29.2329 11.3427C29.0412 11.1392 28.7791 11.0166 28.5 11H18.1633C16.2641 11.0021 14.4433 11.7574 13.1004 13.1004C11.7574 14.4433 11.0021 16.2641 11 18.1633V38.8367C11.0021 40.7359 11.7574 42.5567 13.1004 43.8996C14.4433 45.2426 16.2641 45.9979 18.1633 46H38.8367C40.7359 45.9979 42.5567 45.2426 43.8996 43.8996C45.2426 42.5567 45.9979 40.7359 46 38.8367V28.5C45.9834 28.2209 45.8608 27.9588 45.6573 27.7671C45.4538 27.5754 45.1848 27.4686 44.9053 27.4686C44.6257 27.4686 44.3567 27.5754 44.1533 27.7671C43.9498 27.9588 43.8272 28.2209 43.8106 28.5V38.8367C43.8085 40.1556 43.2839 41.4199 42.3517 42.3528C41.4195 43.2858 40.1556 43.8114 38.8367 43.8144H18.1633C16.8438 43.8124 15.5789 43.2873 14.6458 42.3542C13.7127 41.4211 13.1876 40.1562 13.1856 38.8367V18.1633C13.1886 16.8445 13.7142 15.5805 14.6472 14.6483C15.5801 13.7161 16.8444 13.1915 18.1633 13.1894Z" fill="#9A70E2"/>
</svg>
