<svg width="98" height="98" viewBox="0 0 98 98" fill="none" xmlns="http://www.w3.org/2000/svg">
<path d="M62.3047 19.3194C62.0999 19.1149 61.8224 19 61.5329 19C61.2435 19 60.966 19.1149 60.7612 19.3194L43.5819 36.5084C43.4642 36.6258 43.3745 36.7683 43.3195 36.9251L41.0582 43.5653C40.9928 43.7569 40.9823 43.963 41.0279 44.1602C41.0736 44.3575 41.1735 44.538 41.3165 44.6814C41.4595 44.8247 41.6397 44.9252 41.8369 44.9714C42.034 45.0176 42.2402 45.0077 42.4319 44.9428L49.0729 42.6779C49.2287 42.6225 49.3708 42.5343 49.4897 42.4194L66.6806 25.2304C66.8851 25.0257 67 24.7481 67 24.4587C67 24.1693 66.8851 23.8918 66.6806 23.6871L62.3047 19.3194ZM48.1314 40.7063L43.8443 42.1725L45.3106 37.8665L58.4691 24.6941L61.3053 27.53L48.1314 40.7063ZM62.8411 25.9982L60.001 23.1585L61.5445 21.6151L64.3846 24.4549L62.8411 25.9982Z" fill="#9A70E2"/>
<path d="M39.1633 21.1894H49.5C49.7791 21.1728 50.0412 21.0502 50.2329 20.8467C50.4246 20.6433 50.5314 20.3743 50.5314 20.0947C50.5314 19.8152 50.4246 19.5462 50.2329 19.3427C50.0412 19.1392 49.7791 19.0166 49.5 19H39.1633C37.2641 19.0021 35.4433 19.7574 34.1004 21.1004C32.7574 22.4433 32.0021 24.2641 32 26.1633V46.8367C32.0021 48.7359 32.7574 50.5567 34.1004 51.8996C35.4433 53.2426 37.2641 53.9979 39.1633 54H59.8367C61.7359 53.9979 63.5567 53.2426 64.8996 51.8996C66.2426 50.5567 66.9979 48.7359 67 46.8367V36.5C66.9834 36.2209 66.8608 35.9588 66.6573 35.7671C66.4538 35.5754 66.1848 35.4686 65.9053 35.4686C65.6257 35.4686 65.3567 35.5754 65.1533 35.7671C64.9498 35.9588 64.8272 36.2209 64.8106 36.5V46.8367C64.8085 48.1556 64.2839 49.4199 63.3517 50.3528C62.4195 51.2858 61.1556 51.8114 59.8367 51.8144H39.1633C37.8438 51.8124 36.5789 51.2873 35.6458 50.3542C34.7127 49.4211 34.1876 48.1562 34.1856 46.8367V26.1633C34.1886 24.8445 34.7142 23.5805 35.6472 22.6483C36.5801 21.7161 37.8444 21.1915 39.1633 21.1894Z" fill="#9A70E2"/>
<path d="M41.6074 77.6855C41.5938 79.6338 43.002 81.7803 44.7656 82.6211L44.1504 83.4688C42.7832 82.7988 41.6279 81.3633 41.0811 79.7158C40.5205 81.5 39.3037 83.0723 37.9434 83.7695L37.2871 82.9219C39.0371 82.0674 40.541 79.7568 40.5547 77.6855V76.0996H37.7246V75.2109H44.3418V76.0996H41.6074V77.6855ZM45.832 86.1074V73.9531H46.8984V78.875H48.9355V79.791H46.8984V86.1074H45.832ZM60.707 80.8848V81.7734H57.7676V86.1074H56.6875V81.7734H53.5703V86.1074H52.4629V81.7734H49.5781V80.8848H60.707ZM50.8359 77.0977C50.8428 75.4775 52.5586 74.4521 55.1152 74.4453C57.665 74.4521 59.3945 75.4775 59.3945 77.0977C59.3945 78.7178 57.665 79.7295 55.1152 79.7227C52.5586 79.7295 50.8428 78.7178 50.8359 77.0977ZM51.9434 77.0977C51.9297 78.1709 53.2217 78.8613 55.1152 78.8613C57.0088 78.8613 58.2939 78.1709 58.3008 77.0977C58.2939 76.0176 57.0088 75.3203 55.1152 75.3203C53.2217 75.3203 51.9297 76.0176 51.9434 77.0977Z" fill="#9A70E2"/>
</svg>
