<svg width="80" height="37" viewBox="0 0 80 37" fill="none" xmlns="http://www.w3.org/2000/svg">
<rect width="80" height="37" rx="18.5" fill="#9A70E2"/>
<path d="M18.2522 19.2048V19.1147C18.2522 19.0604 18.2752 19.0083 18.3162 18.9699C18.3572 18.9315 18.4129 18.9099 18.4708 18.9099C18.5288 18.9099 18.5845 18.9315 18.6255 18.9699C18.6665 19.0083 18.6895 19.0604 18.6895 19.1147V19.2048C18.6895 19.3195 18.8601 19.4465 19.1071 19.4465C19.3542 19.4465 19.5248 19.3195 19.5248 19.2048V19.1147C19.5248 19 19.3542 18.873 19.1071 18.873C18.6283 18.873 18.2522 18.5863 18.2522 18.2217V18.1316C18.2641 17.974 18.334 17.8251 18.4501 17.7104C18.5661 17.5957 18.7211 17.5224 18.8885 17.5028V17.4168C18.8885 17.3625 18.9115 17.3104 18.9525 17.272C18.9935 17.2336 19.0492 17.212 19.1071 17.212C19.1651 17.212 19.2208 17.2336 19.2618 17.272C19.3028 17.3104 19.3258 17.3625 19.3258 17.4168V17.5028C19.4932 17.5224 19.6482 17.5957 19.7642 17.7104C19.8803 17.8251 19.9502 17.974 19.9621 18.1316V18.2217C19.9621 18.276 19.9391 18.3281 19.8981 18.3665C19.857 18.4049 19.8014 18.4265 19.7434 18.4265C19.6854 18.4265 19.6298 18.4049 19.5888 18.3665C19.5478 18.3281 19.5248 18.276 19.5248 18.2217V18.1316C19.5248 18.0169 19.3542 17.8899 19.1071 17.8899C18.8601 17.8899 18.6895 18.0169 18.6895 18.1316V18.2217C18.6895 18.3364 18.8601 18.4634 19.1071 18.4634C19.586 18.4634 19.9621 18.7501 19.9621 19.1147V19.2048C19.9502 19.3624 19.8803 19.5113 19.7642 19.626C19.6482 19.7407 19.4932 19.8141 19.3258 19.8336V19.9196C19.3258 19.9739 19.3028 20.026 19.2618 20.0644C19.2208 20.1028 19.1651 20.1244 19.1071 20.1244C19.0492 20.1244 18.9935 20.1028 18.9525 20.0644C18.9115 20.026 18.8885 19.9739 18.8885 19.9196V19.8336C18.7211 19.8141 18.5661 19.7407 18.4501 19.626C18.334 19.5113 18.2641 19.3624 18.2522 19.2048ZM20.1283 24.7614V24.4562C19.7958 24.5384 19.4532 24.5797 19.1093 24.5791C17.395 24.5791 16 23.5755 16 22.3446V18.7952C16 17.5663 17.395 16.5607 19.1093 16.5607C20.2464 16.5607 21.2391 17.0031 21.7813 17.6585V13.2345C21.7813 12.0056 23.1764 11 24.8907 11C26.605 11 28 12.0036 28 13.2345V20.3415C28 21.1731 27.344 21.935 26.3426 22.318C26.3426 22.3446 26.3426 22.3712 26.3426 22.3979V24.7655C26.3426 25.9944 24.9475 27 23.2332 27C21.519 27 20.1283 25.9985 20.1283 24.7655V24.7614ZM20.5656 22.3917C20.5656 23.3994 21.7638 24.2166 23.2376 24.2166C24.7114 24.2166 25.9096 23.3973 25.9096 22.3917C25.9096 21.3861 24.7114 20.5668 23.2376 20.5668C21.7638 20.5668 20.5656 21.3902 20.5656 22.3979V22.3917ZM20.5656 23.5755C20.5656 24.5832 21.7638 25.4004 23.2376 25.4004C24.7114 25.4004 25.9096 24.5812 25.9096 23.5755V23.5284C25.3673 24.1838 24.379 24.6262 23.2376 24.6262C22.0962 24.6262 21.1079 24.1838 20.5656 23.5284V23.5755ZM27.5627 19.1495V19.1024C27.0204 19.7578 26.0321 20.2002 24.8907 20.2002C23.7493 20.2002 22.7587 19.764 22.2165 19.1086V19.1557C22.2252 19.5491 22.3988 19.9235 22.6997 20.1982C22.878 20.1753 23.0577 20.1637 23.2376 20.1633C24.0847 20.1487 24.9095 20.4174 25.5641 20.9211C26.7252 20.7122 27.5605 19.9811 27.5605 19.1557L27.5627 19.1495ZM22.2165 16.788C22.2165 17.7957 23.4147 18.6129 24.8885 18.6129C26.3622 18.6129 27.5605 17.7937 27.5605 16.788V16.7471C27.0182 17.4025 26.0299 17.8449 24.8885 17.8449C23.7471 17.8449 22.7587 17.3963 22.2165 16.7471V16.788ZM22.2165 15.6042C22.2165 16.6119 23.4147 17.4291 24.8885 17.4291C26.3622 17.4291 27.5605 16.6098 27.5605 15.6042V15.5571C27.0182 16.2125 26.0299 16.6549 24.8885 16.6549C23.7471 16.6549 22.7587 16.2125 22.2165 15.555V15.6042ZM27.5605 14.3753C27.0182 15.0307 26.0299 15.4731 24.8885 15.4731C23.7471 15.4731 22.7587 15.0266 22.2165 14.3712V14.4183C22.2165 15.426 23.4147 16.2432 24.8885 16.2432C26.3622 16.2432 27.5605 15.424 27.5605 14.4183V14.3753ZM22.2165 17.9759C22.2165 18.9836 23.4147 19.8008 24.8885 19.8008C26.3622 19.8008 27.5605 18.9816 27.5605 17.9759V17.9288C27.0182 18.5842 26.0299 19.0266 24.8885 19.0266C23.7471 19.0266 22.7587 18.5904 22.2165 17.9247V17.9759ZM21.7792 19.9319C21.2369 20.5873 20.2485 21.0297 19.1071 21.0297C17.9657 21.0297 16.9687 20.5832 16.4351 19.9278V19.9749C16.4351 20.9826 17.6334 21.7998 19.1071 21.7998C19.5281 21.8021 19.9459 21.7327 20.3404 21.595C20.6367 21.0883 21.1088 20.6916 21.6786 20.4706C21.7443 20.3139 21.7784 20.1473 21.7792 19.979V19.9319ZM16.4351 21.1608C16.4351 22.1685 17.6334 22.9857 19.1071 22.9857C19.4524 22.9859 19.7957 22.9383 20.1261 22.8443V22.3979C20.1274 22.2884 20.1399 22.1794 20.1633 22.0722C19.8193 22.1613 19.4641 22.2067 19.1071 22.2074C17.9701 22.2074 16.9774 21.765 16.4351 21.1096V21.1608ZM25.9074 24.7184C25.3652 25.3738 24.3768 25.8162 23.2354 25.8162C22.094 25.8162 21.1057 25.3738 20.5634 24.7184V24.7655C20.5634 25.7732 21.7617 26.5904 23.2354 26.5904C24.7092 26.5904 25.9074 25.7711 25.9074 24.7655V24.7184ZM27.5583 20.2924C27.1366 20.7753 26.5587 21.1167 25.9118 21.2652C26.0708 21.4553 26.1909 21.6712 26.266 21.9022C27.0598 21.5725 27.5605 20.9785 27.5605 20.3415L27.5583 20.2924ZM22.2165 13.2345C22.2165 14.2422 23.4147 15.0594 24.8885 15.0594C26.3622 15.0594 27.5605 14.2401 27.5605 13.2345C27.5605 12.2289 26.371 11.4076 24.8885 11.4076C23.406 11.4076 22.2165 12.2268 22.2165 13.2345ZM16.4351 18.7952C16.4351 19.8029 17.6334 20.6201 19.1071 20.6201C20.5809 20.6201 21.7792 19.7967 21.7792 18.7952C21.7792 17.7937 20.5809 16.9703 19.1071 16.9703C17.6334 16.9703 16.4351 17.7834 16.4351 18.7952ZM20.1283 24.0282V23.2724C19.7958 23.3546 19.4532 23.3959 19.1093 23.3953C17.9723 23.3953 16.9796 22.9529 16.4373 22.2975V22.3446C16.4373 23.3523 17.6356 24.1695 19.1093 24.1695C19.4546 24.1697 19.7979 24.1221 20.1283 24.0282ZM23.0168 23.4444V23.5305C23.0168 23.5848 23.0398 23.6369 23.0808 23.6753C23.1218 23.7137 23.1774 23.7353 23.2354 23.7353C23.2934 23.7353 23.349 23.7137 23.39 23.6753C23.431 23.6369 23.4541 23.5848 23.4541 23.5305V23.4444C23.6215 23.4249 23.7765 23.3515 23.8925 23.2368C24.0086 23.1222 24.0785 22.9733 24.0904 22.8157V22.7256C24.0904 22.361 23.7143 22.0742 23.2354 22.0742C22.9883 22.0742 22.8178 21.9473 22.8178 21.8326V21.7424C22.8178 21.6278 22.9883 21.5008 23.2354 21.5008C23.4825 21.5008 23.6531 21.6278 23.6531 21.7424V21.8326C23.6531 21.8869 23.6761 21.939 23.7171 21.9774C23.7581 22.0158 23.8137 22.0374 23.8717 22.0374C23.9297 22.0374 23.9853 22.0158 24.0263 21.9774C24.0673 21.939 24.0904 21.8869 24.0904 21.8326V21.7424C24.0785 21.5848 24.0086 21.436 23.8925 21.3213C23.7765 21.2066 23.6215 21.1332 23.4541 21.1137V21.0277C23.4541 20.9733 23.431 20.9212 23.39 20.8828C23.349 20.8444 23.2934 20.8228 23.2354 20.8228C23.1774 20.8228 23.1218 20.8444 23.0808 20.8828C23.0398 20.9212 23.0168 20.9733 23.0168 21.0277V21.1137C22.8494 21.1332 22.6944 21.2066 22.5783 21.3213C22.4623 21.436 22.3923 21.5848 22.3805 21.7424V21.8326C22.3805 22.1992 22.7566 22.4839 23.2354 22.4839C23.4825 22.4839 23.6531 22.6109 23.6531 22.7256V22.8157C23.6531 22.9304 23.4825 23.0573 23.2354 23.0573C22.9883 23.0573 22.8178 22.9304 22.8178 22.8157V22.7256C22.8178 22.6712 22.7947 22.6191 22.7537 22.5807C22.7127 22.5423 22.6571 22.5207 22.5991 22.5207C22.5411 22.5207 22.4855 22.5423 22.4445 22.5807C22.4035 22.6191 22.3805 22.6712 22.3805 22.7256V22.8157C22.3923 22.9733 22.4623 23.1222 22.5783 23.2368C22.6944 23.3515 22.8494 23.4249 23.0168 23.4444ZM24.6698 14.2893V14.3753C24.6698 14.4296 24.6929 14.4817 24.7339 14.5201C24.7749 14.5586 24.8305 14.5801 24.8885 14.5801C24.9465 14.5801 25.0021 14.5586 25.0431 14.5201C25.0841 14.4817 25.1071 14.4296 25.1071 14.3753V14.2893C25.2745 14.2698 25.4295 14.1964 25.5456 14.0817C25.6616 13.967 25.7316 13.8181 25.7434 13.6605V13.5704C25.7434 13.2038 25.3673 12.9191 24.8885 12.9191C24.6414 12.9191 24.4708 12.7921 24.4708 12.6774V12.5873C24.4708 12.4726 24.6414 12.3456 24.8885 12.3456C25.1356 12.3456 25.3061 12.4726 25.3061 12.5873V12.6774C25.3061 12.7317 25.3292 12.7838 25.3702 12.8222C25.4112 12.8607 25.4668 12.8822 25.5248 12.8822C25.5828 12.8822 25.6384 12.8607 25.6794 12.8222C25.7204 12.7838 25.7434 12.7317 25.7434 12.6774V12.5873C25.7316 12.4297 25.6616 12.2808 25.5456 12.1661C25.4295 12.0514 25.2745 11.9781 25.1071 11.9585V11.8725C25.1071 11.8182 25.0841 11.7661 25.0431 11.7277C25.0021 11.6893 24.9465 11.6677 24.8885 11.6677C24.8305 11.6677 24.7749 11.6893 24.7339 11.7277C24.6929 11.7661 24.6698 11.8182 24.6698 11.8725V11.9585C24.5024 11.9781 24.3475 12.0514 24.2314 12.1661C24.1153 12.2808 24.0454 12.4297 24.0335 12.5873V12.6774C24.0335 13.044 24.4096 13.3287 24.8885 13.3287C25.1356 13.3287 25.3061 13.4557 25.3061 13.5704V13.6605C25.3061 13.7752 25.1356 13.9022 24.8885 13.9022C24.6414 13.9022 24.4708 13.7752 24.4708 13.6605V13.5704C24.4708 13.5161 24.4478 13.464 24.4068 13.4256C24.3658 13.3872 24.3102 13.3656 24.2522 13.3656C24.1942 13.3656 24.1386 13.3872 24.0976 13.4256C24.0566 13.464 24.0335 13.5161 24.0335 13.5704V13.6605C24.0454 13.8181 24.1153 13.967 24.2314 14.0817C24.3475 14.1964 24.5024 14.2698 24.6698 14.2893Z" fill="white"/>
<path d="M52.0781 11.3906V19.7344H50.8438V17.8594H47.1562V16.8438H50.8438V14.9688H47.2969C46.3828 17.2031 44.2422 18.8203 41.2656 19.7031L40.75 18.7344C44.1016 17.7422 46.2031 15.8594 46.4453 13.4531H41.4531V12.4219H47.7812C47.7812 12.9688 47.7188 13.4922 47.6016 13.9844H50.8438V11.3906H52.0781ZM42.8906 22.5312C42.8828 20.875 44.6875 19.875 47.5312 19.875C50.3438 19.875 52.1562 20.875 52.1562 22.5312C52.1562 24.1953 50.3438 25.2031 47.5312 25.2031C44.6875 25.2031 42.8828 24.1953 42.8906 22.5312ZM44.0938 22.5312C44.1016 23.5781 45.4375 24.2109 47.5312 24.2031C49.5938 24.2109 50.9297 23.5781 50.9375 22.5312C50.9297 21.4844 49.5938 20.8516 47.5312 20.8594C45.4375 20.8516 44.1016 21.4844 44.0938 22.5312ZM66.4256 11.375V25.2656H65.2537V11.375H66.4256ZM54.3787 21.5625C56.3162 20.4062 57.4491 17.8672 57.4412 15.3438V14.0312H54.7694V13.0156H61.1756V14.0312H58.6287V15.3438C58.6287 17.7422 59.7147 20.1406 61.6287 21.25L60.8787 22.1562C59.5116 21.3359 58.5428 19.8359 58.0584 18.0703C57.5584 19.9844 56.5506 21.6172 55.16 22.4844L54.3787 21.5625ZM60.1131 17.3906V16.3906H62.4569V11.7188H63.6131V24.5469H62.4569V17.3906H60.1131Z" fill="white"/>
</svg>
