<svg width="98" height="98" viewBox="0 0 98 98" fill="none" xmlns="http://www.w3.org/2000/svg">
<path d="M39.0058 37.076V36.8226C39.0058 36.6698 39.0673 36.5233 39.1766 36.4153C39.286 36.3072 39.4343 36.2465 39.5889 36.2465C39.7436 36.2465 39.8919 36.3072 40.0012 36.4153C40.1106 36.5233 40.172 36.6698 40.172 36.8226V37.076C40.172 37.3986 40.6268 37.7558 41.2857 37.7558C41.9446 37.7558 42.3994 37.3986 42.3994 37.076V36.8226C42.3994 36.5 41.9446 36.1429 41.2857 36.1429C40.0087 36.1429 39.0058 35.3364 39.0058 34.3111V34.0576C39.0375 33.6143 39.224 33.1956 39.5335 32.873C39.843 32.5505 40.2562 32.3441 40.7026 32.2892V32.0472C40.7026 31.8945 40.7641 31.7479 40.8734 31.6399C40.9828 31.5319 41.1311 31.4712 41.2857 31.4712C41.4404 31.4712 41.5887 31.5319 41.698 31.6399C41.8074 31.7479 41.8688 31.8945 41.8688 32.0472V32.2892C42.3152 32.3441 42.7285 32.5505 43.0379 32.873C43.3474 33.1956 43.5339 33.6143 43.5656 34.0576V34.3111C43.5656 34.4638 43.5042 34.6104 43.3948 34.7184C43.2855 34.8264 43.1372 34.8871 42.9825 34.8871C42.8279 34.8871 42.6796 34.8264 42.5702 34.7184C42.4609 34.6104 42.3994 34.4638 42.3994 34.3111V34.0576C42.3994 33.735 41.9446 33.3779 41.2857 33.3779C40.6268 33.3779 40.172 33.735 40.172 34.0576V34.3111C40.172 34.6336 40.6268 34.9908 41.2857 34.9908C42.5627 34.9908 43.5656 35.7972 43.5656 36.8226V37.076C43.5339 37.5194 43.3474 37.9381 43.0379 38.2606C42.7285 38.5831 42.3152 38.7895 41.8688 38.8445V39.0864C41.8688 39.2392 41.8074 39.3857 41.698 39.4937C41.5887 39.6018 41.4404 39.6624 41.2857 39.6624C41.1311 39.6624 40.9828 39.6018 40.8734 39.4937C40.7641 39.3857 40.7026 39.2392 40.7026 39.0864V38.8445C40.2562 38.7895 39.843 38.5831 39.5335 38.2606C39.224 37.9381 39.0375 37.5194 39.0058 37.076ZM44.0087 52.7039V51.8456C43.122 52.0768 42.2086 52.193 41.2915 52.1912C36.7201 52.1912 33 49.3687 33 45.9067V35.924C33 32.4677 36.7201 29.6394 41.2915 29.6394C44.3236 29.6394 46.9708 30.8836 48.4169 32.727V20.2846C48.4169 16.8283 52.137 14 56.7085 14C61.2799 14 65 16.8226 65 20.2846V40.273C65 42.6118 63.2507 44.7546 60.5802 45.8318C60.5802 45.9067 60.5802 45.9816 60.5802 46.0564V52.7154C60.5802 56.1717 56.8601 59 52.2886 59C47.7172 59 44.0087 56.1832 44.0087 52.7154V52.7039ZM45.1749 46.0392C45.1749 48.8733 48.3703 51.1717 52.3003 51.1717C56.2303 51.1717 59.4257 48.8675 59.4257 46.0392C59.4257 43.2108 56.2303 40.9067 52.3003 40.9067C48.3703 40.9067 45.1749 43.2223 45.1749 46.0564V46.0392ZM45.1749 49.3687C45.1749 52.2028 48.3703 54.5012 52.3003 54.5012C56.2303 54.5012 59.4257 52.197 59.4257 49.3687V49.2362C57.9796 51.0795 55.344 52.3237 52.3003 52.3237C49.2566 52.3237 46.621 51.0795 45.1749 49.2362V49.3687ZM63.8338 36.9205V36.788C62.3878 38.6313 59.7522 39.8756 56.7085 39.8756C53.6647 39.8756 51.0233 38.6486 49.5773 36.8053V36.9378C49.6006 38.0443 50.0635 39.0974 50.8659 39.8698C51.3413 39.8055 51.8205 39.7728 52.3003 39.7719C54.5591 39.7309 56.7587 40.4865 58.5044 41.9032C61.6006 41.3157 63.828 39.2592 63.828 36.9378L63.8338 36.9205ZM49.5773 30.2788C49.5773 33.1129 52.7726 35.4113 56.7026 35.4113C60.6327 35.4113 63.828 33.1071 63.828 30.2788V30.1636C62.3819 32.0069 59.7464 33.2512 56.7026 33.2512C53.6589 33.2512 51.0233 31.9896 49.5773 30.1636V30.2788ZM49.5773 26.9493C49.5773 29.7834 52.7726 32.0818 56.7026 32.0818C60.6327 32.0818 63.828 29.7776 63.828 26.9493V26.8168C62.3819 28.6601 59.7464 29.9044 56.7026 29.9044C53.6589 29.9044 51.0233 28.6601 49.5773 26.8111V26.9493ZM63.828 23.4931C62.3819 25.3364 59.7464 26.5806 56.7026 26.5806C53.6589 26.5806 51.0233 25.3249 49.5773 23.4816V23.6141C49.5773 26.4482 52.7726 28.7465 56.7026 28.7465C60.6327 28.7465 63.828 26.4424 63.828 23.6141V23.4931ZM49.5773 33.6198C49.5773 36.4539 52.7726 38.7523 56.7026 38.7523C60.6327 38.7523 63.828 36.4482 63.828 33.6198V33.4873C62.3819 35.3306 59.7464 36.5749 56.7026 36.5749C53.6589 36.5749 51.0233 35.3479 49.5773 33.4758V33.6198ZM48.4111 39.121C46.965 40.9643 44.3294 42.2085 41.2857 42.2085C38.242 42.2085 35.5831 40.9528 34.1603 39.1094V39.2419C34.1603 42.076 37.3557 44.3744 41.2857 44.3744C42.4082 44.3808 43.5225 44.1856 44.5743 43.7984C45.3645 42.3734 46.6234 41.2577 48.1429 40.6359C48.3181 40.1955 48.409 39.7267 48.4111 39.2535V39.121ZM34.1603 42.5772C34.1603 45.4113 37.3557 47.7097 41.2857 47.7097C42.2063 47.7104 43.122 47.5764 44.0029 47.3122V46.0564C44.0065 45.7487 44.0397 45.4421 44.102 45.1406C43.1847 45.3911 42.2375 45.5189 41.2857 45.5207C38.2536 45.5207 35.6064 44.2765 34.1603 42.4332V42.5772ZM59.4198 52.583C57.9738 54.4263 55.3382 55.6705 52.2945 55.6705C49.2507 55.6705 46.6152 54.4263 45.1691 52.583V52.7154C45.1691 55.5495 48.3644 57.8479 52.2945 57.8479C56.2245 57.8479 59.4198 55.5438 59.4198 52.7154V52.583ZM63.8222 40.1348C62.6975 41.4929 61.1566 42.4532 59.4315 42.871C59.8555 43.4055 60.1757 44.0129 60.3761 44.6624C62.4927 43.735 63.828 42.0645 63.828 40.273L63.8222 40.1348ZM49.5773 20.2846C49.5773 23.1187 52.7726 25.4171 56.7026 25.4171C60.6327 25.4171 63.828 23.1129 63.828 20.2846C63.828 17.4562 60.656 15.1463 56.7026 15.1463C52.7493 15.1463 49.5773 17.4505 49.5773 20.2846ZM34.1603 35.924C34.1603 38.7581 37.3557 41.0565 41.2857 41.0565C45.2157 41.0565 48.4111 38.7408 48.4111 35.924C48.4111 33.1071 45.2157 30.7915 41.2857 30.7915C37.3557 30.7915 34.1603 33.0783 34.1603 35.924ZM44.0087 50.6417V48.5161C43.122 48.7473 42.2086 48.8635 41.2915 48.8618C38.2595 48.8618 35.6122 47.6175 34.1662 45.7742V45.9067C34.1662 48.7408 37.3615 51.0392 41.2915 51.0392C42.2122 51.0399 43.1278 50.9059 44.0087 50.6417ZM51.7114 49V49.2419C51.7114 49.3947 51.7728 49.5412 51.8822 49.6493C51.9915 49.7573 52.1398 49.818 52.2945 49.818C52.4491 49.818 52.5974 49.7573 52.7068 49.6493C52.8161 49.5412 52.8776 49.3947 52.8776 49.2419V49C53.324 48.9451 53.7372 48.7387 54.0467 48.4161C54.3562 48.0936 54.5427 47.6749 54.5743 47.2316V46.9781C54.5743 45.9528 53.5714 45.1463 52.2945 45.1463C51.6356 45.1463 51.1808 44.7892 51.1808 44.4666V44.2131C51.1808 43.8906 51.6356 43.5334 52.2945 43.5334C52.9534 43.5334 53.4082 43.8906 53.4082 44.2131V44.4666C53.4082 44.6194 53.4696 44.7659 53.5789 44.8739C53.6883 44.9819 53.8366 45.0426 53.9913 45.0426C54.1459 45.0426 54.2942 44.9819 54.4036 44.8739C54.5129 44.7659 54.5743 44.6194 54.5743 44.4666V44.2131C54.5427 43.7698 54.3562 43.3511 54.0467 43.0286C53.7372 42.706 53.324 42.4997 52.8776 42.4447V42.2028C52.8776 42.05 52.8161 41.9035 52.7068 41.7954C52.5974 41.6874 52.4491 41.6267 52.2945 41.6267C52.1398 41.6267 51.9915 41.6874 51.8822 41.7954C51.7728 41.9035 51.7114 42.05 51.7114 42.2028V42.4447C51.265 42.4997 50.8517 42.706 50.5422 43.0286C50.2328 43.3511 50.0463 43.7698 50.0146 44.2131V44.4666C50.0146 45.4977 51.0175 46.2984 52.2945 46.2984C52.9534 46.2984 53.4082 46.6555 53.4082 46.9781V47.2316C53.4082 47.5541 52.9534 47.9113 52.2945 47.9113C51.6356 47.9113 51.1808 47.5541 51.1808 47.2316V46.9781C51.1808 46.8253 51.1193 46.6788 51.01 46.5708C50.9006 46.4628 50.7523 46.4021 50.5977 46.4021C50.443 46.4021 50.2947 46.4628 50.1854 46.5708C50.076 46.6788 50.0146 46.8253 50.0146 46.9781V47.2316C50.0463 47.6749 50.2328 48.0936 50.5422 48.4161C50.8517 48.7387 51.265 48.9451 51.7114 49ZM56.1195 23.2512V23.4931C56.1195 23.6459 56.181 23.7924 56.2903 23.9004C56.3997 24.0084 56.548 24.0691 56.7026 24.0691C56.8573 24.0691 57.0056 24.0084 57.1149 23.9004C57.2243 23.7924 57.2857 23.6459 57.2857 23.4931V23.2512C57.7321 23.1962 58.1454 22.9898 58.4549 22.6673C58.7643 22.3447 58.9508 21.926 58.9825 21.4827V21.2293C58.9825 20.1982 57.9796 19.3975 56.7026 19.3975C56.0437 19.3975 55.5889 19.0403 55.5889 18.7177V18.4643C55.5889 18.1417 56.0437 17.7846 56.7026 17.7846C57.3615 17.7846 57.8163 18.1417 57.8163 18.4643V18.7177C57.8163 18.8705 57.8778 19.017 57.9871 19.1251C58.0965 19.2331 58.2448 19.2938 58.3994 19.2938C58.5541 19.2938 58.7024 19.2331 58.8117 19.1251C58.9211 19.017 58.9825 18.8705 58.9825 18.7177V18.4643C58.9508 18.021 58.7643 17.6023 58.4549 17.2797C58.1454 16.9572 57.7321 16.7508 57.2857 16.6959V16.4539C57.2857 16.3011 57.2243 16.1546 57.1149 16.0466C57.0056 15.9386 56.8573 15.8779 56.7026 15.8779C56.548 15.8779 56.3997 15.9386 56.2903 16.0466C56.181 16.1546 56.1195 16.3011 56.1195 16.4539V16.6959C55.6731 16.7508 55.2599 16.9572 54.9504 17.2797C54.6409 17.6023 54.4544 18.021 54.4227 18.4643V18.7177C54.4227 19.7488 55.4257 20.5495 56.7026 20.5495C57.3615 20.5495 57.8163 20.9067 57.8163 21.2293V21.4827C57.8163 21.8053 57.3615 22.1624 56.7026 22.1624C56.0437 22.1624 55.5889 21.8053 55.5889 21.4827V21.2293C55.5889 21.0765 55.5275 20.93 55.4181 20.8219C55.3088 20.7139 55.1605 20.6532 55.0058 20.6532C54.8512 20.6532 54.7029 20.7139 54.5935 20.8219C54.4842 20.93 54.4227 21.0765 54.4227 21.2293V21.4827C54.4544 21.926 54.6409 22.3447 54.9504 22.6673C55.2599 22.9898 55.6731 23.1962 56.1195 23.2512Z" fill="#A7A7A7"/>
<path d="M47.5684 73.9668V81.2676H46.4883V79.627H43.2617V78.7383H46.4883V77.0977H43.3848C42.585 79.0527 40.7119 80.4678 38.1074 81.2402L37.6562 80.3926C40.5889 79.5244 42.4277 77.877 42.6396 75.7715H38.2715V74.8691H43.8086C43.8086 75.3477 43.7539 75.8057 43.6514 76.2363H46.4883V73.9668H47.5684ZM39.5293 83.7148C39.5225 82.2656 41.1016 81.3906 43.5898 81.3906C46.0508 81.3906 47.6367 82.2656 47.6367 83.7148C47.6367 85.1709 46.0508 86.0527 43.5898 86.0527C41.1016 86.0527 39.5225 85.1709 39.5293 83.7148ZM40.582 83.7148C40.5889 84.6309 41.7578 85.1846 43.5898 85.1777C45.3945 85.1846 46.5635 84.6309 46.5703 83.7148C46.5635 82.7988 45.3945 82.2451 43.5898 82.252C41.7578 82.2451 40.5889 82.7988 40.582 83.7148ZM59.9824 73.9531V86.1074H58.957V73.9531H59.9824ZM49.4414 82.8672C51.1367 81.8555 52.1279 79.6338 52.1211 77.4258V76.2773H49.7832V75.3887H55.3887V76.2773H53.1602V77.4258C53.1602 79.5244 54.1104 81.623 55.7852 82.5938L55.1289 83.3867C53.9326 82.6689 53.085 81.3564 52.6611 79.8115C52.2236 81.4863 51.3418 82.915 50.125 83.6738L49.4414 82.8672ZM54.459 79.2168V78.3418H56.5098V74.2539H57.5215V85.4785H56.5098V79.2168H54.459Z" fill="#A7A7A7"/>
</svg>
