<svg width="27" height="25" viewBox="0 0 27 25" fill="none" xmlns="http://www.w3.org/2000/svg">
<path d="M9.5 9.93945H17.5M9.5 13.9395H14.5" stroke="#A7A7A7" stroke-width="1.5" stroke-linecap="round"/>
<path d="M9.30254 19.1806L9.30323 19.1806L9.34015 19.1812C9.73562 19.1882 10.0826 19.1943 10.3712 19.2263C10.6823 19.2608 10.9867 19.3305 11.2794 19.5007C11.2798 19.501 11.2802 19.5012 11.2807 19.5015L10.903 20.1495C11.2401 20.3449 11.4499 20.6996 11.8677 21.4058L9.30254 19.1806ZM9.30254 19.1806C8.04666 19.1596 7.38951 19.0796 6.87457 18.8658L6.87401 18.8655M9.30254 19.1806L6.87401 18.8655M12.5165 21.0296L13.0581 21.9448C13.0582 21.945 13.0583 21.9452 13.0584 21.9453C13.2523 22.2715 13.7493 22.2701 13.9415 21.9455L12.5165 21.0296ZM12.5165 21.0296L12.5165 21.0295L12.5165 21.0296ZM6.87401 18.8655C6.35837 18.652 5.88985 18.3389 5.4952 17.9443C5.10055 17.5496 4.78749 17.0811 4.57391 16.5654L4.57371 16.565M6.87401 18.8655L4.57371 16.565M4.57371 16.565C4.42755 16.2128 4.3409 15.7834 4.29588 15.1243C4.25041 14.4586 4.25 13.6147 4.25 12.4395V11.4395C4.25 9.78843 4.25079 8.60271 4.33876 7.67784C4.42566 6.76411 4.59232 6.18278 4.87638 5.71949L4.87659 5.71915M4.57371 16.565L4.87659 5.71915M4.87659 5.71915C5.22676 5.14737 5.70725 4.66655 6.2788 4.31598L4.87659 5.71915ZM14.4833 21.03L13.9416 21.9454L22.427 16.5656C22.2133 17.0812 21.9002 17.5497 21.5055 17.9443C21.1106 18.339 20.642 18.652 20.1262 18.8655L20.1254 18.8658C19.6106 19.0795 18.9539 19.1585 17.6969 19.1806L17.6968 19.1806L17.6598 19.1812C17.2644 19.1882 16.9174 19.1943 16.6288 19.2263C16.3175 19.2608 16.0129 19.3306 15.7201 19.5011C15.4295 19.6697 15.2201 19.8952 15.0376 20.1457C14.8685 20.3778 14.6949 20.6716 14.4983 21.0045L14.4835 21.0295L14.4833 21.03ZM6.27909 4.3158C6.74291 4.03173 7.3248 3.8651 8.23862 3.77821C9.16376 3.69024 10.3495 3.68945 12 3.68945H15C16.651 3.68945 17.8367 3.69024 18.7617 3.77821C19.6756 3.86511 20.2573 4.03178 20.7212 4.31598C21.2927 4.66628 21.7732 5.14679 22.1235 5.71825C22.4077 6.18212 22.5743 6.76406 22.6612 7.67807C22.7492 8.60321 22.75 9.78894 22.75 11.4395V12.4395C22.75 13.6147 22.7496 14.4586 22.7042 15.1245C22.6593 15.7835 22.5729 16.2131 22.4271 16.5654L6.27909 4.3158Z" stroke="#A7A7A7" stroke-width="1.5"/>
</svg>
