<svg width="80" height="37" viewBox="0 0 80 37" fill="none" xmlns="http://www.w3.org/2000/svg">
<rect width="80" height="37" rx="18.5" fill="#9A70E2"/>
<path d="M20.304 16.1445C20.0713 16.1445 19.8884 15.965 19.8884 15.7366C19.8884 15.5082 20.0713 15.3287 20.304 15.3287H20.5701H21.8171H22.5653H23.8789H24.0784C24.3112 15.3287 24.4941 15.5082 24.4941 15.7366C24.4941 15.965 24.3112 16.1445 24.0784 16.1445H23.8789H23.4798H20.886H20.5701H20.304ZM17.1948 19.4079H19.7553H21.5012H24.0618C24.2945 19.4079 24.4774 19.2284 24.4774 19C24.4774 18.7716 24.2945 18.5921 24.0618 18.5921H22.2328H21.5012H19.7886H18.9074H17.1948C16.962 18.5921 16.7791 18.7716 16.7791 19C16.7791 19.2284 16.9786 19.4079 17.1948 19.4079ZM16.7791 17.3683C16.7791 17.5967 16.962 17.7762 17.1948 17.7762H18.9074H19.9549H21.3017H22.2162H24.0618C24.2945 17.7762 24.4774 17.5967 24.4774 17.3683C24.4774 17.1399 24.2945 16.9604 24.0618 16.9604H20.9691H20.3207H17.1948C16.9786 16.9604 16.7791 17.1399 16.7791 17.3683ZM22.4157 21.0396C22.5819 20.7459 22.7815 20.4685 23.0143 20.2238H21.3848H19.8884H17.1948C16.962 20.2238 16.7791 20.4033 16.7791 20.6317C16.7791 20.8601 16.962 21.0396 17.1948 21.0396H18.9074H20.171H21.1021H22.2328H22.4157ZM17.1948 22.6713H19.8385H21.4513H21.9501C21.9667 22.3939 22.0166 22.1166 22.0831 21.8555H20.6698H20.62H17.1948C16.962 21.8555 16.7791 22.035 16.7791 22.2634C16.7791 22.4918 16.9786 22.6713 17.1948 22.6713ZM17.1615 24.303H22.1829C22.0831 24.042 22 23.7646 21.9667 23.4872H17.1615C16.9287 23.4872 16.7458 23.6667 16.7458 23.8951C16.7458 24.1235 16.9287 24.303 17.1615 24.303ZM16.7625 26H23.4798C23.1805 25.7716 22.8979 25.4942 22.6817 25.1841H16.7625C16.247 25.1841 15.8314 24.7762 15.8314 24.2704V15.8671H17.3112C18.2755 15.8671 19.0736 15.0839 19.0736 14.1375V12.8159H24.5938C25.1093 12.8159 25.5249 13.2238 25.5249 13.7296V14.6597V19.0163C25.658 19 25.791 19 25.924 19C26.0736 19 26.2066 19 26.3563 19.0163V14.9371V14.6597V13.7296C26.3563 12.7669 25.5748 12 24.5938 12H18.8076C18.7078 12 18.6081 12.0163 18.5083 12.049C18.4086 12.0816 18.3254 12.1469 18.2589 12.2121L15.2328 15.0676C15.1496 15.1329 15.0998 15.2308 15.0499 15.3287C15.0166 15.4103 15 15.5245 15 15.6224V24.2704C15 25.2168 15.7815 26 16.7625 26ZM25.9074 19.8811C27.62 19.8811 29 21.2354 29 22.9161C29 24.5967 27.62 25.951 25.9074 25.951C24.1948 25.951 22.8147 24.5967 22.8147 22.9161C22.8147 21.2354 24.2114 19.8811 25.9074 19.8811ZM26.639 24.2704C26.5891 24.2867 26.5392 24.3193 26.4893 24.3357C26.4228 24.352 26.3729 24.3846 26.3064 24.3846C26.2233 24.4009 26.1734 24.352 26.1568 24.2704C26.1401 24.2214 26.1401 24.1562 26.1401 24.1072C26.1568 23.993 26.1734 23.8788 26.2067 23.7483C26.2732 23.3893 26.3397 23.0466 26.4062 22.6876C26.4228 22.5897 26.4394 22.4918 26.4394 22.3939C26.4394 22.2797 26.3729 22.2308 26.2565 22.2308C26.0903 22.2308 25.924 22.2308 25.7577 22.2308C25.6081 22.2308 25.4418 22.2308 25.2922 22.2308C25.2589 22.2308 25.209 22.2308 25.1758 22.2471C25.1093 22.2634 25.076 22.296 25.0594 22.345C25.0594 22.3939 25.076 22.4429 25.1425 22.4755C25.1924 22.4918 25.2589 22.4918 25.3088 22.5082C25.4418 22.5245 25.4751 22.5734 25.4751 22.704C25.4751 22.7203 25.4751 22.7366 25.4751 22.7692C25.4252 23.0793 25.3587 23.3893 25.3088 23.6993C25.2755 23.8788 25.2589 24.0583 25.2257 24.2378C25.1924 24.4988 25.4418 24.7436 25.6413 24.7762C25.7577 24.7925 25.8907 24.7925 26.0071 24.7925C26.2732 24.7925 26.4893 24.6783 26.6722 24.4988C26.7055 24.4662 26.7387 24.4172 26.7387 24.3846C26.7886 24.303 26.7221 24.2541 26.639 24.2704ZM26.0404 21.0396C25.7577 21.0396 25.5416 21.2517 25.5249 21.5291C25.5249 21.8065 25.7411 22.035 26.0238 22.035C26.2898 22.035 26.5226 21.8065 26.5226 21.5455C26.5392 21.2517 26.323 21.0396 26.0404 21.0396Z" fill="white"/>
<path d="M52.0781 11.375V19.6562H50.8438V16.0156H48.0469V15H50.8438V11.375H52.0781ZM40.625 18.5469C42.6875 17.8047 44.1562 15.9219 44.1562 13.9375V13.4219H41.0156V12.3906H48.5V13.4219H45.3906V13.9219C45.3906 15.7344 46.7812 17.4609 48.8125 18.1562L48.1719 19.1406C46.6172 18.5781 45.4062 17.4062 44.8047 15.9766C44.2109 17.6016 42.9219 18.8984 41.2656 19.5312L40.625 18.5469ZM42.8125 22.6719C42.8047 21.0391 44.5781 20.0859 47.4688 20.0938C50.3516 20.0859 52.125 21.0391 52.125 22.6719C52.125 24.3125 50.3516 25.25 47.4688 25.2656C44.5781 25.25 42.8047 24.3125 42.8125 22.6719ZM44.0312 22.6719C44.0234 23.6797 45.3359 24.2891 47.4688 24.2812C49.5938 24.2891 50.9062 23.6797 50.9062 22.6719C50.9062 21.6562 49.5938 21.0469 47.4688 21.0469C45.3359 21.0469 44.0234 21.6562 44.0312 22.6719ZM67.2694 22.4688V23.4844H54.5506V22.4688H60.2694V19.4688H56.0506V12.3594H57.285V14.875H64.5037V12.3594H65.7069V19.4688H61.4725V22.4688H67.2694ZM57.285 18.4688H64.5037V15.875H57.285V18.4688Z" fill="white"/>
</svg>
