<svg width="64" height="35" viewBox="0 0 64 35" fill="none" xmlns="http://www.w3.org/2000/svg">
<rect width="64" height="35" rx="17.5" fill="#9A70E2"/>
<path d="M22.7969 11.0312C24.8281 11.0312 26.2422 12.125 26.25 13.7812C26.2422 15.2188 25.125 16.25 23.4531 16.4609V17.8203C24.75 17.75 26.0703 17.6328 27.2812 17.4531L27.375 18.375C24.4297 18.8984 21.1016 18.9453 18.7031 18.9375L18.5469 17.9219C19.625 17.9297 20.8906 17.9219 22.2188 17.875V16.4688C20.5 16.2812 19.3516 15.2422 19.3594 13.7812C19.3516 12.125 20.7656 11.0312 22.7969 11.0312ZM20.5156 13.7812C20.5 14.8359 21.4453 15.5547 22.7969 15.5625C24.1562 15.5547 25.0859 14.8359 25.0938 13.7812C25.0859 12.7031 24.1562 11.9844 22.7969 11.9844C21.4453 11.9844 20.5 12.7031 20.5156 13.7812ZM20.5781 23.9531V20.0938H21.8125V22.9219H29.9062V23.9531H20.5781ZM28.1719 21.0156V10.3906H29.4062V15.0938H31.4844V16.1406H29.4062V21.0156H28.1719ZM45.1094 21.5156V22.5469H32.3906V21.5156H35.9688V18.875H33.9844V14.5938H42.2969V12.4219H33.9531V11.4062H43.5V15.6094H35.2031V17.8594H43.8281V18.875H41.6562V21.5156H45.1094ZM37.1719 21.5156H40.4531V18.875H37.1719V21.5156Z" fill="white"/>
</svg>
