<svg width="57" height="57" viewBox="0 0 57 57" fill="none" xmlns="http://www.w3.org/2000/svg">
<rect width="57" height="57" rx="5" fill="#E8E8FC"/>
<path d="M30 19.716C29.6561 20.3133 28.7576 21.0094 28.1202 20.9999C25.9491 20.9559 25.2343 19.3184 25 18.7223C25.0441 18.7104 25.1182 18.7009 25.1709 18.6937C25.5708 18.6294 25.9792 18.1916 26.0985 17.6977C26.2522 17.0551 26.4413 15.7985 26.4188 15L29.1649 16.6826C29.1606 16.9135 29.1466 17.1658 29.1272 17.4204C29.114 17.5721 29.0993 17.7237 29.0832 17.875C29.0687 18.0085 29.0525 18.1418 29.0348 18.2749C28.9843 18.6913 29.152 19.1042 29.4691 19.3339L30 19.716Z" fill="#F8AE9D"/>
<path d="M30.0819 13.231C29.9385 13.741 29.9988 14.3198 30.1443 14.8283C30.2471 15.1875 30.4758 14.8705 30.7606 14.8776C31.2012 14.8874 31.5453 14.2662 31.8113 12.6198C31.9807 11.4113 32.0233 10.7986 31.989 10.6817C31.8674 10.2633 31.4662 10.0394 31.1358 10" fill="#31446C"/>
<path d="M31.1327 10.6725C32.0087 11.5839 32.3274 14.1486 31.5877 15.9353C31.0619 17.2056 30.4507 18.0255 29.7373 17.9994C28.6541 17.9597 26.5544 17.1909 25.8712 16.549C24.6397 15.3929 24.9978 13.1261 25.2522 11.6994C25.483 10.403 26.1859 8.71931 28.0731 9.03975C29.3137 9.24921 30.3471 9.85384 31.1327 10.6725Z" fill="#F8AE9D"/>
<path d="M26.495 10.7287C26.6869 10.9202 27.0254 10.9624 27.3043 11.0002C27.6791 11.0511 27.8646 11.1572 28.0591 11.4417C28.1824 11.6234 28.3056 11.8224 28.526 11.9209C28.7052 12.0012 28.6985 11.796 28.7273 11.637C28.73 11.6231 28.7336 11.6093 28.7383 11.5958C28.7818 11.4689 28.956 11.4907 29.0073 11.6158C29.0539 11.7283 29.1539 11.8235 29.281 11.8765C29.3017 11.8852 29.3237 11.8928 29.3457 11.8895C29.3756 11.8863 29.399 11.8647 29.4184 11.8451C29.4592 11.8043 29.4999 11.7524 29.5417 11.6974C29.6794 11.517 29.9392 11.5819 30.0928 11.7543C30.1888 11.8614 30.303 11.9718 30.46 11.9966C30.5106 12.0053 30.5741 11.9988 30.5974 11.9609C30.6273 11.9144 30.5805 11.8679 30.5883 11.8203C30.5948 11.7759 30.6195 11.7564 30.6467 11.7186C30.7537 11.5714 30.9978 11.5662 31.1483 11.6883C31.2531 11.7732 31.3622 11.8548 31.4755 11.9328C31.5235 11.9652 31.5936 11.9977 31.6415 11.9652C31.6674 11.9479 31.6739 11.9187 31.6791 11.8906C31.7064 11.7532 31.7323 11.6158 31.7595 11.4784C31.7751 11.4017 31.8283 11.301 31.9191 11.3205C31.9631 11.3303 31.9891 11.366 32.0137 11.3984C32.0436 11.4395 32.5767 11.9079 32.587 11.8722C32.67 11.6061 32.84 11.3638 32.923 11.0976C33.46 9.38509 31.0773 8.00798 29.2576 8.00038C28.853 7.99818 28.4833 8.00327 28.0902 8.07581C27.6713 8.15366 27.229 8.27731 26.849 8.45147C26.316 8.6949 25.9125 9.13733 26.0164 9.66528" fill="#31446C"/>
<path d="M26.9617 10.0323C27.207 10.3065 27.2719 10.6923 27.2947 11.0567C27.3284 11.6062 27.2827 12.1772 27.0254 12.6651C26.9521 12.8039 26.898 13.4912 26.785 13.4532C26.7489 13.4414 26.7549 12.9084 26.6599 12.6212C26.5132 12.176 25.8375 12.0062 25.5334 12.2876C25.0476 12.7351 25.3326 13.2787 25.4937 13.617C25.5899 13.8212 25.7426 14.0503 25.769 14.2663C25.8015 14.5429 25.8111 15.5506 25.6284 15.7857C25.4757 15.9827 25.3133 15.0308 25.1751 14.8432C24.1519 13.4461 23.1708 9.88864 24.9178 9.11711C25.1835 8.99961 26.0035 8.93902 26.2523 9.08861M33.4301 38.3116C33.5312 38.3281 33.6334 38.3424 33.7392 38.346C34.3018 38.3637 34.8453 38.2415 35.3947 38.1489C35.878 38.067 36.0091 38.0219 35.9995 37.4462C35.9154 32.8869 35.236 28.3395 34.0145 23.9416C33.8281 23.2698 33.6249 22.5932 33.2679 21.9926C32.6583 20.9682 31.2588 20.0839 30.1851 19.5877C30.0337 19.5176 29.4061 19.9117 29.2534 19.844C29.1199 19.7847 29.0021 19.6921 28.8674 19.634C28.4731 19.4643 28.2085 19.8191 27.8791 19.9676C27.7084 20.0435 27.5184 20.0921 27.3308 20.0839C27.1781 20.0779 27.0399 19.9866 26.9004 20.0577C26.2728 20.3782 24.7146 17.9995 24.7146 17.9995L24.0377 18.6939L22.0623 20.7368L17.1257 27.4516C17.1257 27.4516 16.23 32.9546 15.6144 36.5619C15.5074 37.1838 15.0842 38.5287 15 39C15.0181 38.8979 19.2141 38.8706 19.4401 38.8706H27.9921C28.4718 38.8706 29.762 39.0712 30.0986 38.7234C30.5134 38.2961 30.9931 36.3351 31.0183 35.7855C31.1013 33.9374 30.9727 32.1035 30.9474 30.2446C30.9582 31.0008 31.1782 31.6845 31.272 32.4251C31.3935 33.3784 31.5666 34.3303 31.7229 35.2787C31.8479 36.0408 31.9681 36.8052 32.0644 37.572C32.1077 37.9175 32.0523 38.1228 32.3481 38.2581C32.597 38.3709 33.1392 38.2629 33.4301 38.3116Z" fill="#31446C"/>
<path d="M26.8743 35C26.8743 35 28.1025 35.5351 27.9931 36.6725C27.8838 37.8099 27.4396 39.1283 25.5854 38.99C23.7312 38.8529 26.8743 35 26.8743 35Z" fill="#31446C"/>
<path d="M22.4695 25C22.4722 25.654 22.37 26.3093 22.1789 26.9431C21.9866 27.5771 21.7052 28.1884 21.3788 28.7775C21.2156 29.0719 21.0418 29.3605 20.8626 29.6455C20.6862 29.9317 20.5044 30.2156 20.3557 30.5065C20.2828 30.652 20.2191 30.8022 20.1939 30.95C20.1872 31.0221 20.1806 31.0966 20.2032 31.1593C20.2085 31.1936 20.231 31.2196 20.2443 31.2504C20.2696 31.2775 20.2868 31.3072 20.3187 31.3332C20.5561 31.5448 20.8958 31.688 21.2183 31.8263C22.5425 32.3644 23.949 32.763 25.2892 33.3C25.9593 33.5684 26.6227 33.8582 27.2397 34.22L27.3538 34.2886C27.3923 34.3123 27.4281 34.3431 27.4653 34.3702C27.5336 34.4293 27.5929 34.4961 27.6417 34.5689C27.7399 34.7121 27.8063 34.8682 27.858 35.0266C27.9562 35.3448 27.9974 35.6724 28 36C27.9762 35.6748 27.915 35.3495 27.8076 35.0408C27.6935 34.7345 27.517 34.4365 27.1866 34.2934C26.567 33.9504 25.9022 33.6772 25.2281 33.4253C24.5527 33.1769 23.8694 32.9416 23.1834 32.7133C22.4974 32.4815 21.8074 32.2604 21.1333 31.986C20.8016 31.8393 20.4606 31.701 20.178 31.4467C20.1421 31.416 20.113 31.3734 20.0824 31.3368C20.0599 31.2917 20.0293 31.2492 20.0214 31.2019C19.9895 31.1073 20.0002 31.0138 20.0095 30.9252C20.0413 30.7501 20.113 30.5916 20.1899 30.4403C20.3478 30.1375 20.5323 29.8549 20.7114 29.5698C20.8905 29.2848 21.071 29.0021 21.2421 28.7148C21.9255 27.5699 22.4006 26.3104 22.4695 25Z" fill="white"/>
<path d="M31 20.4243C30.6785 20.7998 29.2474 22 27.8827 22C27.6556 22 27.4158 21.976 27.162 21.9204C26.0166 21.674 25.0523 20.7743 24.4886 19.7439C24.3857 19.5543 24.2949 19.356 24.2169 19.1506C24.1148 18.8923 24.0421 18.6279 24 18.3725C24.574 18.2899 25.1225 18.1202 25.2118 18C25.3087 18.7871 26.134 20.208 27.3839 20.4753C27.5408 20.5099 27.6888 20.5249 27.8304 20.528H27.8329C28.4196 20.54 28.8699 20.3192 29.1773 20.0969C29.1798 20.0969 29.7755 19.5441 29.778 19.5411L31 20.4243Z" fill="#31446C"/>
<path fill-rule="evenodd" clip-rule="evenodd" d="M17.6667 25.5125H15.7778C13.6906 25.5125 12 27.1925 12 29.2625V46.25C12 48.3219 13.6906 50 15.7778 50H42.2222C44.3095 50 46 48.3219 46 46.25V23.75C46 21.6781 44.3095 20 42.2222 20H33.777C33.4694 20.0001 33.1664 20.0748 32.8945 20.2176C32.6226 20.3603 32.3899 20.5669 32.2168 20.8193L29.5629 24.6912C29.3898 24.9442 29.1569 25.1513 28.8846 25.2945C28.6123 25.4376 28.3089 25.5125 28.0008 25.5125H25.2223" fill="#9A70E2"/>
<path d="M5.52036 31.3737L5.64523 31.2488C6.05717 30.8369 6.72506 30.8369 7.137 31.2488L7.26187 31.3737C7.67381 31.7856 7.67381 32.4535 7.26187 32.8655L7.137 32.9903C6.72506 33.4023 6.05717 33.4023 5.64523 32.9903L5.52036 32.8655C5.10842 32.4535 5.10842 31.7856 5.52036 31.3737Z" fill="#9A70E2"/>
<path d="M47.9925 20H48.0071C48.0932 21.3718 49 21.3929 49 21.3929C49 21.3929 48 21.4149 48 23C48 21.4149 47 21.3929 47 21.3929C47 21.3929 47.9065 21.3718 47.9925 20Z" fill="#E1E4E5"/>
<path d="M31.531 27H42.469C42.7623 27 43 27.2239 43 27.5C43 27.7761 42.7623 28 42.469 28H31.531C31.2377 28 31 27.7761 31 27.5C31 27.2239 31.2377 27 31.531 27Z" fill="white"/>
<path d="M34.6266 29H42.3734C42.7194 29 43 29.2239 43 29.5C43 29.7761 42.7194 30 42.3734 30H34.6266C34.2806 30 34 29.7761 34 29.5C34 29.2239 34.2806 29 34.6266 29Z" fill="white"/>
<path d="M34.6266 31H42.3734C42.7194 31 43 31.2239 43 31.5C43 31.7761 42.7194 32 42.3734 32H34.6266C34.2806 32 34 31.7761 34 31.5C34 31.2239 34.2806 31 34.6266 31Z" fill="white"/>
<path d="M40.4358 44.1468L42.6912 46.4021C42.7733 46.4842 42.7733 46.6174 42.6912 46.6995C42.609 46.7816 42.4759 46.7816 42.3938 46.6995L40.1384 44.4441C40.0563 44.362 40.0563 44.2289 40.1384 44.1468C40.2206 44.0646 40.3537 44.0646 40.4358 44.1468Z" fill="#31446C"/>
<path d="M38.5901 44.1468L40.8455 46.4021C40.9276 46.4842 40.9276 46.6174 40.8455 46.6995C40.7633 46.7816 40.6302 46.7816 40.5481 46.6995L38.2927 44.4441C38.2106 44.362 38.2106 44.2289 38.2927 44.1468C38.3749 44.0646 38.508 44.0646 38.5901 44.1468Z" fill="#31446C"/>
<path d="M36.6292 44.1468L38.8845 46.4021C38.9666 46.4842 38.9666 46.6174 38.8845 46.6995C38.8024 46.7816 38.6693 46.7816 38.5871 46.6995L36.3318 44.4441C36.2497 44.362 36.2497 44.2289 36.3318 44.1468C36.4139 44.0646 36.5471 44.0646 36.6292 44.1468Z" fill="#31446C"/>
<path d="M6.29569 36.5335L8.55102 38.7888C8.63314 38.8709 8.63314 39.0041 8.55102 39.0862C8.4689 39.1683 8.33576 39.1683 8.25364 39.0862L5.99831 36.8309C5.91619 36.7487 5.91619 36.6156 5.99831 36.5335C6.08043 36.4514 6.21357 36.4514 6.29569 36.5335Z" fill="#E1E4E5"/>
<path d="M9.17899 17.1565L11.4343 19.4119C11.5164 19.494 11.5164 19.6271 11.4343 19.7092C11.3522 19.7914 11.2191 19.7914 11.1369 19.7092L8.88161 17.4539C8.79949 17.3718 8.79949 17.2386 8.88161 17.1565C8.96373 17.0744 9.09687 17.0744 9.17899 17.1565Z" fill="#E1E4E5"/>
<path d="M6.51633 38.1482L7.16674 38.7986C7.24886 38.8807 7.24886 39.0138 7.16674 39.096C7.08462 39.1781 6.95148 39.1781 6.86937 39.096L6.21895 38.4455C6.13683 38.3634 6.13683 38.2303 6.21895 38.1482C6.30107 38.066 6.43421 38.066 6.51633 38.1482Z" fill="#E1E4E5"/>
<path d="M9.39963 18.7712L10.05 19.4216C10.1322 19.5037 10.1322 19.6369 10.05 19.719C9.96792 19.8011 9.83478 19.8011 9.75267 19.719L9.10225 19.0686C9.02013 18.9865 9.02013 18.8533 9.10225 18.7712C9.18437 18.6891 9.31751 18.6891 9.39963 18.7712Z" fill="#E1E4E5"/>
<path d="M18.0674 48C17.1075 48.0013 15.7263 47.6935 14.5947 46.3507C13.4635 45.0077 14.0994 44.1733 15.2227 44.022C16.3458 43.8707 17.6929 44.5014 18.5651 45.852C19.4372 47.2027 18.8553 47.9988 18.0674 48Z" fill="url(#paint0_linear_3859_7593)"/>
<path d="M48.5 41C48.2239 41 48 40.7761 48 40.5C48 40.2239 48.2239 40 48.5 40C48.7761 40 49 40.2239 49 40.5C49 40.7761 48.7761 41 48.5 41Z" fill="#E1E4E5"/>
<path d="M24.5442 34.9647C24.5442 34.9647 26.269 35.2194 27.111 34.8757C27.9441 34.5355 29.9063 33.2329 31.7851 33.0006C31.8027 32.9983 31.8205 33.0023 31.8355 33.0117C31.8505 33.0212 31.8617 33.0356 31.8672 33.0525C31.9063 33.1759 31.9274 33.4748 31.3702 33.7672C30.6442 34.1466 30.0958 34.4515 30.0958 34.4515C30.0958 34.4515 33.5137 35.3485 34.4218 35.6606C34.6011 35.7221 34.7384 35.7917 34.8446 35.8659C35.1753 36.0973 34.9329 36.6175 34.5412 36.5204L32.2492 35.9532C32.2492 35.9532 32.4472 36.1355 32.3711 36.3638C32.2984 36.5795 31.8833 36.7241 31.5292 36.6144C31.5292 36.6144 31.7342 36.8379 31.5536 37.0941C31.373 37.3502 30.9366 37.3409 30.726 37.2928C30.726 37.2928 30.9677 37.4634 30.8907 37.6854C30.8136 37.9075 30.3316 38.0136 30.1772 37.9986C30.0229 37.9836 28.7207 38.0845 26.8251 37.3521L24.2721 37.9332C24.2721 37.9332 23.5062 37.305 24.5442 34.9647Z" fill="#F8AE9D"/>
<path d="M26.5443 38.5728C23.4128 39.6211 19.2229 38.6196 16.5667 36.8785C14.9026 35.7902 13.8406 34.4081 14.0196 33.0579C14.483 29.5506 17.3407 21.5116 19.8131 20.3387C21.4938 19.5407 23.5325 19.2104 24.6692 19.0777C25.2025 19.0148 25.5356 19 25.5356 19L25.1231 20.1226L23.0584 25.738C22.9814 29.0705 20.5089 31.0493 21.0008 31.8256C21.4927 32.5995 25.3768 33.4352 27.4166 34.7602C27.9808 35.1283 28.6967 37.7908 26.5443 38.5728Z" fill="#31446C"/>
<path d="M19.2087 14.6055C20.313 15.338 22 14.826 22 14.826C22 14.826 21.8955 13.1265 20.7905 12.3948C19.6862 11.6623 18 12.1736 18 12.1736C18 12.1736 18.1044 13.873 19.2087 14.6055Z" fill="url(#paint1_linear_3859_7593)"/>
<path d="M52 35C51.4477 35 51 35.4477 51 36C51 36.5523 51.4477 37 52 37C52.5523 37 53 36.5523 53 36C53 35.4477 52.5523 35 52 35Z" fill="#9A70E2"/>
<path d="M5 30C4.44772 30 4 29.5523 4 29C4 28.4477 4.44772 28 5 28C5.55228 28 6 28.4477 6 29C6 29.5523 5.55228 30 5 30Z" fill="#9A70E2"/>
<path d="M44.5 17C43.6716 17 43 16.5523 43 16C43 15.4477 43.6716 15 44.5 15C45.3284 15 46 15.4477 46 16C46 16.5523 45.3284 17 44.5 17Z" fill="#9A70E2"/>
<path d="M52 47C51.4477 47 51 46.5523 51 46C51 45.4477 51.4477 45 52 45C52.5523 45 53 45.4477 53 46C53 46.5523 52.5523 47 52 47Z" fill="#E1E4E5"/>
<path d="M5.2006 39.5426C5.26399 39.7792 5.12358 40.0224 4.88698 40.0858C4.65039 40.1492 4.40719 40.0088 4.34379 39.7722C4.2804 39.5356 4.42081 39.2924 4.65741 39.229C4.894 39.1656 5.1372 39.306 5.2006 39.5426Z" fill="#E1E4E5"/>
<path d="M12.5 19C12.2239 19 12 18.7761 12 18.5C12 18.2239 12.2239 18 12.5 18C12.7761 18 13 18.2239 13 18.5C13 18.7761 12.7761 19 12.5 19Z" fill="#E1E4E5"/>
<path d="M14.2644 22.8462H14.275C14.3378 23.831 15 23.8462 15 23.8462C15 23.8462 14.2698 23.862 14.2698 25C14.2698 23.862 13.5397 23.8462 13.5397 23.8462C13.5397 23.8462 14.2015 23.831 14.2644 22.8462ZM6.75315 20H6.76416C6.82953 21.04 7.51763 21.056 7.51763 21.056C7.51763 21.056 6.75885 21.0726 6.75885 22.2744C6.75885 21.0726 6 21.056 6 21.056C6 21.056 6.68786 21.04 6.75315 20Z" fill="#E1E4E5"/>
<defs>
<linearGradient id="paint0_linear_3859_7593" x1="12.994" y1="48.4417" x2="22.5092" y2="44.0787" gradientUnits="userSpaceOnUse">
<stop stop-color="white"/>
<stop offset="1" stop-color="#EEEEEE"/>
</linearGradient>
<linearGradient id="paint1_linear_3859_7593" x1="23.5103" y1="17.0089" x2="15.1618" y2="7.8677" gradientUnits="userSpaceOnUse">
<stop stop-color="white"/>
<stop offset="1" stop-color="#EEEEEE"/>
</linearGradient>
</defs>
</svg>
