<svg width="56" height="56" viewBox="0 0 56 56" fill="none" xmlns="http://www.w3.org/2000/svg">
<g clip-path="url(#clip0_449_613)">
<path d="M53.3224 20.3169C53.6806 20.1264 54.1272 20.2617 54.2995 20.629C55.7591 23.7396 56.0853 27.2721 55.2065 30.6098C54.2653 34.1849 52.0108 37.2738 48.8928 39.2601C45.7749 41.2465 42.0227 41.9843 38.3847 41.3265C34.7468 40.6687 31.4906 38.6635 29.2658 35.711C27.0409 32.7585 26.0109 29.0757 26.3813 25.3974C26.7517 21.7191 28.4952 18.3156 31.264 15.8659C34.0329 13.4163 37.6235 12.1005 41.3195 12.1812C44.7702 12.2565 48.0759 13.5437 50.6637 15.8041C50.9693 16.071 50.9762 16.5376 50.6944 16.8295C50.4126 17.1213 49.9488 17.1276 49.6418 16.8625C47.3211 14.858 44.3685 13.7172 41.2875 13.65C37.961 13.5774 34.7295 14.7616 32.2375 16.9663C29.7456 19.171 28.1764 22.2341 27.8431 25.5446C27.5097 28.8551 28.4367 32.1696 30.4391 34.8268C32.4415 37.4841 35.372 39.2887 38.6462 39.8808C41.9203 40.4728 45.2973 39.8088 48.1035 38.021C50.9096 36.2333 52.9386 33.4534 53.7858 30.2358C54.5704 27.2556 54.2876 24.1029 53.0005 21.3197C52.8302 20.9514 52.9642 20.5073 53.3224 20.3169Z" fill="#9A70E2"/>
<circle cx="16.0261" cy="35.8459" r="13.1903" transform="rotate(-37.535 16.0261 35.8459)" fill="white"/>
<path d="M21.462 24.1754C21.6191 23.83 22.0274 23.6759 22.3645 23.8501C25.2192 25.3253 27.4739 27.7592 28.724 30.7352C30.0629 33.9228 30.1509 37.4981 28.9704 40.7477C27.7899 43.9973 25.4276 46.6825 22.3549 48.2674C19.2822 49.8523 15.7248 50.2206 12.3926 49.2987C9.06035 48.3767 6.19817 46.2324 4.37703 43.2935C2.55588 40.3546 1.90967 36.8371 2.5673 33.4428C3.22494 30.0485 5.13807 27.0269 7.92504 24.9808C10.527 23.0706 13.712 22.1417 16.919 22.3435C17.2977 22.3674 17.5687 22.7094 17.526 23.0864C17.4833 23.4634 17.143 23.7324 16.7642 23.7107C13.901 23.5464 11.0614 24.3827 8.73817 26.0884C6.22989 27.9299 4.50808 30.6493 3.91621 33.7042C3.32434 36.7591 3.90593 39.9248 5.54496 42.5698C7.18398 45.2148 9.75995 47.1447 12.759 47.9744C15.758 48.8041 18.9596 48.4727 21.725 47.0463C24.4905 45.6198 26.6165 43.2032 27.679 40.2786C28.7415 37.3539 28.6623 34.1362 27.4572 31.2673C26.3411 28.6101 24.3351 26.4332 21.7946 25.1024C21.4585 24.9264 21.3049 24.5207 21.462 24.1754Z" fill="#9A70E2"/>
<circle cx="20" cy="17.0001" r="14" fill="white"/>
<path d="M32.2509 10.341C32.6098 10.1502 33.0572 10.2858 33.2298 10.6537C34.692 13.77 35.0188 17.3089 34.1385 20.6526C33.1955 24.2342 30.937 27.3286 27.8133 29.3186C24.6897 31.3085 20.9307 32.0477 17.2862 31.3887C13.6417 30.7297 10.3796 28.7209 8.15073 25.763C5.92183 22.8052 4.88999 19.1157 5.26105 15.4308C5.63211 11.7458 7.37879 8.33612 10.1526 5.88203C12.9265 3.42793 16.5236 2.10981 20.2263 2.1906C23.6832 2.26603 26.995 3.55562 29.5874 5.82012C29.8935 6.08749 29.9005 6.55493 29.6182 6.84729C29.3359 7.13966 28.8712 7.14603 28.5636 6.88036C26.2387 4.87227 23.2808 3.72942 20.1942 3.66207C16.8617 3.58936 13.6244 4.77568 11.1279 6.98436C8.63143 9.19304 7.05942 12.2617 6.72547 15.5782C6.39151 18.8947 7.32017 22.2152 9.32618 24.8772C11.3322 27.5393 14.2681 29.3472 17.5481 29.9404C20.8282 30.5335 24.2113 29.8682 27.0225 28.0773C29.8338 26.2863 31.8665 23.5013 32.7151 20.2779C33.5012 17.2923 33.2179 14.134 31.9285 11.3456C31.7579 10.9767 31.8921 10.5318 32.2509 10.341Z" fill="#9A70E2"/>
<path d="M25.4258 12.1609V11.6276C25.4258 10.7298 24.7198 10 23.8518 10H22.3927C21.5247 10 20.8193 10.7298 20.8193 11.6276V12.0934H18.182V11.6276C18.182 10.7298 17.476 10 16.6086 10H15.1495C14.2815 10 13.5755 10.7298 13.5755 11.6276V12.1609C12.4283 12.4178 11.5345 13.4293 11.4478 14.6775L11.0072 20.9673C10.952 21.7479 11.2174 22.5245 11.7356 23.098C12.2537 23.6715 12.9861 24 13.7461 24C14.6061 24 15.4275 23.5768 15.9428 22.8678L17.3858 20.8856C17.642 20.5334 18.0505 20.3233 18.4773 20.3233H20.5229C20.9503 20.3233 21.3581 20.5328 21.6143 20.885L23.0579 22.8678C23.5732 23.5768 24.3946 24 25.254 24C26.014 24 26.747 23.6709 27.2646 23.098C27.7822 22.5251 28.0475 21.7485 27.993 20.9673L27.5529 14.6775C27.4662 13.4293 26.5729 12.4184 25.4258 12.1609ZM21.9676 11.6276C21.9676 11.3832 22.1583 11.1837 22.3921 11.1837H23.8512C24.0856 11.1837 24.2763 11.3832 24.2763 11.6276V12.0934H21.967L21.9676 11.6276ZM15.1489 11.1837H16.608C16.8418 11.1837 17.0325 11.3832 17.0325 11.6276V12.0934H14.7238V11.6276C14.7238 11.3832 14.9145 11.1837 15.1489 11.1837ZM26.4236 22.2913C26.118 22.6298 25.7027 22.8163 25.254 22.8163C24.7542 22.8163 24.2769 22.57 23.9764 22.1581L22.5329 20.1754C22.0618 19.5267 21.3099 19.1396 20.5223 19.1396H18.4767C17.6903 19.1396 16.9383 19.5267 16.4661 20.1754L15.0231 22.1581C14.7233 22.57 14.2453 22.8163 13.745 22.8163C13.2963 22.8163 12.881 22.6304 12.5754 22.2913C12.2704 21.9533 12.1199 21.5136 12.152 21.0525L12.5926 14.7627C12.6512 13.9294 13.3319 13.2766 14.1431 13.2766H24.8565C25.6676 13.2766 26.3489 13.9294 26.4069 14.7627L26.847 21.0525C26.8791 21.5136 26.7286 21.9533 26.4236 22.2913ZM15.6935 14.3603C14.6061 14.3603 13.7214 15.2718 13.7214 16.3922C13.7214 17.5131 14.6061 18.4246 15.6935 18.4246C16.7815 18.4246 17.6661 17.5131 17.6661 16.3922C17.6661 15.2718 16.7815 14.3603 15.6935 14.3603ZM15.6935 17.2403C15.2397 17.2403 14.8703 16.8591 14.8703 16.3916C14.8703 15.924 15.2397 15.5434 15.6935 15.5434C16.1473 15.5434 16.5173 15.924 16.5173 16.3916C16.5173 16.8591 16.1479 17.2403 15.6935 17.2403ZM23.3061 14.3603C22.2181 14.3603 21.3334 15.2718 21.3334 16.3922C21.3334 17.5131 22.2181 18.4246 23.3061 18.4246C24.3935 18.4246 25.2781 17.5131 25.2781 16.3922C25.2781 15.2718 24.3935 14.3603 23.3061 14.3603ZM23.3061 17.2403C22.8523 17.2403 22.4823 16.8591 22.4823 16.3916C22.4823 15.924 22.8523 15.5434 23.3061 15.5434C23.7599 15.5434 24.1292 15.924 24.1292 16.3916C24.1292 16.8591 23.7599 17.2403 23.3061 17.2403Z" fill="#9A70E2"/>
<path d="M43.583 22.9171L46.0829 20.5005C46.4034 20.18 46.838 20 47.2912 20C47.7444 20 48.179 20.18 48.4995 20.5005C48.82 20.821 49 21.2556 49 21.7088C49 22.162 48.82 22.5966 48.4995 22.9171L46.0829 25.417L48.1662 31.6668L46.0829 33.7917L43.1664 28.3336L40.6664 30.8335V33.3334L38.9998 35L37.7499 31.2501L34 30.0002L35.6666 28.3336H38.1665L40.6664 25.8336L35.25 22.9171L37.3332 20.8338L43.583 22.9171Z" stroke="#9A70E2" stroke-linecap="round" stroke-linejoin="round"/>
<rect x="27" y="35" width="22.1538" height="16" fill="white"/>
<path d="M35.4252 39.2471L35.426 39.2475L42.4373 42.9703C42.4569 42.9808 42.4712 42.9906 42.4815 42.9987C42.4712 43.0069 42.4569 43.0167 42.4373 43.0272L42.4372 43.0272L35.4259 46.7521L35.4252 46.7525C35.3011 46.8186 35.1322 46.8245 34.9965 46.7746C34.9229 46.7476 34.8944 46.7215 34.8846 46.7085V39.2919C34.8946 39.2788 34.9233 39.2527 34.9969 39.2256C35.133 39.1754 35.3016 39.1812 35.4252 39.2471ZM34.8801 46.6999C34.8805 46.6997 34.8816 46.7015 34.8827 46.7057C34.8804 46.7021 34.8798 46.7 34.8801 46.6999ZM34.88 39.3006C34.8797 39.3005 34.8802 39.2984 34.8825 39.2949C34.8815 39.299 34.8803 39.3007 34.88 39.3006Z" stroke="#9A70E2"/>
<path d="M41.7692 51H28C27.4477 51 27 50.5523 27 50V36C27 35.4477 27.4477 35 28 35H48.1538C48.7061 35 49.1538 35.4477 49.1538 36V50C49.1538 50.5523 48.7061 51 48.1538 51H46.0769" stroke="#9A70E2" stroke-linecap="round"/>
<path d="M13.141 40.245V39.0366H18.859V40.245C18.859 41.2126 19.5618 42 20.4267 42H23.4317C24.296 42 25 41.2132 25 40.245V33.755C25 32.7874 24.2966 32 23.4317 32L20.4267 32C19.5624 32 18.859 32.7868 18.859 33.755V34.9634H13.141V33.755C13.141 32.7874 12.4382 32 11.5733 32H8.56774C7.70341 32 7 32.7868 7 33.755L7 40.245C7 41.2126 7.70286 42 8.56774 42H11.5733C12.4382 42 13.141 41.2132 13.141 40.245ZM19.965 33.755C19.965 33.4702 20.1723 33.2381 20.4267 33.2381H23.4317C23.6866 33.2381 23.894 33.4702 23.894 33.755V40.245C23.894 40.5298 23.6866 40.7619 23.4317 40.7619H20.4267C20.1723 40.7619 19.965 40.5298 19.965 40.245V33.755ZM18.859 36.2014V37.7986H13.141V36.2014H18.859ZM12.035 40.245C12.035 40.5298 11.8277 40.7619 11.5733 40.7619H8.56774C8.31336 40.7619 8.10599 40.5298 8.10599 40.245V33.755C8.10599 33.4702 8.31336 33.2381 8.56774 33.2381H11.5733C11.8277 33.2381 12.035 33.4702 12.035 33.755V40.245Z" fill="#9A70E2"/>
</g>
<defs>
<clipPath id="clip0_449_613">
<rect width="56" height="56" fill="white"/>
</clipPath>
</defs>
</svg>
