<svg width="80" height="37" viewBox="0 0 80 37" fill="none" xmlns="http://www.w3.org/2000/svg">
<rect width="80" height="37" rx="18.5" fill="#9A70E2"/>
<path d="M27.1219 12.1278C27.04 12.0459 26.9289 12 26.8132 12C26.6974 12 26.5864 12.0459 26.5045 12.1278L19.6327 19.0034C19.5857 19.0503 19.5498 19.1073 19.5278 19.17L18.6233 21.8261C18.5971 21.9028 18.5929 21.9852 18.6111 22.0641C18.6294 22.143 18.6694 22.2152 18.7266 22.2725C18.7838 22.3299 18.8559 22.3701 18.9347 22.3886C19.0136 22.407 19.096 22.4031 19.1728 22.3771L21.8291 21.4712C21.8915 21.449 21.9483 21.4137 21.9958 21.3678L28.8722 14.4922C28.954 14.4103 29 14.2992 29 14.1835C29 14.0677 28.954 13.9567 28.8722 13.8748L27.1219 12.1278ZM21.4525 20.6825L19.7377 21.269L20.3242 19.5466L25.5876 14.2776L26.7221 15.412L21.4525 20.6825ZM27.3364 14.7993L26.2004 13.6634L26.8178 13.046L27.9538 14.1819L27.3364 14.7993Z" fill="white"/>
<path d="M17.8653 12.8758H22C22.1116 12.8691 22.2165 12.8201 22.2932 12.7387C22.3699 12.6573 22.4126 12.5497 22.4126 12.4379C22.4126 12.3261 22.3699 12.2185 22.2932 12.1371C22.2165 12.0557 22.1116 12.0067 22 12H17.8653C17.1057 12.0008 16.3773 12.303 15.8401 12.8401C15.303 13.3773 15.0008 14.1057 15 14.8653V23.1347C15.0008 23.8943 15.303 24.6227 15.8401 25.1599C16.3773 25.697 17.1057 25.9992 17.8653 26H26.1347C26.8943 25.9992 27.6227 25.697 28.1599 25.1599C28.697 24.6227 28.9992 23.8943 29 23.1347V19C28.9933 18.8884 28.9443 18.7835 28.8629 18.7068C28.7815 18.6301 28.6739 18.5874 28.5621 18.5874C28.4503 18.5874 28.3427 18.6301 28.2613 18.7068C28.1799 18.7835 28.1309 18.8884 28.1242 19V23.1347C28.1234 23.6622 27.9136 24.168 27.5407 24.5411C27.1678 24.9143 26.6622 25.1245 26.1347 25.1258H17.8653C17.3375 25.125 16.8315 24.9149 16.4583 24.5417C16.0851 24.1685 15.875 23.6625 15.8742 23.1347V14.8653C15.8755 14.3378 16.0857 13.8322 16.4589 13.4593C16.832 13.0864 17.3378 12.8766 17.8653 12.8758Z" fill="white"/>
<path d="M45.2656 15.6406C45.25 17.8672 46.8594 20.3203 48.875 21.2812L48.1719 22.25C46.6094 21.4844 45.2891 19.8438 44.6641 17.9609C44.0234 20 42.6328 21.7969 41.0781 22.5938L40.3281 21.625C42.3281 20.6484 44.0469 18.0078 44.0625 15.6406V13.8281H40.8281V12.8125H48.3906V13.8281H45.2656V15.6406ZM50.0938 25.2656V11.375H51.3125V17H53.6406V18.0469H51.3125V25.2656H50.0938ZM67.2537 19.2969V20.3125H63.8944V25.2656H62.66V20.3125H59.0975V25.2656H57.8319V20.3125H54.535V19.2969H67.2537ZM55.9725 14.9688C55.9803 13.1172 57.9412 11.9453 60.8631 11.9375C63.7772 11.9453 65.7537 13.1172 65.7537 14.9688C65.7537 16.8203 63.7772 17.9766 60.8631 17.9688C57.9412 17.9766 55.9803 16.8203 55.9725 14.9688ZM57.2381 14.9688C57.2225 16.1953 58.6991 16.9844 60.8631 16.9844C63.0272 16.9844 64.4959 16.1953 64.5037 14.9688C64.4959 13.7344 63.0272 12.9375 60.8631 12.9375C58.6991 12.9375 57.2225 13.7344 57.2381 14.9688Z" fill="white"/>
</svg>
