<svg width="57" height="57" viewBox="0 0 57 57" fill="none" xmlns="http://www.w3.org/2000/svg">
<rect width="57" height="57" rx="5" fill="#E8E8FC"/>
<path d="M18.7432 34.0846C18.7432 34.0846 21.8495 32.3426 20.3999 29.9788C20.3999 29.9788 19.2403 28.5272 17.9979 28.1537C17.9979 28.1537 18.6603 31.6787 17.9979 31.7617C17.335 31.8447 17.5422 27.7803 17.5422 27.7803C17.5422 27.7803 14.2702 26.2043 12.9863 26.3287C12.9863 26.3287 15.0154 29.7707 14.3531 29.6877C13.6902 29.6048 11.4125 26.1212 11.4125 26.1212C11.4125 26.1212 8.05761 25.4995 7.51953 27.4899C6.98095 29.4803 7.85099 30.476 8.34765 30.6005C8.8448 30.725 12.0334 30.6835 11.9505 31.0984C11.8677 31.5133 9.71434 32.1766 8.51335 31.8038C8.51335 31.8038 9.83862 35.0798 11.5782 34.9144C13.3178 34.7485 13.8558 33.6702 14.9325 33.5873C16.0092 33.5043 16.7964 33.7948 16.2578 34.0852C15.7192 34.3756 13.8973 34.1805 13.0272 34.9206C12.1577 35.6612 11.4534 36.1171 13.0687 36.449C14.684 36.781 17.583 36.5735 18.1626 35.3293L18.7432 34.0846Z" fill="#9A70E2"/>
<path d="M9.05176 28.1133C9.05176 28.1133 17.7486 30.9335 18.7424 34.0851C18.7424 34.0851 18.701 35.4952 19.5705 37.1128V37.7351C19.5705 37.7351 18.6595 35.6202 18.1624 35.3298C18.1629 35.3293 20.1096 32.592 9.05176 28.1133Z" fill="#9A70E2"/>
<path d="M19.5712 37.1114C19.5712 37.1114 20.9127 39.1512 20.1479 41.6339L19.803 41.5408C19.803 41.5408 20.1378 38.8063 19.4363 37.431C18.7342 36.0557 19.5712 37.1114 19.5712 37.1114ZM41.7702 37.3092C41.7702 37.3092 39.0844 36.3903 39.8803 34.3286C39.8803 34.3286 40.5805 33.0236 41.5012 32.5521C41.5012 32.5521 41.4889 35.4116 42.0205 35.3811C42.552 35.3506 41.8046 32.1939 41.8046 32.1939C41.8046 32.1939 44.143 30.4876 45.1678 30.4001C45.1678 30.4001 44.0718 33.3909 44.5795 33.2306C45.0872 33.0703 46.3716 30.0108 46.3716 30.0108C46.3716 30.0108 48.9123 29.0407 49.6211 30.5238C50.3294 32.0069 49.791 32.9126 49.4195 33.082C49.048 33.2509 46.5415 33.6773 46.666 33.9905C46.7905 34.3038 48.5746 34.5142 49.4624 34.0488C49.4624 34.0488 48.8946 36.8084 47.5074 36.9288C46.1195 37.0488 45.5426 36.2813 44.6863 36.3708C43.8301 36.4608 43.255 36.8018 43.7186 36.9516C44.1823 37.1019 45.5829 36.6866 46.3716 37.1415C47.1599 37.597 47.7776 37.8532 46.5592 38.3458C45.3408 38.8384 43.0379 39.0927 42.404 38.2009L41.7702 37.3092Z" fill="#9A70E2"/>
<path d="M48.509 31.2324C48.509 31.2324 42.0957 34.6953 41.7698 37.3094C41.7698 37.3094 42.0051 38.4091 41.5562 39.8021L41.6457 40.29C41.6457 40.29 42.0559 38.5003 42.4036 38.2011C42.4037 38.2017 40.4832 36.3355 48.509 31.2324Z" fill="#9A70E2"/>
<path d="M41.5568 39.8029C41.5568 39.8029 40.7989 41.5953 41.7557 43.4318L42.0132 43.3097C42.0132 43.3097 41.357 41.2137 41.7094 40.0343C42.061 38.8544 41.5568 39.8029 41.5568 39.8029Z" fill="#9A70E2"/>
<path d="M42.5853 45.6657C42.5853 45.6657 40.9183 45.0954 41.4123 43.8157C41.4123 43.8157 41.8469 43.0057 42.4184 42.7131C42.4184 42.7131 42.4107 44.4879 42.7407 44.469C43.0706 44.4501 42.6067 42.4907 42.6067 42.4907C42.6067 42.4907 44.0581 41.4317 44.6942 41.3774C44.6942 41.3774 44.0139 43.2337 44.329 43.1343C44.6442 43.0348 45.4414 41.1358 45.4414 41.1358C45.4414 41.1358 47.0183 40.5337 47.4583 41.4542C47.8979 42.3747 47.5637 42.9368 47.3331 43.042C47.1025 43.1468 45.5469 43.4115 45.6241 43.6059C45.7014 43.8003 46.8087 43.931 47.3597 43.6421C47.3597 43.6421 47.0073 45.3549 46.1463 45.4296C45.2849 45.5041 44.9268 45.0278 44.3953 45.0833C43.8639 45.1392 43.507 45.3508 43.7946 45.4438C44.0824 45.5371 44.9518 45.2793 45.4414 45.5617C45.9306 45.8444 46.314 46.0034 45.5577 46.3091C44.8015 46.6149 43.3721 46.7727 42.9787 46.2193L42.5853 45.6657Z" fill="#E1E4E5"/>
<path d="M46.7683 41.8944C46.7683 41.8944 42.7878 44.0438 42.5855 45.6663C42.5855 45.6663 42.7316 46.3489 42.4529 47.2135L42.5085 47.5163C42.5085 47.5163 42.7631 46.4056 42.9789 46.2199C42.9789 46.2202 41.787 45.0618 46.7683 41.8944ZM20.97 36.5892C20.97 36.5892 19.5606 36.107 19.9782 35.025C19.9782 35.025 20.3457 34.3402 20.8289 34.0928C20.8289 34.0928 20.8224 35.5934 21.1013 35.5774C21.3803 35.5614 20.9881 33.9048 20.9881 33.9048C20.9881 33.9048 22.2152 33.0094 22.753 32.9635C22.753 32.9635 22.1779 34.533 22.4443 34.4489C22.7107 34.3648 23.3847 32.7592 23.3847 32.7592C23.3847 32.7592 24.718 32.2502 25.09 33.0284C25.4617 33.8067 25.1791 34.282 24.9842 34.3709C24.7892 34.4595 23.4739 34.6833 23.5392 34.8477C23.6046 35.012 24.5408 35.1225 25.0067 34.8782C25.0067 34.8782 24.7088 36.3264 23.9808 36.3896C23.2525 36.4526 22.9497 36.0498 22.5003 36.0968C22.051 36.144 21.7492 36.323 21.9925 36.4016C22.2358 36.4804 22.9709 36.2625 23.3847 36.5012C23.7984 36.7403 24.1226 36.8747 23.4832 37.1332C22.8438 37.3917 21.6353 37.5252 21.3026 37.0572L20.97 36.5892Z" fill="#E1E4E5"/>
<path d="M24.5066 33.4004C24.5066 33.4004 21.1411 35.2176 20.97 36.5894C20.97 36.5894 21.0935 37.1665 20.8579 37.8976L20.9049 38.1536C20.9049 38.1536 21.1202 37.2144 21.3026 37.0574C21.3027 37.0577 20.2949 36.0783 24.5066 33.4004Z" fill="#E1E4E5"/>
<path d="M20.858 37.8972C20.858 37.8972 20.4602 38.8379 20.9623 39.8016L21.0975 39.7375C21.0975 39.7375 20.7531 38.6376 20.938 38.0186C21.1226 37.3994 20.858 37.8972 20.858 37.8972Z" fill="#E1E4E5"/>
<path d="M13.2124 12.2813L13.443 11.4208M12.3255 10.0453C12.886 11.0162 14.1276 11.3488 15.0985 10.7882C16.0693 10.2277 16.4021 8.98622 15.8415 8.01525C15.2809 7.04445 14.0395 6.71172 13.0685 7.27231C12.0976 7.83281 11.765 9.07432 12.3255 10.0453Z" stroke="#9A70E2" stroke-linecap="round" stroke-linejoin="round"/>
<path d="M39.8096 36.7447C40.2711 36.9817 40.6711 37.4784 40.8602 37.9569C41.0014 38.3265 41.0989 38.7077 41.24 39.0773C41.4017 39.4882 41.6965 39.7322 41.9894 40.0565C42.0888 40.1656 42.1907 40.2835 42.2718 40.4116C42.3507 40.5309 42.3523 40.6944 42.5096 40.6522C42.6669 40.6101 42.6963 40.4056 42.6787 40.2698C42.6279 39.9229 42.3867 39.7393 42.1894 39.4925C42.2157 39.4855 42.2363 39.4752 42.2657 39.4626C42.5382 39.7456 42.7414 40.0845 42.9597 40.4099C43.1465 40.6876 43.3829 41.0457 43.6605 41.2429C43.7704 41.3211 43.9211 41.3416 44.0466 41.3033C44.1459 41.272 44.2376 41.1772 44.2119 41.0811C44.2001 41.0374 44.1677 41.0039 44.1703 40.9611C44.172 40.9326 44.188 40.9049 44.2095 40.8804C44.2598 40.806 44.307 40.7373 44.3573 40.6628C44.4515 40.5252 44.2714 40.1849 44.2586 40.015C44.2518 39.9373 44.2649 39.8635 44.2636 39.7889C44.2661 39.6604 44.2507 39.5322 44.2177 39.4079C44.021 38.6739 43.3038 38.3042 42.7385 37.8892C42.0252 37.3591 41.4835 36.5959 41.2224 35.7434M15.5119 16.8743C15.4015 16.3747 15.2855 15.872 15.1719 15.378C15.0699 14.9277 14.9196 14.4716 14.8757 14.0105C14.8523 13.7311 14.875 13.4487 14.9032 13.1696C14.919 13.0015 14.9349 12.8334 14.9958 12.6765C15.0842 12.4469 15.4906 12.0242 15.2934 11.7774C14.9867 12.0656 14.6777 12.3451 14.3149 12.5641C14.2106 12.6294 14.0953 12.6884 13.9683 12.7037C13.8183 12.7205 13.667 12.6627 13.5332 12.6002C13.0589 12.3855 12.6335 12.0734 12.2805 11.6997C11.9409 11.3412 11.5918 10.9992 11.2857 10.6083C11.2645 10.5813 11.2486 10.5575 11.2177 10.5469C11.1647 10.5238 11.105 10.5631 11.0652 10.6065C10.9439 10.7655 11.0102 10.9959 11.1151 11.1598C11.212 11.3118 11.4261 11.5166 11.4403 11.7095C11.4536 11.9166 11.2292 12.0751 11.2964 12.2911C11.3231 12.373 11.3855 12.4312 11.4153 12.5075C11.4921 12.707 11.3246 12.9204 11.3117 13.1346C11.2916 13.3741 11.462 13.5906 11.6327 13.7556C12.0142 14.131 12.4691 14.4306 12.9608 14.6406C13.3354 14.7978 13.3872 15.2708 13.4751 15.6687C13.563 16.0666 13.5874 16.4722 13.6316 16.8818C13.6369 16.9365 13.6446 17 13.6816 17.051C13.7108 17.09 13.7495 17.1124 13.7971 17.1324C14.1145 17.2861 14.4811 17.291 14.8373 17.2751C14.9579 17.2709 15.0873 17.2643 15.1994 17.2108C15.3147 17.1518 15.5391 16.9934 15.5119 16.8743Z" fill="#F8AE9D"/>
<path d="M23.7789 15.381C23.4214 15.8467 23.3909 16.4496 23.5661 17.0161C23.7124 17.4919 24.031 17.9123 24.4575 18.1585C24.5184 18.1937 24.5882 18.2265 24.6627 18.2252C24.8469 18.2134 24.9177 17.9884 24.9487 17.8068C25.0008 17.512 24.9733 17.2524 24.9904 16.9669C25.0076 16.6813 25.1833 16.4282 25.1433 16.1393C25.1025 15.8645 25.1633 15.0429 24.9268 14.8768C24.6381 14.6732 24.0579 15.0769 23.8682 15.2775C23.8379 15.3044 23.81 15.34 23.7789 15.381Z" fill="#31446C"/>
<path d="M27.5208 13.3068C27.5208 13.3068 29.2742 13.0221 29.7451 16.182C30.2683 19.6949 31.6653 19.117 33.884 21.9694C35.1806 23.6362 33.816 26.5796 31.0431 26.5213C28.2702 26.4644 25.766 25.646 24.1709 25.9961C22.5759 26.3462 22.4882 22.1758 24.0621 20.889C25.6359 19.6024 22.2803 15.9073 24.325 14.2618C26.3698 12.6164 27.5208 13.3068 27.5208 13.3068Z" fill="#31446C"/>
<path d="M23.7885 19.0163C23.8065 19.2409 23.8301 19.4688 23.8569 19.691C23.9139 20.0785 24.5768 20.1584 24.8708 20.2247C25.0096 20.2531 25.1483 20.2815 25.2878 20.2957C25.3449 20.2991 25.5561 20.2659 25.595 20.2883C25.7643 20.3787 25.9631 21.8894 26.0496 21.8802C26.856 21.814 27.6727 21.9089 28.4459 22.1559C28.0832 20.4175 28.5922 18.5252 27.9053 16.8878C27.6195 16.2058 27.1334 15.6149 26.5252 15.1974C26.1289 14.9243 25.2897 14.5357 24.8517 14.9106C24.7187 15.0259 24.6291 15.1809 24.5538 15.337C23.9934 16.461 23.7036 17.7561 23.7885 19.0163Z" fill="#F8AE9D"/>
<path d="M38.3211 27.3189C38.4855 26.981 38.4756 26.5885 38.4162 26.2224C38.1593 24.6503 37.0576 23.3367 35.7949 22.3741C34.528 21.4091 33.078 20.7201 31.7452 19.8553C31.3992 19.63 31.0525 19.3875 30.6554 19.2658C30.2582 19.1441 29.7966 19.1571 29.4687 19.4132C29.2371 19.5929 29.1033 19.8707 29.0254 20.1487C28.8547 20.7572 28.9201 21.4015 29.0242 22.0188C29.1544 22.7974 29.3454 23.5679 29.6592 24.2835C29.9106 24.8608 30.3201 25.4547 30.9353 25.5678C31.1133 26.2576 31.4798 26.9042 31.994 27.3989C32.5819 27.966 33.3275 28.3369 34.1011 28.5959C34.8141 28.8351 35.5937 28.9912 36.3108 28.768C36.7364 28.638 37.1112 28.3878 37.4778 28.1326C37.8049 27.9152 38.1444 27.6773 38.3211 27.3189ZM31.8785 26.2706L31.4577 25.6025C31.5473 25.6117 31.6321 25.6292 31.7175 25.6639C31.9485 25.7639 32.0877 26.1278 31.8785 26.2706Z" fill="#31446C"/>
<path d="M26.1098 21.7902C25.3761 21.9354 24.9088 22.6552 24.1735 22.7774C23.2359 22.9302 22.1717 22.8034 21.2196 22.815C20.4452 22.8258 19.5813 22.7998 19.0324 22.2538C18.9676 22.1869 18.9061 22.1144 18.819 22.0863C18.7318 22.0581 18.6118 22.0996 18.598 22.1876C17.8952 21.2427 17.3063 20.2159 16.8407 19.1419C16.7049 18.8272 15.4968 16.0839 15.5469 16.061C14.8951 16.3199 14.2145 16.4883 13.5215 16.5757C13.5472 16.8638 13.51 17.1968 13.5357 17.4849C13.5962 18.1477 13.6623 18.8136 13.7895 19.4632C14.1339 21.2205 14.9389 22.8965 16.1525 24.2101C17.8856 26.0824 20.4884 27.0237 23.0203 27.3334C22.9743 28.0527 23.2647 28.7522 23.6675 29.3467C24.2917 30.261 24.9521 30.9081 25.2416 32.0059C25.4983 32.9813 25.5421 34.0185 25.3591 35.0133C25.3421 35.1069 25.3218 35.2059 25.3388 35.3045C25.352 35.3711 25.3739 35.4355 25.4078 35.492C25.6139 35.8769 25.9945 36.1261 26.3647 36.3547C28.0167 37.3823 30.0556 38.1236 31.9699 38.5051C33.5759 38.8193 35.2881 38.7959 36.8015 38.1703C35.4709 37.1363 35.0381 35.4166 34.449 33.917C33.8449 32.3791 32.607 31.1843 32.1818 29.5797C32.0905 29.239 32.0271 28.8626 32.203 28.558C33.2226 29.9517 35.2713 30.1005 36.4781 31.3363C37.2529 32.1308 37.5549 33.2579 37.9955 34.273C38.4155 35.2468 38.997 36.1586 39.7426 36.914C40.4805 36.8896 41.2246 36.5732 41.6801 36.0016C41.0906 34.413 40.3752 32.9143 39.7858 31.3257C39.6328 30.9124 39.4721 30.4873 39.1856 30.152C38.8533 29.7681 38.3863 29.528 37.9614 29.2532C36.8666 28.5398 36.0262 27.5008 35.099 26.5739C33.9339 25.4064 32.619 24.3962 31.1867 23.5766C30.6328 23.2568 30.0573 22.9614 29.4841 22.6748C29.0725 22.4667 28.6553 22.2554 28.2469 22.0418C28.0798 21.9601 27.916 21.8728 27.7362 21.8134C27.1903 21.6459 26.6752 21.6809 26.1098 21.7902Z" fill="#9A70E2"/>
<path d="M34.2066 39.5918H21.0601V44.0473H34.2066V39.5918Z" fill="white" stroke="#E1E4E5" stroke-width="0.5"/>
<path d="M26.1758 44.0477H20.7852V39.4479L23.5008 34.4766L26.1758 39.4422V44.0477Z" fill="white" stroke="#E1E4E5" stroke-width="0.5" stroke-linejoin="bevel"/>
<path d="M26.9395 42.7736V40.5361H27.9363V42.7736H26.9395Z" fill="white" stroke="#E1E4E5" stroke-width="0.5"/>
<path d="M27.9944 42.7882V40.5234H26.9419V42.7882H27.9944ZM28.1177 42.7746V40.5371H29.1146V42.7746H28.1177Z" fill="white" stroke="#E1E4E5" stroke-width="0.5"/>
<path d="M29.1121 42.7882V40.5234H28.0597V42.7882H29.1121ZM22.5132 42.7746V40.5371H23.51V42.7746H22.5132Z" fill="white" stroke="#E1E4E5" stroke-width="0.5"/>
<path d="M23.5676 42.7882V40.5234H22.5151V42.7882H23.5676ZM23.6909 42.7745V40.537H24.6878V42.7745H23.6909Z" fill="white" stroke="#E1E4E5" stroke-width="0.5"/>
<path d="M24.6856 42.787V40.5222H23.6331V42.787H24.6856ZM23.4984 38.962H22.9111V38.2555C22.911 38.0881 22.9698 37.926 23.0772 37.7975C23.1845 37.669 23.3336 37.5824 23.4984 37.5527V38.962Z" fill="white" stroke="#E1E4E5" stroke-width="0.5"/>
<path d="M22.8721 39.0131V38.2003C22.8721 37.8093 23.1885 37.4922 23.5789 37.4922V39.0131H22.8721ZM24.29 38.9628H23.7027V37.5535C23.8675 37.5832 24.0166 37.6698 24.1239 37.7983C24.2313 37.9267 24.2901 38.0889 24.29 38.2563V38.9628Z" fill="white" stroke="#E1E4E5" stroke-width="0.5"/>
<path d="M23.6226 39.0131V37.4922C24.013 37.4922 24.3294 37.8093 24.3294 38.2003V39.0131H23.6226ZM31.3586 42.7741V40.5366H32.3554V42.7741H31.3586Z" fill="white" stroke="#E1E4E5" stroke-width="0.5"/>
<path d="M32.4133 42.7882V40.5234H31.3608V42.7882H32.4133ZM32.5367 42.7746V40.5371H33.5336V42.7746H32.5367Z" fill="white" stroke="#E1E4E5" stroke-width="0.5"/>
<path d="M33.5315 42.7882V40.5234H32.479V42.7882H33.5315Z" fill="white" stroke="#E1E4E5" stroke-width="0.5"/>
<path d="M34.6177 39.6231H26.4258L23.481 34.4766H31.6728L34.6177 39.6231Z" fill="white" stroke="#E1E4E5" stroke-width="0.5" stroke-linejoin="bevel"/>
<path d="M34.2067 44.0469H20.7852V45.257H34.2067V44.0469Z" fill="white" stroke="#E1E4E5" stroke-width="0.5"/>
<path d="M22.4409 42.8838H10.9165V46.7895H22.4409V42.8838Z" fill="white" stroke="#E1E4E5" stroke-width="0.5"/>
<path d="M15.4008 46.7905H10.6753V42.7583L13.0559 38.4004L15.4008 42.7533V46.7905Z" fill="white" stroke="#E1E4E5" stroke-width="0.5" stroke-linejoin="bevel"/>
<path d="M16.0854 45.659V43.7285H16.9285V45.659H16.0854Z" fill="white" stroke="#E1E4E5" stroke-width="0.5"/>
<path d="M16.9944 45.6865V43.7012H16.0718V45.6865H16.9944ZM17.118 45.6591V43.7286H17.961V45.6591H17.118Z" fill="white" stroke="#E1E4E5" stroke-width="0.5"/>
<path d="M17.9744 45.6865V43.7012H17.0518V45.6865H17.9744ZM12.2051 45.6591V43.7286H13.048V45.6591H12.2051Z" fill="white" stroke="#E1E4E5" stroke-width="0.5"/>
<path d="M13.115 45.6865V43.7012H12.1924V45.6865H13.115ZM13.2386 45.6591V43.7286H14.0815V45.6591H13.2386Z" fill="white" stroke="#E1E4E5" stroke-width="0.5"/>
<path d="M14.0943 45.6869V43.7016H13.1717V45.6869H14.0943ZM13.0381 42.3185H12.5542V41.7146C12.5541 41.5746 12.6021 41.4389 12.6902 41.3301C12.7783 41.2213 12.9012 41.1462 13.0381 41.1172V42.3185Z" fill="white" stroke="#E1E4E5" stroke-width="0.5"/>
<path d="M12.5039 42.3772V41.6646C12.5039 41.3218 12.7814 41.0439 13.1236 41.0439V42.3772H12.5039ZM13.7314 42.3177H13.2475V41.1163C13.3845 41.1453 13.5073 41.2205 13.5954 41.3293C13.6835 41.438 13.7315 41.5738 13.7314 41.7137V42.3177Z" fill="white" stroke="#E1E4E5" stroke-width="0.5"/>
<path d="M13.1626 42.3772V41.0439C13.5048 41.0439 13.7822 41.3218 13.7822 41.6646V42.3772H13.1626ZM19.9595 45.6586V43.7281H20.8024V45.6586H19.9595Z" fill="white" stroke="#E1E4E5" stroke-width="0.5"/>
<path d="M20.8684 45.6865V43.7012H19.9458V45.6865H20.8684ZM20.992 45.6591V43.7286H21.835V45.6591H20.992Z" fill="white" stroke="#E1E4E5" stroke-width="0.5"/>
<path d="M21.8484 45.6865V43.7012H20.9258V45.6865H21.8484Z" fill="white" stroke="#E1E4E5" stroke-width="0.5"/>
<path d="M22.8007 42.912H15.6195L13.0381 38.4004H20.2192L22.8007 42.912Z" fill="white" stroke="#E1E4E5" stroke-width="0.5" stroke-linejoin="bevel"/>
<path d="M22.4408 46.7901H10.6753V47.8509H22.4408V46.7901ZM40.7093 41.9697H27.5628V46.4252H40.7093V41.9697Z" fill="white" stroke="#E1E4E5" stroke-width="0.5"/>
<path d="M32.6787 46.4255H27.2881V41.8257L30.0038 36.8545L32.6787 41.8201V46.4255Z" fill="white" stroke="#E1E4E5" stroke-width="0.5" stroke-linejoin="bevel"/>
<path d="M33.4419 45.1515V42.9141H34.4387V45.1515H33.4419Z" fill="white" stroke="#E1E4E5" stroke-width="0.5"/>
<path d="M34.4964 45.1661V42.9014H33.4438V45.1661H34.4964ZM34.6197 45.1526V42.9151H35.6165V45.1526H34.6197Z" fill="white" stroke="#E1E4E5" stroke-width="0.5"/>
<path d="M35.6145 45.1661V42.9014H34.562V45.1661H35.6145ZM29.0156 45.1526V42.9151H30.0124V45.1526H29.0156Z" fill="white" stroke="#E1E4E5" stroke-width="0.5"/>
<path d="M30.0706 45.1661V42.9014H29.0181V45.1661H30.0706ZM30.1939 45.1525V42.915H31.1908V45.1525H30.1939Z" fill="white" stroke="#E1E4E5" stroke-width="0.5"/>
<path d="M31.188 45.1659V42.9011H30.1355V45.1659H31.188ZM30.0008 41.341H29.4136V40.6345C29.4135 40.467 29.4722 40.3049 29.5796 40.1764C29.6869 40.0479 29.836 39.9613 30.0008 39.9316V41.341Z" fill="white" stroke="#E1E4E5" stroke-width="0.5"/>
<path d="M29.3745 41.391V40.5781C29.3745 40.1871 29.691 39.8701 30.0814 39.8701V41.391H29.3745ZM30.7925 41.3407H30.2052V39.9314C30.37 39.961 30.5191 40.0477 30.6265 40.1762C30.7338 40.3046 30.7926 40.4668 30.7925 40.6342V41.3407Z" fill="white" stroke="#E1E4E5" stroke-width="0.5"/>
<path d="M30.125 41.391V39.8701C30.5154 39.8701 30.8318 40.1871 30.8318 40.5782V41.391H30.125ZM37.861 45.152V42.9145H38.8579V45.152H37.861Z" fill="white" stroke="#E1E4E5" stroke-width="0.5"/>
<path d="M38.9158 45.1661V42.9014H37.8633V45.1661H38.9158ZM39.0392 45.1526V42.9151H40.036V45.1526H39.0392Z" fill="white" stroke="#E1E4E5" stroke-width="0.5"/>
<path d="M40.034 45.1661V42.9014H38.9814V45.1661H40.034Z" fill="white" stroke="#E1E4E5" stroke-width="0.5"/>
<path d="M41.1196 42.001H32.9278L29.9829 36.8545H38.1748L41.1196 42.001Z" fill="white" stroke="#E1E4E5" stroke-width="0.5" stroke-linejoin="bevel"/>
<path d="M40.7095 46.4254H27.2879V47.6356H40.7095V46.4254ZM28.168 40.9248H15.0215V45.3803H28.168V40.9248Z" fill="white" stroke="#E1E4E5" stroke-width="0.5"/>
<path d="M20.1372 45.3806H14.7466V40.7808L17.4622 35.8096L20.1372 40.7752V45.3806Z" fill="white" stroke="#E1E4E5" stroke-width="0.5" stroke-linejoin="bevel"/>
<path d="M20.9004 44.1076V41.8701H21.8972V44.1076H20.9004Z" fill="white" stroke="#E1E4E5" stroke-width="0.5"/>
<path d="M21.9549 44.1212V41.8564H20.9023V44.1212H21.9549ZM22.0781 44.1076V41.8701H23.075V44.1076H22.0781Z" fill="white" stroke="#E1E4E5" stroke-width="0.5"/>
<path d="M23.0727 44.1212V41.8564H22.0202V44.1212H23.0727ZM16.4736 44.1076V41.8701H17.4705V44.1076H16.4736Z" fill="white" stroke="#E1E4E5" stroke-width="0.5"/>
<path d="M17.5291 44.1212V41.8564H16.4766V44.1212H17.5291ZM17.6524 44.1076V41.8701H18.6493V44.1076H17.6524Z" fill="white" stroke="#E1E4E5" stroke-width="0.5"/>
<path d="M18.6465 44.1209V41.8561H17.594V44.1209H18.6465ZM17.4593 40.296H16.8721V39.5895C16.872 39.4221 16.9307 39.26 17.0381 39.1315C17.1454 39.003 17.2945 38.9164 17.4593 38.8867V40.296Z" fill="white" stroke="#E1E4E5" stroke-width="0.5"/>
<path d="M16.833 40.3471V39.5342C16.833 39.1432 17.1495 38.8262 17.5399 38.8262V40.3471H16.833ZM18.2509 40.2968H17.6637V38.8874C17.8285 38.9171 17.9776 39.0037 18.0849 39.1322C18.1923 39.2607 18.251 39.4228 18.2509 39.5903V40.2968Z" fill="white" stroke="#E1E4E5" stroke-width="0.5"/>
<path d="M17.5835 40.3471V38.8262C17.9738 38.8262 18.2903 39.1432 18.2903 39.5342V40.3471H17.5835ZM25.3195 44.108V41.8706H26.3163V44.108H25.3195Z" fill="white" stroke="#E1E4E5" stroke-width="0.5"/>
<path d="M26.3743 44.1213V41.8564H25.3218V44.1213H26.3743ZM26.4976 44.1076V41.8701H27.4945V44.1076H26.4976Z" fill="white" stroke="#E1E4E5" stroke-width="0.5"/>
<path d="M27.4919 44.1213V41.8564H26.4395V44.1213H27.4919Z" fill="white" stroke="#E1E4E5" stroke-width="0.5"/>
<path d="M28.5781 40.9562H20.3863L17.4414 35.8096H25.6333L28.5781 40.9562Z" fill="white" stroke="#E1E4E5" stroke-width="0.5" stroke-linejoin="bevel"/>
<path d="M28.1681 45.3799H14.7466V46.59H28.1681V45.3799Z" fill="white" stroke="#E1E4E5" stroke-width="0.5"/>
<path fill-rule="evenodd" clip-rule="evenodd" d="M7.68213 49.0218C7.68213 49.0218 12.4944 44.2754 19.2562 44.2087C26.0486 44.1418 31.4524 48.8593 31.9503 49.103L7.68213 49.0218Z" fill="white" stroke="#E1E4E5" stroke-width="0.5"/>
<path fill-rule="evenodd" clip-rule="evenodd" d="M15.8174 49.0218C15.8174 49.0218 20.6297 44.2754 27.3914 44.2087C34.1838 44.1418 39.5878 48.8593 40.0855 49.103L15.8174 49.0218Z" fill="white" stroke="#E1E4E5" stroke-width="0.5"/>
<path fill-rule="evenodd" clip-rule="evenodd" d="M25.6767 49.0218C25.6767 49.0218 30.489 44.2754 37.2508 44.2088C44.0431 44.1418 49.4471 48.8594 49.9449 49.1031L25.6767 49.0218ZM11.2341 42.0293H11.2365C11.3044 42.0293 11.3593 42.0842 11.3593 42.1521V47.6876H11.1113V42.1521C11.1113 42.0842 11.1663 42.0293 11.2341 42.0293Z" fill="white" stroke="#E1E4E5" stroke-width="0.5"/>
<path fill-rule="evenodd" clip-rule="evenodd" d="M9.06104 44.6204C9.06104 45.8263 10.0386 46.804 11.2446 46.804C12.4505 46.804 13.4281 45.8263 13.4281 44.6204C13.4281 43.4145 12.4505 41.0361 11.2446 41.0361C10.0386 41.0361 9.06104 43.4145 9.06104 44.6204Z" fill="white"/>
<path d="M9.06104 44.6204C9.06104 45.8263 10.0386 46.804 11.2446 46.804C12.4505 46.804 13.4281 45.8263 13.4281 44.6204C13.4281 43.4145 12.4505 41.0361 11.2446 41.0361C10.0386 41.0361 9.06104 43.4145 9.06104 44.6204Z" stroke="#E1E4E5" stroke-width="0.5"/>
<path fill-rule="evenodd" clip-rule="evenodd" d="M21.9814 41.3643H21.9836C22.0427 41.3643 22.0905 41.4121 22.0905 41.4712V46.293H21.8745V41.4712C21.8745 41.4121 21.9224 41.3643 21.9814 41.3643Z" fill="white" stroke="#E1E4E5" stroke-width="0.5"/>
<path fill-rule="evenodd" clip-rule="evenodd" d="M20.0889 43.6212C20.0889 44.6716 20.9404 45.5232 21.9909 45.5232C23.0414 45.5232 23.8929 44.6716 23.8929 43.6212C23.8929 42.5707 23.0414 40.499 21.9909 40.499C20.9404 40.499 20.0889 42.5707 20.0889 43.6212Z" fill="white"/>
<path d="M20.0889 43.6212C20.0889 44.6716 20.9404 45.5232 21.9909 45.5232C23.0414 45.5232 23.8929 44.6716 23.8929 43.6212C23.8929 42.5707 23.0414 40.499 21.9909 40.499C20.9404 40.499 20.0889 42.5707 20.0889 43.6212Z" stroke="#E1E4E5" stroke-width="0.5"/>
<path fill-rule="evenodd" clip-rule="evenodd" d="M29.0211 42.6494H29.0236C29.0914 42.6494 29.1464 42.7044 29.1464 42.7721V48.3076H28.8984V42.7721C28.8984 42.7044 28.9534 42.6494 29.0211 42.6494Z" fill="white" stroke="#E1E4E5" stroke-width="0.5"/>
<path fill-rule="evenodd" clip-rule="evenodd" d="M26.8486 45.2405C26.8486 46.4464 27.8262 47.4241 29.0322 47.4241C30.2381 47.4241 31.2157 46.4464 31.2157 45.2405C31.2157 44.0346 30.2381 41.6562 29.0322 41.6562C27.8262 41.6562 26.8486 44.0346 26.8486 45.2405Z" fill="white"/>
<path d="M26.8486 45.2405C26.8486 46.4464 27.8262 47.4241 29.0322 47.4241C30.2381 47.4241 31.2157 46.4464 31.2157 45.2405C31.2157 44.0346 30.2381 41.6562 29.0322 41.6562C27.8262 41.6562 26.8486 44.0346 26.8486 45.2405Z" stroke="#E1E4E5" stroke-width="0.5"/>
<path fill-rule="evenodd" clip-rule="evenodd" d="M36.6616 42.291H36.6634C36.7131 42.291 36.7533 42.3313 36.7533 42.3809V46.4325H36.5718V42.3809C36.5718 42.3313 36.612 42.291 36.6616 42.291Z" fill="white" stroke="#E1E4E5" stroke-width="0.5"/>
<path fill-rule="evenodd" clip-rule="evenodd" d="M35.0713 44.1889C35.0713 45.0715 35.7868 45.7871 36.6694 45.7871C37.5521 45.7871 38.2677 45.0715 38.2677 44.1889C38.2677 43.3062 37.5521 41.5654 36.6694 41.5654C35.7868 41.5654 35.0713 43.3062 35.0713 44.1889Z" fill="white"/>
<path d="M35.0713 44.1889C35.0713 45.0715 35.7868 45.7871 36.6694 45.7871C37.5521 45.7871 38.2677 45.0715 38.2677 44.1889C38.2677 43.3062 37.5521 41.5654 36.6694 41.5654C35.7868 41.5654 35.0713 43.3062 35.0713 44.1889Z" stroke="#E1E4E5" stroke-width="0.5"/>
<path fill-rule="evenodd" clip-rule="evenodd" d="M41.7809 41.3164H41.7828C41.8366 41.3164 41.8802 41.36 41.8802 41.4138V45.8018H41.6836V41.4138C41.6836 41.36 41.7271 41.3164 41.7809 41.3164Z" fill="white" stroke="#E1E4E5" stroke-width="0.5"/>
<path fill-rule="evenodd" clip-rule="evenodd" d="M40.0591 43.3706C40.0591 44.3265 40.834 45.1015 41.79 45.1015C42.7459 45.1015 43.5208 44.3265 43.5208 43.3706C43.5208 42.4146 42.7459 40.5293 41.79 40.5293C40.834 40.5293 40.0591 42.4146 40.0591 43.3706Z" fill="white"/>
<path d="M40.0591 43.3706C40.0591 44.3265 40.834 45.1015 41.79 45.1015C42.7459 45.1015 43.5208 44.3265 43.5208 43.3706C43.5208 42.4146 42.7459 40.5293 41.79 40.5293C40.834 40.5293 40.0591 42.4146 40.0591 43.3706Z" stroke="#E1E4E5" stroke-width="0.5"/>
<path d="M52.5281 44.9687C51.6403 45.4091 50.4619 44.8428 50.4619 44.8428C50.4619 44.8428 50.7238 43.5627 51.6121 43.1229C52.5 42.6825 53.6778 43.2482 53.6778 43.2482C53.6778 43.2482 53.4159 44.5283 52.5281 44.9687Z" fill="url(#paint0_linear_3859_7494)"/>
<path d="M7.53965 37.9307C8.83607 38.7077 10.696 37.9894 10.696 37.9894C10.696 37.9894 10.4528 36.0116 9.15564 35.2355C7.85922 34.4585 6 35.1759 6 35.1759C6 35.1759 6.24323 37.1537 7.53965 37.9307Z" fill="url(#paint1_linear_3859_7494)"/>
<path d="M42.9676 27.8912C42.7288 27.8912 42.5352 28.0848 42.5352 28.3235C42.5352 28.5623 42.7288 28.7559 42.9676 28.7559C43.2063 28.7559 43.3999 28.5623 43.3999 28.3235C43.3999 28.0848 43.2063 27.8912 42.9676 27.8912Z" fill="#9A70E2"/>
<path d="M41.4329 45.8883C40.8066 45.8883 40.2989 46.396 40.2989 47.0223C40.2989 47.6485 40.8066 48.1562 41.4329 48.1562C42.0592 48.1562 42.5669 47.6485 42.5669 47.0223C42.5669 46.396 42.0592 45.8883 41.4329 45.8883Z" fill="#9A70E2"/>
<path d="M15.6326 47.1177C15.1354 47.1177 14.7324 46.7147 14.7324 46.2175C14.7324 45.7204 15.1354 45.3174 15.6326 45.3174C16.1297 45.3174 16.5327 45.7204 16.5327 46.2175C16.5327 46.7147 16.1297 47.1177 15.6326 47.1177Z" fill="#9A70E2"/>
<path d="M47.0619 28.4309C46.7291 28.4309 46.4592 28.1611 46.4592 27.8282C46.4592 27.4954 46.7291 27.2256 47.0619 27.2256C47.3947 27.2256 47.6646 27.4954 47.6646 27.8282C47.6646 28.1611 47.3947 28.4309 47.0619 28.4309Z" fill="#9A70E2"/>
<path d="M7.91484 40.9281C7.67607 40.9281 7.48251 40.7346 7.48251 40.4958C7.48251 40.257 7.67607 40.0635 7.91484 40.0635C8.15361 40.0635 8.34717 40.257 8.34717 40.4958C8.34717 40.7346 8.15361 40.9281 7.91484 40.9281Z" fill="#E1E4E5"/>
<path d="M50.0715 37.7124C49.6011 37.7124 49.2197 37.3311 49.2197 36.8606C49.2197 36.3902 49.6011 36.0088 50.0715 36.0088C50.542 36.0088 50.9233 36.3902 50.9233 36.8606C50.9233 37.3311 50.542 37.7124 50.0715 37.7124Z" fill="#E1E4E5"/>
<path d="M37.2804 26.7606C36.9865 26.7606 36.7482 26.5223 36.7482 26.2284C36.7482 25.9345 36.9865 25.6963 37.2804 25.6963C37.5743 25.6963 37.8125 25.9345 37.8125 26.2284C37.8125 26.5223 37.5743 26.7606 37.2804 26.7606Z" fill="#E1E4E5"/>
<path d="M9.87757 22.1283C9.99913 22.5819 9.72991 23.0482 9.27626 23.1698C8.8226 23.2914 8.3563 23.0221 8.23475 22.5685C8.11319 22.1148 8.38241 21.6485 8.83606 21.527C9.28972 21.4054 9.75602 21.6746 9.87757 22.1283Z" fill="#E1E4E5"/>
<path d="M23.5323 7.06427C23.2384 7.06427 23.0002 6.82603 23.0002 6.53214C23.0002 6.23825 23.2384 6 23.5323 6C23.8262 6 24.0645 6.23825 24.0645 6.53214C24.0645 6.82603 23.8262 7.06427 23.5323 7.06427Z" fill="#E1E4E5"/>
<path d="M48.7541 46.2494C48.4786 46.2494 48.2552 46.0707 48.2552 45.8503C48.2552 45.6299 48.4786 45.4512 48.7541 45.4512C49.0296 45.4512 49.2529 45.6299 49.2529 45.8503C49.2529 46.0707 49.0296 46.2494 48.7541 46.2494Z" fill="#E1E4E5"/>
<path d="M18.8467 21H18.8591C18.9325 22.0402 19.706 22.0562 19.706 22.0562C19.706 22.0562 18.853 22.0728 18.853 23.2747C18.853 22.0728 18 22.0562 18 22.0562C18 22.0562 18.7732 22.0402 18.8467 21ZM45.0546 30.3932L45.0627 30.3949C44.9694 31.0899 45.4694 31.2037 45.4694 31.2037C45.4694 31.2037 44.9134 31.1008 44.7506 31.8925C44.9134 31.1008 44.3619 30.9759 44.3619 30.9759C44.3619 30.9759 44.8661 31.0686 45.0546 30.3932Z" fill="white"/>
<defs>
<linearGradient id="paint0_linear_3859_7494" x1="49.1187" y1="46.3424" x2="56.4416" y2="40.55" gradientUnits="userSpaceOnUse">
<stop stop-color="white"/>
<stop offset="1" stop-color="#EEEEEE"/>
</linearGradient>
<linearGradient id="paint1_linear_3859_7494" x1="12.5565" y1="40.4318" x2="2.12493" y2="30.7395" gradientUnits="userSpaceOnUse">
<stop stop-color="white"/>
<stop offset="1" stop-color="#EEEEEE"/>
</linearGradient>
</defs>
</svg>
