<svg width="56" height="56" viewBox="0 0 56 56" fill="none" xmlns="http://www.w3.org/2000/svg">
<path d="M18.0058 29.076V28.8226C18.0058 28.6698 18.0673 28.5233 18.1766 28.4153C18.286 28.3072 18.4343 28.2465 18.5889 28.2465C18.7436 28.2465 18.8919 28.3072 19.0012 28.4153C19.1106 28.5233 19.172 28.6698 19.172 28.8226V29.076C19.172 29.3986 19.6268 29.7558 20.2857 29.7558C20.9446 29.7558 21.3994 29.3986 21.3994 29.076V28.8226C21.3994 28.5 20.9446 28.1429 20.2857 28.1429C19.0087 28.1429 18.0058 27.3364 18.0058 26.3111V26.0576C18.0375 25.6143 18.224 25.1956 18.5335 24.873C18.843 24.5505 19.2562 24.3441 19.7026 24.2892V24.0472C19.7026 23.8945 19.7641 23.7479 19.8734 23.6399C19.9828 23.5319 20.1311 23.4712 20.2857 23.4712C20.4404 23.4712 20.5887 23.5319 20.698 23.6399C20.8074 23.7479 20.8688 23.8945 20.8688 24.0472V24.2892C21.3152 24.3441 21.7285 24.5505 22.0379 24.873C22.3474 25.1956 22.5339 25.6143 22.5656 26.0576V26.3111C22.5656 26.4638 22.5042 26.6104 22.3948 26.7184C22.2855 26.8264 22.1372 26.8871 21.9825 26.8871C21.8279 26.8871 21.6796 26.8264 21.5702 26.7184C21.4609 26.6104 21.3994 26.4638 21.3994 26.3111V26.0576C21.3994 25.735 20.9446 25.3779 20.2857 25.3779C19.6268 25.3779 19.172 25.735 19.172 26.0576V26.3111C19.172 26.6336 19.6268 26.9908 20.2857 26.9908C21.5627 26.9908 22.5656 27.7972 22.5656 28.8226V29.076C22.5339 29.5194 22.3474 29.9381 22.0379 30.2606C21.7285 30.5831 21.3152 30.7895 20.8688 30.8445V31.0864C20.8688 31.2392 20.8074 31.3857 20.698 31.4937C20.5887 31.6018 20.4404 31.6624 20.2857 31.6624C20.1311 31.6624 19.9828 31.6018 19.8734 31.4937C19.7641 31.3857 19.7026 31.2392 19.7026 31.0864V30.8445C19.2562 30.7895 18.843 30.5831 18.5335 30.2606C18.224 29.9381 18.0375 29.5194 18.0058 29.076ZM23.0087 44.7039V43.8456C22.122 44.0768 21.2086 44.193 20.2915 44.1912C15.7201 44.1912 12 41.3687 12 37.9067V27.924C12 24.4677 15.7201 21.6394 20.2915 21.6394C23.3236 21.6394 25.9708 22.8836 27.4169 24.727V12.2846C27.4169 8.82834 31.137 6 35.7085 6C40.2799 6 44 8.82258 44 12.2846V32.273C44 34.6118 42.2507 36.7546 39.5802 37.8318C39.5802 37.9067 39.5802 37.9816 39.5802 38.0564V44.7154C39.5802 48.1717 35.8601 51 31.2886 51C26.7172 51 23.0087 48.1832 23.0087 44.7154V44.7039ZM24.1749 38.0392C24.1749 40.8733 27.3703 43.1717 31.3003 43.1717C35.2303 43.1717 38.4257 40.8675 38.4257 38.0392C38.4257 35.2108 35.2303 32.9067 31.3003 32.9067C27.3703 32.9067 24.1749 35.2223 24.1749 38.0564V38.0392ZM24.1749 41.3687C24.1749 44.2028 27.3703 46.5012 31.3003 46.5012C35.2303 46.5012 38.4257 44.197 38.4257 41.3687V41.2362C36.9796 43.0795 34.344 44.3237 31.3003 44.3237C28.2566 44.3237 25.621 43.0795 24.1749 41.2362V41.3687ZM42.8338 28.9205V28.788C41.3878 30.6313 38.7522 31.8756 35.7085 31.8756C32.6647 31.8756 30.0233 30.6486 28.5773 28.8053V28.9378C28.6006 30.0443 29.0635 31.0974 29.8659 31.8698C30.3413 31.8055 30.8205 31.7728 31.3003 31.7719C33.5591 31.7309 35.7587 32.4865 37.5044 33.9032C40.6006 33.3157 42.828 31.2592 42.828 28.9378L42.8338 28.9205ZM28.5773 22.2788C28.5773 25.1129 31.7726 27.4113 35.7026 27.4113C39.6327 27.4113 42.828 25.1071 42.828 22.2788V22.1636C41.3819 24.0069 38.7464 25.2512 35.7026 25.2512C32.6589 25.2512 30.0233 23.9896 28.5773 22.1636V22.2788ZM28.5773 18.9493C28.5773 21.7834 31.7726 24.0818 35.7026 24.0818C39.6327 24.0818 42.828 21.7776 42.828 18.9493V18.8168C41.3819 20.6601 38.7464 21.9044 35.7026 21.9044C32.6589 21.9044 30.0233 20.6601 28.5773 18.8111V18.9493ZM42.828 15.4931C41.3819 17.3364 38.7464 18.5806 35.7026 18.5806C32.6589 18.5806 30.0233 17.3249 28.5773 15.4816V15.6141C28.5773 18.4482 31.7726 20.7465 35.7026 20.7465C39.6327 20.7465 42.828 18.4424 42.828 15.6141V15.4931ZM28.5773 25.6198C28.5773 28.4539 31.7726 30.7523 35.7026 30.7523C39.6327 30.7523 42.828 28.4482 42.828 25.6198V25.4873C41.3819 27.3306 38.7464 28.5749 35.7026 28.5749C32.6589 28.5749 30.0233 27.3479 28.5773 25.4758V25.6198ZM27.4111 31.121C25.965 32.9643 23.3294 34.2085 20.2857 34.2085C17.242 34.2085 14.5831 32.9528 13.1603 31.1094V31.2419C13.1603 34.076 16.3557 36.3744 20.2857 36.3744C21.4082 36.3808 22.5225 36.1856 23.5743 35.7984C24.3645 34.3734 25.6234 33.2577 27.1429 32.6359C27.3181 32.1955 27.409 31.7267 27.4111 31.2535V31.121ZM13.1603 34.5772C13.1603 37.4113 16.3557 39.7097 20.2857 39.7097C21.2063 39.7104 22.122 39.5764 23.0029 39.3122V38.0564C23.0065 37.7487 23.0397 37.4421 23.102 37.1406C22.1847 37.3911 21.2375 37.5189 20.2857 37.5207C17.2536 37.5207 14.6064 36.2765 13.1603 34.4332V34.5772ZM38.4198 44.583C36.9738 46.4263 34.3382 47.6705 31.2945 47.6705C28.2507 47.6705 25.6152 46.4263 24.1691 44.583V44.7154C24.1691 47.5495 27.3644 49.8479 31.2945 49.8479C35.2245 49.8479 38.4198 47.5438 38.4198 44.7154V44.583ZM42.8222 32.1348C41.6975 33.4929 40.1566 34.4532 38.4315 34.871C38.8555 35.4055 39.1757 36.0129 39.3761 36.6624C41.4927 35.735 42.828 34.0645 42.828 32.273L42.8222 32.1348ZM28.5773 12.2846C28.5773 15.1187 31.7726 17.4171 35.7026 17.4171C39.6327 17.4171 42.828 15.1129 42.828 12.2846C42.828 9.45622 39.656 7.14631 35.7026 7.14631C31.7493 7.14631 28.5773 9.45046 28.5773 12.2846ZM13.1603 27.924C13.1603 30.7581 16.3557 33.0565 20.2857 33.0565C24.2157 33.0565 27.4111 30.7408 27.4111 27.924C27.4111 25.1071 24.2157 22.7915 20.2857 22.7915C16.3557 22.7915 13.1603 25.0783 13.1603 27.924ZM23.0087 42.6417V40.5161C22.122 40.7473 21.2086 40.8635 20.2915 40.8618C17.2595 40.8618 14.6122 39.6175 13.1662 37.7742V37.9067C13.1662 40.7408 16.3615 43.0392 20.2915 43.0392C21.2122 43.0399 22.1278 42.9059 23.0087 42.6417ZM30.7114 41V41.2419C30.7114 41.3947 30.7728 41.5412 30.8822 41.6493C30.9915 41.7573 31.1398 41.818 31.2945 41.818C31.4491 41.818 31.5974 41.7573 31.7068 41.6493C31.8161 41.5412 31.8776 41.3947 31.8776 41.2419V41C32.324 40.9451 32.7372 40.7387 33.0467 40.4161C33.3562 40.0936 33.5427 39.6749 33.5743 39.2316V38.9781C33.5743 37.9528 32.5714 37.1463 31.2945 37.1463C30.6356 37.1463 30.1808 36.7892 30.1808 36.4666V36.2131C30.1808 35.8906 30.6356 35.5334 31.2945 35.5334C31.9534 35.5334 32.4082 35.8906 32.4082 36.2131V36.4666C32.4082 36.6194 32.4696 36.7659 32.5789 36.8739C32.6883 36.9819 32.8366 37.0426 32.9913 37.0426C33.1459 37.0426 33.2942 36.9819 33.4036 36.8739C33.5129 36.7659 33.5743 36.6194 33.5743 36.4666V36.2131C33.5427 35.7698 33.3562 35.3511 33.0467 35.0286C32.7372 34.706 32.324 34.4997 31.8776 34.4447V34.2028C31.8776 34.05 31.8161 33.9035 31.7068 33.7954C31.5974 33.6874 31.4491 33.6267 31.2945 33.6267C31.1398 33.6267 30.9915 33.6874 30.8822 33.7954C30.7728 33.9035 30.7114 34.05 30.7114 34.2028V34.4447C30.265 34.4997 29.8517 34.706 29.5422 35.0286C29.2328 35.3511 29.0463 35.7698 29.0146 36.2131V36.4666C29.0146 37.4977 30.0175 38.2984 31.2945 38.2984C31.9534 38.2984 32.4082 38.6555 32.4082 38.9781V39.2316C32.4082 39.5541 31.9534 39.9113 31.2945 39.9113C30.6356 39.9113 30.1808 39.5541 30.1808 39.2316V38.9781C30.1808 38.8253 30.1193 38.6788 30.01 38.5708C29.9006 38.4628 29.7523 38.4021 29.5977 38.4021C29.443 38.4021 29.2947 38.4628 29.1854 38.5708C29.076 38.6788 29.0146 38.8253 29.0146 38.9781V39.2316C29.0463 39.6749 29.2328 40.0936 29.5422 40.4161C29.8517 40.7387 30.265 40.9451 30.7114 41ZM35.1195 15.2512V15.4931C35.1195 15.6459 35.181 15.7924 35.2903 15.9004C35.3997 16.0084 35.548 16.0691 35.7026 16.0691C35.8573 16.0691 36.0056 16.0084 36.1149 15.9004C36.2243 15.7924 36.2857 15.6459 36.2857 15.4931V15.2512C36.7321 15.1962 37.1454 14.9898 37.4549 14.6673C37.7643 14.3447 37.9508 13.926 37.9825 13.4827V13.2293C37.9825 12.1982 36.9796 11.3975 35.7026 11.3975C35.0437 11.3975 34.5889 11.0403 34.5889 10.7177V10.4643C34.5889 10.1417 35.0437 9.78456 35.7026 9.78456C36.3615 9.78456 36.8163 10.1417 36.8163 10.4643V10.7177C36.8163 10.8705 36.8778 11.017 36.9871 11.1251C37.0965 11.2331 37.2448 11.2938 37.3994 11.2938C37.5541 11.2938 37.7024 11.2331 37.8117 11.1251C37.9211 11.017 37.9825 10.8705 37.9825 10.7177V10.4643C37.9508 10.021 37.7643 9.60227 37.4549 9.27973C37.1454 8.95718 36.7321 8.7508 36.2857 8.69585V8.45392C36.2857 8.30114 36.2243 8.15463 36.1149 8.0466C36.0056 7.93857 35.8573 7.87788 35.7026 7.87788C35.548 7.87788 35.3997 7.93857 35.2903 8.0466C35.181 8.15463 35.1195 8.30114 35.1195 8.45392V8.69585C34.6731 8.7508 34.2599 8.95718 33.9504 9.27973C33.6409 9.60227 33.4544 10.021 33.4227 10.4643V10.7177C33.4227 11.7488 34.4257 12.5495 35.7026 12.5495C36.3615 12.5495 36.8163 12.9067 36.8163 13.2293V13.4827C36.8163 13.8053 36.3615 14.1624 35.7026 14.1624C35.0437 14.1624 34.5889 13.8053 34.5889 13.4827V13.2293C34.5889 13.0765 34.5275 12.93 34.4181 12.8219C34.3088 12.7139 34.1605 12.6532 34.0058 12.6532C33.8512 12.6532 33.7029 12.7139 33.5935 12.8219C33.4842 12.93 33.4227 13.0765 33.4227 13.2293V13.4827C33.4544 13.926 33.6409 14.3447 33.9504 14.6673C34.2599 14.9898 34.6731 15.1962 35.1195 15.2512Z" fill="#9A70E2"/>
</svg>
