<svg width="80" height="37" viewBox="0 0 80 37" fill="none" xmlns="http://www.w3.org/2000/svg">
<rect width="80" height="37" rx="18.5" fill="#9A70E2"/>
<path d="M23.7744 15.4353C23.7096 15.3316 23.7409 15.1944 23.8477 15.1349C24.5928 14.7198 25.4434 14.5279 26.2975 14.5848C27.1516 14.6417 27.9693 14.9448 28.6527 15.4551C28.7507 15.5283 28.7635 15.6683 28.6855 15.7625C28.6076 15.8567 28.4683 15.8693 28.3699 15.7967C27.7585 15.3454 27.0294 15.0774 26.2681 15.0267C25.5068 14.9759 24.7485 15.1449 24.0826 15.511C23.9755 15.57 23.8392 15.539 23.7744 15.4353Z" fill="white"/>
<path d="M22.6471 21.5404C22.5496 21.6141 22.4102 21.5951 22.3414 21.494C22.0044 20.9985 21.7714 20.4396 21.6566 19.8514C21.6332 19.7314 21.7178 19.619 21.8389 19.6017C21.9599 19.5843 22.0715 19.6685 22.0956 19.7884C22.1989 20.3025 22.4027 20.7913 22.6952 21.2266C22.7634 21.3281 22.7447 21.4666 22.6471 21.5404Z" fill="white"/>
<path d="M29.7176 17.0283C29.8256 16.9709 29.9602 17.0117 30.0122 17.1224C30.4362 18.026 30.5433 19.0487 30.3122 20.0242C30.0812 20.9996 29.5266 21.8656 28.7423 22.483C28.6462 22.5586 28.5076 22.5347 28.4369 22.4349C28.3661 22.3352 28.3901 22.1974 28.4858 22.1213C29.1824 21.5666 29.6751 20.7928 29.8813 19.9221C30.0876 19.0514 29.9944 18.1389 29.6206 17.3306C29.5693 17.2196 29.6097 17.0858 29.7176 17.0283Z" fill="white"/>
<path d="M21.7473 23.9718C21.8421 24.0357 21.8676 24.1648 21.799 24.2563C21.4747 24.689 21.0683 25.0547 20.6024 25.3318C20.0771 25.6444 19.4891 25.8368 18.8807 25.8952C18.2722 25.9536 17.6584 25.8766 17.0832 25.6698C16.508 25.4629 15.9858 25.1313 15.5539 24.6987C15.1221 24.2662 14.7913 23.7434 14.5854 23.1678C14.3795 22.5923 14.3035 21.9784 14.3629 21.37C14.4223 20.7617 14.6157 20.174 14.9291 19.6492C15.207 19.1838 15.5733 18.778 16.0066 18.4544C16.0982 18.386 16.2273 18.4117 16.291 18.5066C16.3548 18.6015 16.3291 18.7297 16.2379 18.7987C15.8551 19.0878 15.5313 19.4486 15.2847 19.8616C15.0026 20.3339 14.8286 20.8628 14.7751 21.4103C14.7216 21.9578 14.79 22.5104 14.9753 23.0283C15.1607 23.5463 15.4583 24.0168 15.847 24.4061C16.2357 24.7954 16.7057 25.0939 17.2234 25.2801C17.741 25.4662 18.2935 25.5355 18.8411 25.4829C19.3887 25.4303 19.9179 25.2572 20.3906 24.9759C20.804 24.73 21.1653 24.4067 21.4551 24.0245C21.5242 23.9333 21.6524 23.9079 21.7473 23.9718Z" fill="white"/>
<path d="M23.3662 14.0212C23.4744 13.9637 23.6092 14.0046 23.6613 14.1155C24.102 15.0548 24.2005 16.1215 23.9351 17.1294C23.6509 18.209 22.9701 19.1417 22.0286 19.7415C21.0871 20.3413 19.954 20.5642 18.8555 20.3655C17.7569 20.1669 16.7737 19.5614 16.1018 18.6698C15.43 17.7782 15.119 16.6661 15.2308 15.5554C15.3427 14.4447 15.8692 13.4169 16.7053 12.6772C17.5414 11.9375 18.6256 11.5402 19.7417 11.5645C20.7837 11.5873 21.7819 11.976 22.5634 12.6585C22.6556 12.7391 22.6577 12.88 22.5726 12.9682C22.4875 13.0563 22.3475 13.0582 22.2548 12.9781C21.554 12.3728 20.6624 12.0284 19.732 12.0081C18.7275 11.9861 17.7517 12.3437 16.9992 13.0095C16.2467 13.6752 15.7729 14.6002 15.6722 15.5999C15.5716 16.5995 15.8515 17.6004 16.4561 18.4028C17.0608 19.2052 17.9457 19.7502 18.9344 19.9289C19.9231 20.1077 20.9429 19.9072 21.7902 19.3674C22.6376 18.8275 23.2503 17.9881 23.5061 17.0165C23.7431 16.1165 23.6577 15.1645 23.269 14.3241C23.2176 14.2129 23.258 14.0788 23.3662 14.0212Z" fill="white"/>
<path d="M21.309 14.5698V14.4091C21.309 14.1384 21.0962 13.9185 20.8345 13.9185H20.3947C20.1331 13.9185 19.9205 14.1384 19.9205 14.4091V14.5495H19.1255V14.4091C19.1255 14.1384 18.9127 13.9185 18.6513 13.9185H18.2114C17.9498 13.9185 17.737 14.1384 17.737 14.4091V14.5698C17.3912 14.6472 17.1218 14.9521 17.0957 15.3284L16.9629 17.2242C16.9462 17.4596 17.0262 17.6936 17.1824 17.8665C17.3386 18.0394 17.5594 18.1384 17.7884 18.1384C18.0476 18.1384 18.2953 18.0108 18.4506 17.7971L18.8855 17.1996C18.9628 17.0935 19.0859 17.0301 19.2145 17.0301H19.8311C19.9599 17.0301 20.0829 17.0933 20.1601 17.1995L20.5952 17.7971C20.7505 18.0108 20.9982 18.1384 21.2572 18.1384C21.4863 18.1384 21.7072 18.0392 21.8632 17.8665C22.0192 17.6938 22.0992 17.4597 22.0828 17.2242L21.9501 15.3284C21.924 14.9521 21.6547 14.6474 21.309 14.5698ZM20.2666 14.4091C20.2666 14.3354 20.3241 14.2753 20.3945 14.2753H20.8343C20.905 14.2753 20.9625 14.3354 20.9625 14.4091V14.5495H20.2664L20.2666 14.4091ZM18.2113 14.2753H18.6511C18.7216 14.2753 18.779 14.3354 18.779 14.4091V14.5495H18.0831V14.4091C18.0831 14.3354 18.1406 14.2753 18.2113 14.2753ZM21.6097 17.6233C21.5176 17.7254 21.3924 17.7816 21.2572 17.7816C21.1065 17.7816 20.9627 17.7074 20.8721 17.5832L20.437 16.9855C20.295 16.79 20.0683 16.6733 19.8309 16.6733H19.2143C18.9773 16.6733 18.7506 16.79 18.6083 16.9855L18.1734 17.5832C18.083 17.7074 17.9389 17.7816 17.7881 17.7816C17.6529 17.7816 17.5277 17.7256 17.4356 17.6233C17.3436 17.5215 17.2982 17.3889 17.3079 17.2499L17.4407 15.3541C17.4584 15.1029 17.6636 14.9061 17.9081 14.9061H21.1374C21.3819 14.9061 21.5872 15.1029 21.6047 15.3541L21.7373 17.2499C21.747 17.3889 21.7017 17.5215 21.6097 17.6233ZM18.3754 15.2327C18.0476 15.2327 17.781 15.5075 17.781 15.8452C17.781 16.1831 18.0476 16.4578 18.3754 16.4578C18.7034 16.4578 18.97 16.1831 18.97 15.8452C18.97 15.5075 18.7034 15.2327 18.3754 15.2327ZM18.3754 16.1009C18.2386 16.1009 18.1273 15.986 18.1273 15.845C18.1273 15.7041 18.2386 15.5894 18.3754 15.5894C18.5122 15.5894 18.6237 15.7041 18.6237 15.845C18.6237 15.986 18.5124 16.1009 18.3754 16.1009ZM20.67 15.2327C20.3421 15.2327 20.0754 15.5075 20.0754 15.8452C20.0754 16.1831 20.3421 16.4578 20.67 16.4578C20.9978 16.4578 21.2645 16.1831 21.2645 15.8452C21.2645 15.5075 20.9978 15.2327 20.67 15.2327ZM20.67 16.1009C20.5332 16.1009 20.4217 15.986 20.4217 15.845C20.4217 15.7041 20.5332 15.5894 20.67 15.5894C20.8068 15.5894 20.9182 15.7041 20.9182 15.845C20.9182 15.986 20.8068 16.1009 20.67 16.1009Z" fill="white"/>
<path d="M26.782 17.8124L27.5355 17.084C27.6321 16.9874 27.7631 16.9331 27.8997 16.9331C28.0363 16.9331 28.1673 16.9874 28.2639 17.084C28.3605 17.1806 28.4148 17.3116 28.4148 17.4482C28.4148 17.5848 28.3605 17.7158 28.2639 17.8124L27.5355 18.5659L28.1635 20.4497L27.5355 21.0902L26.6564 19.445L25.9029 20.1986V20.9521L25.4005 21.4545L25.0237 20.3242L23.8934 19.9474L24.3958 19.445H25.1493L25.9029 18.6915L24.2702 17.8124L24.8981 17.1844L26.782 17.8124Z" stroke="white" stroke-width="0.5" stroke-linecap="round" stroke-linejoin="round"/>
<path d="M24.2762 22.8217L24.2766 22.822L26.241 23.865L24.2765 24.9086L24.2762 24.9088C24.2731 24.9105 24.2675 24.9125 24.2593 24.9134V22.8172C24.2676 22.8181 24.2732 22.8201 24.2762 22.8217Z" stroke="white" stroke-width="0.5"/>
<path d="M26.2352 26.2769H22.7834C22.2312 26.2769 21.7834 25.8292 21.7834 25.2769V22.4541C21.7834 21.9018 22.2312 21.4541 22.7834 21.4541H27.4611C28.0134 21.4541 28.4611 21.9018 28.4611 22.4541V25.3494C28.4611 25.8616 28.0459 26.2769 27.5337 26.2769V26.2769" stroke="white" stroke-width="0.5" stroke-linecap="round"/>
<path d="M17.606 23.035V22.6708H19.3296V23.035C19.3296 23.3267 19.5414 23.564 19.8021 23.564H20.7079C20.9684 23.564 21.1806 23.3269 21.1806 23.035V21.0788C21.1806 20.7872 20.9686 20.5498 20.7079 20.5498H19.8021C19.5416 20.5498 19.3296 20.787 19.3296 21.0788V21.443H17.606V21.0788C17.606 20.7872 17.3942 20.5498 17.1335 20.5498H16.2276C15.967 20.5498 15.755 20.787 15.755 21.0788V23.035C15.755 23.3267 15.9669 23.564 16.2276 23.564H17.1335C17.3942 23.564 17.606 23.3269 17.606 23.035ZM19.663 21.0788C19.663 20.993 19.7255 20.923 19.8021 20.923H20.7079C20.7847 20.923 20.8473 20.993 20.8473 21.0788V23.035C20.8473 23.1209 20.7847 23.1909 20.7079 23.1909H19.8021C19.7255 23.1909 19.663 23.1209 19.663 23.035V21.0788ZM19.3296 21.8162V22.2976H17.606V21.8162H19.3296ZM17.2727 23.035C17.2727 23.1209 17.2102 23.1909 17.1335 23.1909H16.2276C16.1509 23.1909 16.0884 23.1209 16.0884 23.035V21.0788C16.0884 20.993 16.1509 20.923 16.2276 20.923H17.1335C17.2102 20.923 17.2727 20.993 17.2727 21.0788V23.035Z" fill="white"/>
<path d="M45.7969 14C45.8047 15.4062 47.1797 16.5938 49.1562 17.0312L48.6562 18.0156C47.0547 17.6172 45.8203 16.7734 45.2109 15.6484C44.6172 16.8672 43.3672 17.7969 41.7188 18.2031L41.1875 17.2188C43.1953 16.7734 44.5781 15.4844 44.5781 14V13.9375H41.4844V12.9688H44.5781V11.4219H45.7969V12.9688H48.8906V13.9375H45.7969V14ZM40.5312 19.1875C43.1953 19.1797 46.7188 19.1641 49.7969 18.7656L49.875 19.6562C48.5469 19.875 47.1719 20.0078 45.8281 20.0938V24.8594H44.6094V20.1562C43.2031 20.2109 41.8672 20.2188 40.7031 20.2188L40.5312 19.1875ZM50.8125 25.2812V11.3906H52.0156V25.2812H50.8125ZM61.785 12.75V21.7812H55.3631V12.75H61.785ZM56.5662 20.7812H60.5819V13.7344H56.5662V20.7812ZM64.7694 25.2969V11.375H66.0037V25.2969H64.7694Z" fill="white"/>
</svg>
