<svg width="24" height="24" viewBox="0 0 24 24" fill="none" xmlns="http://www.w3.org/2000/svg">
<path d="M15.6845 3.45446C14.749 2.51651 13.4423 2 12 2C10.55 2 9.23902 2.51339 8.30779 3.44553C7.36647 4.38793 6.90783 5.66873 7.01552 7.05176C7.22898 9.78031 9.46497 11.9999 12 11.9999C14.535 11.9999 16.7672 9.78076 16.984 7.05265C17.0931 5.68212 16.6316 4.404 15.6845 3.45446ZM20.4613 21.9999H3.53869C3.31719 22.0026 3.09783 21.9593 2.89658 21.8734C2.69532 21.7874 2.51723 21.6609 2.37526 21.503C2.06277 21.1561 1.93682 20.6825 2.03008 20.2035C2.43584 18.1133 3.70215 16.3575 5.69248 15.1249C7.4607 14.0307 9.70054 13.4285 12 13.4285C14.2995 13.4285 16.5393 14.0312 18.3075 15.1249C20.2978 16.3571 21.5642 18.1129 21.9699 20.203C22.0632 20.682 21.9372 21.1557 21.6247 21.5026C21.4828 21.6605 21.3047 21.7872 21.1035 21.8732C20.9022 21.9592 20.6828 22.0025 20.4613 21.9999Z" fill="#212529"/>
</svg>
