<svg width="98" height="98" viewBox="0 0 98 98" fill="none" xmlns="http://www.w3.org/2000/svg">
<g clip-path="url(#clip0_449_593)">
<path d="M74.3224 28.3169C74.6806 28.1264 75.1272 28.2617 75.2995 28.629C76.7591 31.7396 77.0853 35.2721 76.2065 38.6098C75.2653 42.1849 73.0108 45.2738 69.8928 47.2601C66.7749 49.2465 63.0227 49.9843 59.3847 49.3265C55.7468 48.6687 52.4906 46.6635 50.2658 43.711C48.0409 40.7585 47.0109 37.0757 47.3813 33.3974C47.7517 29.7191 49.4952 26.3156 52.264 23.8659C55.0329 21.4163 58.6235 20.1005 62.3195 20.1812C65.7702 20.2565 69.0759 21.5437 71.6637 23.8041C71.9693 24.071 71.9762 24.5376 71.6944 24.8295C71.4126 25.1213 70.9488 25.1276 70.6418 24.8625C68.3211 22.858 65.3685 21.7172 62.2875 21.65C58.961 21.5774 55.7295 22.7616 53.2375 24.9663C50.7456 27.171 49.1764 30.2341 48.8431 33.5446C48.5097 36.8551 49.4367 40.1696 51.4391 42.8268C53.4415 45.4841 56.372 47.2887 59.6462 47.8808C62.9203 48.4728 66.2973 47.8088 69.1035 46.021C71.9096 44.2333 73.9386 41.4534 74.7858 38.2358C75.5704 35.2556 75.2876 32.1029 74.0005 29.3197C73.8302 28.9514 73.9642 28.5073 74.3224 28.3169Z" fill="#A7A7A7"/>
<circle cx="37.0261" cy="43.8459" r="13.1903" transform="rotate(-37.535 37.0261 43.8459)" fill="white"/>
<path d="M42.462 32.1754C42.6191 31.83 43.0274 31.6759 43.3645 31.8501C46.2192 33.3253 48.4739 35.7592 49.724 38.7352C51.0629 41.9228 51.1509 45.4981 49.9704 48.7477C48.7899 51.9973 46.4276 54.6825 43.3549 56.2674C40.2822 57.8523 36.7248 58.2206 33.3926 57.2987C30.0604 56.3767 27.1982 54.2324 25.377 51.2935C23.5559 48.3546 22.9097 44.8371 23.5673 41.4428C24.2249 38.0485 26.1381 35.0269 28.925 32.9808C31.527 31.0706 34.712 30.1417 37.919 30.3435C38.2977 30.3674 38.5687 30.7094 38.526 31.0864C38.4833 31.4634 38.143 31.7324 37.7642 31.7107C34.901 31.5464 32.0614 32.3827 29.7382 34.0884C27.2299 35.9299 25.5081 38.6493 24.9162 41.7042C24.3243 44.7591 24.9059 47.9248 26.545 50.5698C28.184 53.2148 30.76 55.1447 33.759 55.9744C36.758 56.8041 39.9596 56.4727 42.725 55.0463C45.4905 53.6198 47.6165 51.2032 48.679 48.2786C49.7415 45.3539 49.6623 42.1362 48.4572 39.2673C47.3411 36.6101 45.3351 34.4332 42.7946 33.1024C42.4585 32.9264 42.3049 32.5207 42.462 32.1754Z" fill="#A7A7A7"/>
<circle cx="41" cy="25.0001" r="14" fill="white"/>
<path d="M53.2509 18.341C53.6098 18.1502 54.0572 18.2858 54.2298 18.6537C55.692 21.77 56.0188 25.3089 55.1385 28.6526C54.1955 32.2342 51.937 35.3286 48.8133 37.3186C45.6897 39.3085 41.9307 40.0477 38.2862 39.3887C34.6417 38.7297 31.3796 36.7209 29.1507 33.763C26.9218 30.8052 25.89 27.1157 26.261 23.4308C26.6321 19.7458 28.3788 16.3361 31.1526 13.882C33.9265 11.4279 37.5236 10.1098 41.2263 10.1906C44.6832 10.266 47.995 11.5556 50.5874 13.8201C50.8935 14.0875 50.9005 14.5549 50.6182 14.8473C50.3359 15.1397 49.8712 15.146 49.5636 14.8804C47.2387 12.8723 44.2808 11.7294 41.1942 11.6621C37.8617 11.5894 34.6244 12.7757 32.1279 14.9844C29.6314 17.193 28.0594 20.2617 27.7255 23.5782C27.3915 26.8947 28.3202 30.2152 30.3262 32.8772C32.3322 35.5393 35.2681 37.3472 38.5481 37.9404C41.8282 38.5335 45.2113 37.8682 48.0225 36.0773C50.8338 34.2863 52.8665 31.5013 53.7151 28.2779C54.5012 25.2923 54.2179 22.134 52.9285 19.3456C52.7579 18.9767 52.8921 18.5318 53.2509 18.341Z" fill="#A7A7A7"/>
<path d="M46.4258 20.1609V19.6276C46.4258 18.7298 45.7198 18 44.8518 18H43.3927C42.5247 18 41.8193 18.7298 41.8193 19.6276V20.0934H39.182V19.6276C39.182 18.7298 38.476 18 37.6086 18H36.1495C35.2815 18 34.5755 18.7298 34.5755 19.6276V20.1609C33.4283 20.4178 32.5345 21.4293 32.4478 22.6775L32.0072 28.9673C31.952 29.7479 32.2174 30.5245 32.7356 31.098C33.2537 31.6715 33.9861 32 34.7461 32C35.6061 32 36.4275 31.5768 36.9428 30.8678L38.3858 28.8856C38.642 28.5334 39.0505 28.3233 39.4773 28.3233H41.5229C41.9503 28.3233 42.3581 28.5328 42.6143 28.885L44.0579 30.8678C44.5732 31.5768 45.3946 32 46.254 32C47.014 32 47.747 31.6709 48.2646 31.098C48.7822 30.5251 49.0475 29.7485 48.993 28.9673L48.5529 22.6775C48.4662 21.4293 47.5729 20.4184 46.4258 20.1609ZM42.9676 19.6276C42.9676 19.3832 43.1583 19.1837 43.3921 19.1837H44.8512C45.0856 19.1837 45.2763 19.3832 45.2763 19.6276V20.0934H42.967L42.9676 19.6276ZM36.1489 19.1837H37.608C37.8418 19.1837 38.0325 19.3832 38.0325 19.6276V20.0934H35.7238V19.6276C35.7238 19.3832 35.9145 19.1837 36.1489 19.1837ZM47.4236 30.2913C47.118 30.6298 46.7027 30.8163 46.254 30.8163C45.7542 30.8163 45.2769 30.57 44.9764 30.1581L43.5329 28.1754C43.0618 27.5267 42.3099 27.1396 41.5223 27.1396H39.4767C38.6903 27.1396 37.9383 27.5267 37.4661 28.1754L36.0231 30.1581C35.7233 30.57 35.2453 30.8163 34.745 30.8163C34.2963 30.8163 33.881 30.6304 33.5754 30.2913C33.2704 29.9533 33.1199 29.5136 33.152 29.0525L33.5926 22.7627C33.6512 21.9294 34.3319 21.2766 35.1431 21.2766H45.8565C46.6676 21.2766 47.3489 21.9294 47.4069 22.7627L47.847 29.0525C47.8791 29.5136 47.7286 29.9533 47.4236 30.2913ZM36.6935 22.3603C35.6061 22.3603 34.7214 23.2718 34.7214 24.3922C34.7214 25.5131 35.6061 26.4246 36.6935 26.4246C37.7815 26.4246 38.6661 25.5131 38.6661 24.3922C38.6661 23.2718 37.7815 22.3603 36.6935 22.3603ZM36.6935 25.2403C36.2397 25.2403 35.8703 24.8591 35.8703 24.3916C35.8703 23.924 36.2397 23.5434 36.6935 23.5434C37.1473 23.5434 37.5173 23.924 37.5173 24.3916C37.5173 24.8591 37.1479 25.2403 36.6935 25.2403ZM44.3061 22.3603C43.2181 22.3603 42.3334 23.2718 42.3334 24.3922C42.3334 25.5131 43.2181 26.4246 44.3061 26.4246C45.3935 26.4246 46.2781 25.5131 46.2781 24.3922C46.2781 23.2718 45.3935 22.3603 44.3061 22.3603ZM44.3061 25.2403C43.8523 25.2403 43.4823 24.8591 43.4823 24.3916C43.4823 23.924 43.8523 23.5434 44.3061 23.5434C44.7599 23.5434 45.1292 23.924 45.1292 24.3916C45.1292 24.8591 44.7599 25.2403 44.3061 25.2403Z" fill="#A7A7A7"/>
<path d="M64.583 30.9171L67.0829 28.5005C67.4034 28.18 67.838 28 68.2912 28C68.7444 28 69.179 28.18 69.4995 28.5005C69.82 28.821 70 29.2556 70 29.7088C70 30.162 69.82 30.5966 69.4995 30.9171L67.0829 33.417L69.1662 39.6668L67.0829 41.7917L64.1664 36.3336L61.6664 38.8335V41.3334L59.9998 43L58.7499 39.2501L55 38.0002L56.6666 36.3336H59.1665L61.6664 33.8336L56.25 30.9171L58.3332 28.8338L64.583 30.9171Z" stroke="#A7A7A7" stroke-linecap="round" stroke-linejoin="round"/>
<rect x="48" y="43" width="22.1538" height="16" fill="white"/>
<path d="M56.4252 47.2471L56.426 47.2475L63.4373 50.9703C63.4569 50.9808 63.4712 50.9906 63.4815 50.9987C63.4712 51.0069 63.4569 51.0167 63.4373 51.0272L63.4372 51.0272L56.4259 54.7521L56.4252 54.7525C56.3011 54.8186 56.1322 54.8245 55.9965 54.7746C55.9229 54.7476 55.8944 54.7215 55.8846 54.7085V47.2919C55.8946 47.2788 55.9233 47.2527 55.9969 47.2256C56.133 47.1754 56.3016 47.1812 56.4252 47.2471ZM55.8801 54.6999C55.8805 54.6997 55.8816 54.7015 55.8827 54.7057C55.8804 54.7021 55.8798 54.7 55.8801 54.6999ZM55.88 47.3006C55.8797 47.3005 55.8802 47.2984 55.8825 47.2949C55.8815 47.299 55.8803 47.3007 55.88 47.3006Z" stroke="#A7A7A7"/>
<path d="M62.7692 59H49C48.4477 59 48 58.5523 48 58V44C48 43.4477 48.4477 43 49 43H69.1538C69.7061 43 70.1538 43.4477 70.1538 44V58C70.1538 58.5523 69.7061 59 69.1538 59H67.0769" stroke="#A7A7A7" stroke-linecap="round"/>
<path d="M34.141 48.245V47.0366H39.859V48.245C39.859 49.2126 40.5618 50 41.4267 50H44.4317C45.296 50 46 49.2132 46 48.245V41.755C46 40.7874 45.2966 40 44.4317 40H41.4267C40.5624 40 39.859 40.7868 39.859 41.755V42.9634H34.141V41.755C34.141 40.7874 33.4382 40 32.5733 40H29.5677C28.7034 40 28 40.7868 28 41.755V48.245C28 49.2126 28.7029 50 29.5677 50H32.5733C33.4382 50 34.141 49.2132 34.141 48.245ZM40.965 41.755C40.965 41.4702 41.1723 41.2381 41.4267 41.2381H44.4317C44.6866 41.2381 44.894 41.4702 44.894 41.755V48.245C44.894 48.5298 44.6866 48.7619 44.4317 48.7619H41.4267C41.1723 48.7619 40.965 48.5298 40.965 48.245V41.755ZM39.859 44.2014V45.7986H34.141V44.2014H39.859ZM33.035 48.245C33.035 48.5298 32.8277 48.7619 32.5733 48.7619H29.5677C29.3134 48.7619 29.106 48.5298 29.106 48.245V41.755C29.106 41.4702 29.3134 41.2381 29.5677 41.2381H32.5733C32.8277 41.2381 33.035 41.4702 33.035 41.755V48.245Z" fill="#A7A7A7"/>
</g>
<path d="M42.0723 76.25C42.0791 77.4805 43.2822 78.5195 45.0117 78.9023L44.5742 79.7637C43.1729 79.415 42.0928 78.6768 41.5596 77.6924C41.04 78.7588 39.9463 79.5723 38.5039 79.9277L38.0391 79.0664C39.7959 78.6768 41.0059 77.5488 41.0059 76.25V76.1953H38.2988V75.3477H41.0059V73.9941H42.0723V75.3477H44.7793V76.1953H42.0723V76.25ZM37.4648 80.7891C39.7959 80.7822 42.8789 80.7686 45.5723 80.4199L45.6406 81.1992C44.4785 81.3906 43.2754 81.5068 42.0996 81.582V85.752H41.0332V81.6367C39.8027 81.6846 38.6338 81.6914 37.6152 81.6914L37.4648 80.7891ZM46.4609 86.1211V73.9668H47.5137V86.1211H46.4609ZM55.9219 75.1562V83.0586H50.3027V75.1562H55.9219ZM51.3555 82.1836H54.8691V76.0176H51.3555V82.1836ZM58.5332 86.1348V73.9531H59.6133V86.1348H58.5332Z" fill="#A7A7A7"/>
<defs>
<clipPath id="clip0_449_593">
<rect width="56" height="56" fill="white" transform="translate(21 8)"/>
</clipPath>
</defs>
</svg>
