<svg width="24" height="24" viewBox="0 0 24 24" fill="none" xmlns="http://www.w3.org/2000/svg">
<path d="M11.3077 4.33333V3.66667C11.3077 3.48986 11.3806 3.32029 11.5105 3.19526C11.6403 3.07024 11.8164 3 12 3C12.1836 3 12.3597 3.07024 12.4895 3.19526C12.6194 3.32029 12.6923 3.48986 12.6923 3.66667V4.33333C12.6923 4.51014 12.6194 4.67971 12.4895 4.80474C12.3597 4.92976 12.1836 5 12 5C11.8164 5 11.6403 4.92976 11.5105 4.80474C11.3806 4.67971 11.3077 4.51014 11.3077 4.33333ZM18.2308 7C18.3217 7.00007 18.4118 6.98288 18.4958 6.94942C18.5799 6.91597 18.6562 6.86689 18.7206 6.805L19.4129 6.13833C19.5428 6.01324 19.6158 5.84358 19.6158 5.66667C19.6158 5.48976 19.5428 5.32009 19.4129 5.195C19.283 5.06991 19.1068 4.99963 18.9231 4.99963C18.7394 4.99963 18.5632 5.06991 18.4333 5.195L17.741 5.86167C17.644 5.9549 17.578 6.07374 17.5512 6.20313C17.5245 6.33252 17.5382 6.46664 17.5906 6.58853C17.6431 6.71041 17.7319 6.81457 17.8459 6.88781C17.9598 6.96106 18.0938 7.0001 18.2308 7ZM5.27942 6.805C5.40933 6.93009 5.58552 7.00037 5.76923 7.00037C5.95294 7.00037 6.12913 6.93009 6.25904 6.805C6.38894 6.67991 6.46192 6.51024 6.46192 6.33333C6.46192 6.15642 6.38894 5.98676 6.25904 5.86167L5.56673 5.195C5.43683 5.06991 5.26064 4.99963 5.07692 4.99963C4.89321 4.99963 4.71702 5.06991 4.58712 5.195C4.45721 5.32009 4.38423 5.48976 4.38423 5.66667C4.38423 5.84358 4.45721 6.01324 4.58712 6.13833L5.27942 6.805ZM12.8083 9.00917C12.7182 8.99383 12.6259 8.99583 12.5366 9.01505C12.4474 9.03426 12.363 9.07032 12.2883 9.12113C12.2136 9.17194 12.1501 9.2365 12.1014 9.31108C12.0528 9.38566 12.02 9.46878 12.0049 9.55564C11.9898 9.6425 11.9927 9.73138 12.0135 9.81715C12.0343 9.90291 12.0725 9.98386 12.126 10.0553C12.1794 10.1268 12.2471 10.1873 12.325 10.2335C12.4029 10.2796 12.4895 10.3104 12.5798 10.3242C14.2214 10.59 15.4615 12.0267 15.4615 13.6667C15.4615 13.8435 15.5345 14.013 15.6643 14.1381C15.7941 14.2631 15.9702 14.3333 16.1538 14.3333C16.3375 14.3333 16.5135 14.2631 16.6434 14.1381C16.7732 14.013 16.8462 13.8435 16.8462 13.6667C16.8462 11.3833 15.1093 9.38083 12.8065 9.00917H12.8083ZM21 17.6667V19.6667C21 20.0203 20.8541 20.3594 20.5945 20.6095C20.3348 20.8595 19.9826 21 19.6154 21H4.38462C4.01739 21 3.66521 20.8595 3.40554 20.6095C3.14588 20.3594 3 20.0203 3 19.6667V17.6667C3 17.313 3.14588 16.9739 3.40554 16.7239C3.66521 16.4738 4.01739 16.3333 4.38462 16.3333V13.6667C4.38459 12.6989 4.58347 11.7407 4.9698 10.8474C5.35613 9.95399 5.92226 9.14307 6.63557 8.46138C7.34888 7.77968 8.19525 7.24068 9.12589 6.87544C10.0565 6.51021 11.053 6.32597 12.058 6.33333C16.2248 6.36333 19.6154 9.69083 19.6154 13.75V16.3333C19.9826 16.3333 20.3348 16.4738 20.5945 16.7239C20.8541 16.9739 21 17.313 21 17.6667ZM5.76923 16.3333H18.2308V13.75C18.2308 10.4167 15.4572 7.69083 12.0476 7.66667H12C10.3475 7.66667 8.76268 8.29881 7.59418 9.42403C6.42568 10.5492 5.76923 12.0754 5.76923 13.6667V16.3333ZM19.6154 19.6667V17.6667H4.38462V19.6667H19.6154Z" fill="black"/>
</svg>
