<svg width="57" height="57" viewBox="0 0 57 57" fill="none" xmlns="http://www.w3.org/2000/svg">
<rect width="57" height="57" rx="5" fill="#E8E8FC"/>
<path d="M37.9614 31.1035C37.9614 31.1035 35.8551 32.4819 34.0741 32.3408C32.2933 32.1995 31.1823 30.4302 30.586 29.7878C29.9901 29.1454 28.4881 27.5934 28.9388 26.9425C29.3893 26.2915 29.7899 26.9926 29.94 27.4431C30.0903 27.8937 29.9425 26.9955 30.1668 27.044C30.3907 27.0927 30.3015 27.6379 30.5214 27.8161C30.7412 27.9938 33.9956 29.6961 34.6965 29.596C35.3974 29.4959 35.7043 29.3036 35.9016 29.0994C36.0983 28.8946 38.2222 30.6585 37.9614 31.1035Z" fill="#F8AE9D"/>
<path d="M31.0735 47.8683L31.068 48.8122L28.9116 49.9742V50.4824H33.2244V49.6113L33.4502 47.8683H31.0735Z" fill="#E1E4E5"/>
<path d="M41.8911 36.3559C41.8911 36.3559 35.9376 34.3211 33.1879 34.652C30.4797 35.2028 30.4592 38.4692 30.4692 40.3908C30.4792 42.3124 30.7981 47.8699 30.7981 47.8699H33.8252C33.8252 47.8699 34.9082 42.8716 35.2697 40.5139C35.2697 40.5139 35.4184 39.4586 36.2149 39.859C39.4763 41.4992 41.5251 40.7603 41.8971 39.2082C42.269 37.6561 41.8911 36.3559 41.8911 36.3559Z" fill="#31446C"/>
<path d="M39.4291 27.6455C39.4291 27.6455 37.4809 28.6043 35.8969 28.8441C34.2446 29.0944 36.5477 31.2473 38.3501 31.2473C40.1525 31.2473 39.4291 27.6455 39.4291 27.6455Z" fill="#666AF6"/>
<path d="M47.4695 49.0289L48.6251 49.0343L49.703 50.4864H50.2422V46.4198H49.318L47.4695 46.7883V49.0289Z" fill="#E1E4E5"/>
<path d="M47.4729 49.1204V46.6171C45.0302 46.3668 44.0749 46.3373 41.5094 46.3252C39.6669 46.3168 40.6228 45.8161 40.6228 45.8161C42.6404 44.4141 44.7117 41.0096 44.7117 41.0096C45.9329 39.107 45.2429 36.153 45.2429 36.153C45.2429 36.153 43.0124 36.8039 41.1008 36.7037C41.1008 36.7037 39.03 39.2572 35.4186 44.8648C33.9758 47.1053 34.141 49.5631 36.8511 49.6923C36.8511 49.6923 43.3839 49.7714 47.4729 49.1204Z" fill="#31446C"/>
<path d="M40.1231 27.3759C40.1231 27.3759 38.4008 27.6923 38.1901 29.9222C38.0329 31.5865 38.1626 33.8436 38.1626 34.5695C38.1626 35.2954 37.7925 35.2344 38.3007 35.4522C38.8089 35.67 41.505 37.8555 45.206 36.1671C45.206 36.1671 45.7838 32.8217 45.6105 30.7959C45.5014 29.5217 45.1599 27.4414 42.955 27.2626L40.1231 27.3759Z" fill="#666AF6"/>
<path d="M40.6395 23.904L39.6928 23.8819C39.6928 23.8819 38.9107 27.3065 40.8473 26.9171L40.8108 27.2785C40.8108 27.2785 40.2185 27.3652 39.9942 27.4152C39.9942 27.4152 40.666 27.9935 41.4751 27.9289C42.2843 27.8643 42.8485 27.3371 42.8485 27.3371L42.451 27.297L42.3038 25.8591C42.3038 25.8591 42.7664 25.6138 42.7954 25.3249C42.8245 25.036 42.7593 24.9564 42.55 24.8622C42.3408 24.7682 42.0154 25.1006 42.0154 25.1006C42.0154 25.1006 41.7195 24.4142 41.691 23.9731L40.6395 23.904Z" fill="#F8AE9D"/>
<path d="M31.5414 25.7397L45.8997 37.5486C46.1295 37.7372 46.2757 38.0088 46.3066 38.3045C46.3376 38.6002 46.2508 38.8961 46.065 39.1282C45.8779 39.362 45.6058 39.512 45.3082 39.5454C45.0107 39.5787 44.7121 39.4926 44.4779 39.3061L29.8892 27.6423L31.5414 25.7397Z" fill="#31446C"/>
<path d="M26.2348 15C30.2306 15 33.4695 18.2389 33.4695 22.2348C33.4695 26.2306 30.2306 29.4695 26.2348 29.4695C22.2389 29.4695 19 26.2306 19 22.2348C19 18.2389 22.2389 15 26.2348 15ZM26.2348 27.3496C29.0595 27.3496 31.3496 25.0595 31.3496 22.2348C31.3496 19.41 29.0595 17.1199 26.2348 17.1199C23.4099 17.1199 21.1199 19.41 21.1199 22.2348C21.1199 25.0595 23.4099 27.3496 26.2348 27.3496Z" fill="white"/>
<path d="M43.6189 35.2582C43.6189 35.2582 41.5126 36.6366 39.7316 36.4955C37.9508 36.3542 36.8398 34.5848 36.2435 33.9425C35.6477 33.3002 34.1456 31.7481 34.5962 31.0972C35.0469 30.4463 35.4473 31.1473 35.5976 31.5979C35.7478 32.0484 35.6001 31.1502 35.8244 31.1989C36.0481 31.2474 35.9591 31.7926 36.1789 31.9708C36.3987 32.1486 39.6531 33.8509 40.354 33.7507C41.0549 33.6506 41.3618 33.4583 41.5592 33.254C41.7559 33.0493 43.8798 34.8132 43.6189 35.2582Z" fill="#F8AE9D"/>
<path d="M45.4588 29.7268C45.4588 29.7268 45.561 32.9503 44.81 34.302C44.0589 35.6539 44.0054 35.6979 43.3059 34.9749C42.607 34.252 41.3553 33.521 41.5305 32.9352C41.7057 32.3495 42.0658 31.3385 42.2064 30.4468C42.3566 29.4956 42.7071 27.5429 43.4581 27.2926C43.4581 27.2926 45.2566 27.956 45.4588 29.7268Z" fill="#666AF6"/>
<path d="M42.7381 25.8393C42.5834 26.0862 42.2127 26.085 42.2779 25.801C42.3518 25.4783 42.398 25.0504 42.1228 25.101C41.8476 25.1515 41.8107 25.3629 41.7148 25.2268C41.6189 25.0907 41.6739 24.5667 40.8841 24.4434C40.0943 24.3207 39.7418 24.5611 39.3907 24.3589C39.1804 24.2379 39.1107 23.9891 39.0885 23.8088C39.0823 23.7576 39.126 23.6917 39.1551 23.7343C39.1826 23.7744 39.2622 23.7808 39.2442 23.7355C39.1333 23.4555 38.9874 22.8555 39.5668 22.4835C40.3425 21.9851 41.0282 22.4411 41.4379 22.5107C42.3411 22.6645 42.9222 22.7827 43.1542 23.4107C43.3463 23.9316 43.1713 25.148 42.7381 25.8393Z" fill="#31446C"/>
<path d="M11.6289 27H11.6288C9.07239 27 7 29.0724 7 31.6288V31.6289C7 34.1853 9.07239 36.2577 11.6288 36.2577H11.6289C14.1853 36.2577 16.2577 34.1853 16.2577 31.6289V31.6288C16.2577 29.0724 14.1853 27 11.6289 27Z" fill="#9A70E2"/>
<path d="M28.6289 3H28.6288C26.0724 3 24 5.07239 24 7.62882V7.62892C24 10.1853 26.0724 12.2577 28.6288 12.2577H28.6289C31.1853 12.2577 33.2577 10.1853 33.2577 7.62892V7.62882C33.2577 5.07239 31.1853 3 28.6289 3Z" fill="#9A70E2"/>
<path d="M10.6289 10H10.6288C8.07239 10 6 12.0724 6 14.6288V14.6289C6 17.1853 8.07239 19.2577 10.6288 19.2577H10.6289C13.1853 19.2577 15.2577 17.1853 15.2577 14.6289V14.6288C15.2577 12.0724 13.1853 10 10.6289 10Z" fill="#9A70E2"/>
<path d="M13.7672 29.5713H9.12437C9.0256 29.5713 8.9458 29.6525 8.9458 29.7531V33.3895C8.9458 33.49 9.0256 33.5713 9.12437 33.5713H13.7672C13.866 33.5713 13.9458 33.49 13.9458 33.3895V29.7531C13.9458 29.6525 13.866 29.5713 13.7672 29.5713ZM13.544 33.1622H9.34759V29.9804H13.544V33.1622ZM11.9943 31.3667H12.683C12.6902 31.3667 12.6958 31.3463 12.6958 31.3213V31.0486C12.6958 31.0236 12.6902 31.0031 12.683 31.0031H11.9943C11.9871 31.0031 11.9815 31.0236 11.9815 31.0486V31.3213C11.9815 31.3463 11.9871 31.3667 11.9943 31.3667ZM12.0211 32.1849H13.0574C13.0792 32.1849 13.097 32.1645 13.097 32.1395V31.8667C13.097 31.8417 13.0792 31.8213 13.0574 31.8213H12.0211C11.9994 31.8213 11.9815 31.8417 11.9815 31.8667V32.1395C11.9815 32.1645 11.9994 32.1849 12.0211 32.1849ZM9.83866 32.4861H10.0836C10.1071 32.4861 10.126 32.4673 10.1277 32.4434C10.1489 32.1565 10.3844 31.9292 10.6701 31.9292C10.9558 31.9292 11.1913 32.1565 11.2125 32.4434C11.2142 32.4673 11.2332 32.4861 11.2566 32.4861H11.5016C11.5077 32.4861 11.5137 32.4848 11.5192 32.4824C11.5248 32.48 11.5298 32.4764 11.534 32.472C11.5382 32.4675 11.5414 32.4622 11.5435 32.4564C11.5456 32.4506 11.5466 32.4445 11.5462 32.4383C11.5306 32.1355 11.3677 31.8719 11.13 31.7219C11.2348 31.6045 11.2927 31.4515 11.2923 31.2929C11.2923 30.9412 11.0139 30.6565 10.6707 30.6565C10.3275 30.6565 10.049 30.9412 10.049 31.2929C10.049 31.4582 10.1104 31.6082 10.2114 31.7219C10.0904 31.7982 9.98933 31.9033 9.91684 32.028C9.84435 32.1528 9.80259 32.2936 9.79513 32.4383C9.7929 32.4645 9.81299 32.4861 9.83866 32.4861ZM10.6701 30.9974C10.8292 30.9974 10.9586 31.1298 10.9586 31.2929C10.9586 31.4559 10.8292 31.5883 10.6701 31.5883C10.5111 31.5883 10.3816 31.4559 10.3816 31.2929C10.3816 31.1298 10.5111 30.9974 10.6701 30.9974Z" fill="white"/>
<path d="M29.2458 6.57708L28.7073 5.9843L29.0931 5.91881L29.6296 6.51159L29.2458 6.57708ZM30.5911 6.3487L30.4384 5.69043L29.6688 5.82141L30.2053 6.41587L30.5911 6.3487ZM28.6701 6.67616L28.1335 6.08002L27.7477 6.14887L28.2863 6.74165L28.6701 6.67616ZM26.749 7.00361V8.68287C26.749 8.77195 26.7903 8.85737 26.8637 8.92036C26.9372 8.98334 27.0368 9.01873 27.1407 9.01873H30.2739C30.4912 9.01873 30.6655 8.86927 30.6655 8.68287V7.00361H26.749ZM27.172 6.24794L26.9801 6.27985C26.8786 6.29769 26.7894 6.34913 26.7318 6.423C26.6743 6.49688 26.653 6.58724 26.6727 6.67448L26.749 7.00361L27.7086 6.84072L27.172 6.24794ZM28.5115 9.69043H28.9031V9.35458H28.5115V9.69043ZM27.7282 9.69043H28.1198V9.35458H27.7282V9.69043ZM29.2948 9.69043H29.6864V9.35458H29.2948V9.69043Z" fill="white"/>
<path d="M13.5361 13.4688V14.0938C13.5361 14.149 13.5151 14.202 13.4776 14.2411C13.44 14.2801 13.3892 14.3021 13.3361 14.3021C13.2831 14.3021 13.2322 14.2801 13.1947 14.2411C13.1572 14.202 13.1361 14.149 13.1361 14.0938V13.4688C13.1361 13.4135 13.1572 13.3605 13.1947 13.3214C13.2322 13.2824 13.2831 13.2604 13.3361 13.2604C13.3892 13.2604 13.44 13.2824 13.4776 13.3214C13.5151 13.3605 13.5361 13.4135 13.5361 13.4688ZM7.73613 13.2604C7.68309 13.2604 7.63222 13.2824 7.59471 13.3214C7.5572 13.3605 7.53613 13.4135 7.53613 13.4688V14.0938C7.53613 14.149 7.5572 14.202 7.59471 14.2411C7.63222 14.2801 7.68309 14.3021 7.73613 14.3021C7.78918 14.3021 7.84005 14.2801 7.87755 14.2411C7.91506 14.202 7.93613 14.149 7.93613 14.0938V13.4688C7.93613 13.4135 7.91506 13.3605 7.87755 13.3214C7.84005 13.2824 7.78918 13.2604 7.73613 13.2604ZM12.7361 13.0521V16.8021C12.7361 16.9126 12.694 17.0186 12.619 17.0967C12.544 17.1749 12.4422 17.2188 12.3361 17.2188H11.9361C11.83 17.2188 11.7283 17.1749 11.6533 17.0967C11.5783 17.0186 11.5361 16.9126 11.5361 16.8021V16.5938H9.53613V16.8021C9.53613 16.9126 9.49399 17.0186 9.41898 17.0967C9.34396 17.1749 9.24222 17.2188 9.13613 17.2188H8.73613C8.63005 17.2188 8.5283 17.1749 8.45329 17.0967C8.37828 17.0186 8.33613 16.9126 8.33613 16.8021V13.0521C8.33613 12.8311 8.42042 12.6191 8.57045 12.4628C8.72048 12.3065 8.92396 12.2188 9.13613 12.2188H11.9361C12.1483 12.2188 12.3518 12.3065 12.5018 12.4628C12.6518 12.6191 12.7361 12.8311 12.7361 13.0521ZM9.93613 15.2396C9.93613 15.1778 9.91854 15.1174 9.88557 15.066C9.85261 15.0146 9.80576 14.9745 9.75094 14.9509C9.69612 14.9272 9.6358 14.921 9.57761 14.9331C9.51941 14.9451 9.46596 14.9749 9.424 15.0186C9.38205 15.0623 9.35347 15.118 9.3419 15.1786C9.33032 15.2392 9.33626 15.3021 9.35897 15.3592C9.38168 15.4163 9.42013 15.4651 9.46946 15.4994C9.5188 15.5338 9.5768 15.5521 9.63613 15.5521C9.7157 15.5521 9.792 15.5192 9.84826 15.4606C9.90453 15.4019 9.93613 15.3225 9.93613 15.2396ZM11.7361 15.2396C11.7361 15.1778 11.7185 15.1174 11.6856 15.066C11.6526 15.0146 11.6058 14.9745 11.5509 14.9509C11.4961 14.9272 11.4358 14.921 11.3776 14.9331C11.3194 14.9451 11.266 14.9749 11.224 15.0186C11.182 15.0623 11.1535 15.118 11.1419 15.1786C11.1303 15.2392 11.1363 15.3021 11.159 15.3592C11.1817 15.4163 11.2201 15.4651 11.2695 15.4994C11.3188 15.5338 11.3768 15.5521 11.4361 15.5521C11.5157 15.5521 11.592 15.5192 11.6483 15.4606C11.7045 15.4019 11.7361 15.3225 11.7361 15.2396ZM12.3361 13.2604H8.73613V14.3021H12.3361V13.2604Z" fill="white"/>
</svg>
