<svg width="56" height="56" viewBox="0 0 56 56" fill="none" xmlns="http://www.w3.org/2000/svg">
<path d="M22.6698 19.0256C21.9382 19.0256 21.3634 18.4615 21.3634 17.7436C21.3634 17.0256 21.9382 16.4615 22.6698 16.4615H23.5059H27.4252H29.7767H33.905H34.5321C35.2637 16.4615 35.8385 17.0256 35.8385 17.7436C35.8385 18.4615 35.2637 19.0256 34.5321 19.0256H33.905H32.6508H24.4988H23.5059H22.6698ZM12.8979 29.2821H20.9454H26.4323H34.4798C35.2114 29.2821 35.7862 28.7179 35.7862 28C35.7862 27.2821 35.2114 26.7179 34.4798 26.7179H28.7316H26.4323H21.0499H18.2803H12.8979C12.1663 26.7179 11.5914 27.2821 11.5914 28C11.5914 28.7179 12.2185 29.2821 12.8979 29.2821ZM11.5914 22.8718C11.5914 23.5897 12.1663 24.1538 12.8979 24.1538H18.2803H21.5724H25.8052H28.6793H34.4798C35.2114 24.1538 35.7862 23.5897 35.7862 22.8718C35.7862 22.1538 35.2114 21.5897 34.4798 21.5897H24.7601H22.7221H12.8979C12.2185 21.5897 11.5914 22.1538 11.5914 22.8718ZM29.3064 34.4103C29.829 33.4872 30.4561 32.6154 31.1876 31.8462H26.0665H21.3634H12.8979C12.1663 31.8462 11.5914 32.4103 11.5914 33.1282C11.5914 33.8462 12.1663 34.4103 12.8979 34.4103H18.2803H22.2518H25.1781H28.7316H29.3064ZM12.8979 39.5385H21.2067H26.2755H27.8432C27.8955 38.6667 28.0523 37.7949 28.2613 36.9744H23.8195H23.6627H12.8979C12.1663 36.9744 11.5914 37.5385 11.5914 38.2564C11.5914 38.9744 12.2185 39.5385 12.8979 39.5385ZM12.7933 44.6667H28.5748C28.2613 43.8462 28 42.9744 27.8955 42.1026H12.7933C12.0618 42.1026 11.4869 42.6667 11.4869 43.3846C11.4869 44.1026 12.0618 44.6667 12.7933 44.6667ZM11.5392 50H32.6508C31.7102 49.2821 30.8219 48.4103 30.1425 47.4359H11.5392C9.91924 47.4359 8.61283 46.1538 8.61283 44.5641V18.1538H13.2637C16.2945 18.1538 18.8029 15.6923 18.8029 12.7179V8.5641H36.152C37.772 8.5641 39.0784 9.84615 39.0784 11.4359V14.359V28.0513C39.4964 28 39.9145 28 40.3325 28C40.8029 28 41.2209 28 41.6912 28.0513V15.2308V14.359V11.4359C41.6912 8.41026 39.2352 6 36.152 6H17.9667C17.6532 6 17.3397 6.05128 17.0261 6.15385C16.7126 6.25641 16.4513 6.46154 16.2423 6.66667L6.73159 15.641C6.47031 15.8462 6.31354 16.1538 6.15677 16.4615C6.05226 16.7179 6 17.0769 6 17.3846V44.5641C6 47.5385 8.45606 50 11.5392 50ZM40.2803 30.7692C45.6627 30.7692 50 35.0256 50 40.3077C50 45.5897 45.6627 49.8461 40.2803 49.8461C34.8979 49.8461 30.5606 45.5897 30.5606 40.3077C30.5606 35.0256 34.9501 30.7692 40.2803 30.7692ZM42.5796 44.5641C42.4228 44.6154 42.266 44.7179 42.1093 44.7692C41.9002 44.8205 41.7435 44.9231 41.5344 44.9231C41.2732 44.9744 41.1164 44.8205 41.0641 44.5641C41.0119 44.4103 41.0119 44.2051 41.0119 44.0513C41.0641 43.6923 41.1164 43.3333 41.2209 42.9231C41.4299 41.7949 41.639 40.7179 41.848 39.5897C41.9002 39.2821 41.9525 38.9744 41.9525 38.6667C41.9525 38.3077 41.7435 38.1538 41.3777 38.1538C40.8551 38.1538 40.3325 38.1538 39.81 38.1538C39.3397 38.1538 38.8171 38.1538 38.3468 38.1538C38.2423 38.1538 38.0855 38.1538 37.981 38.2051C37.772 38.2564 37.6675 38.359 37.6152 38.5128C37.6152 38.6667 37.6675 38.8205 37.8765 38.9231C38.0333 38.9744 38.2423 38.9744 38.3991 39.0256C38.8171 39.0769 38.9216 39.2308 38.9216 39.641C38.9216 39.6923 38.9216 39.7436 38.9216 39.8462C38.7648 40.8205 38.5558 41.7949 38.3991 42.7692C38.2945 43.3333 38.2423 43.8974 38.1378 44.4615C38.0333 45.282 38.8171 46.0513 39.4442 46.1538C39.81 46.2051 40.228 46.2051 40.5938 46.2051C41.4299 46.2051 42.1093 45.8461 42.6841 45.282C42.7886 45.1795 42.8931 45.0256 42.8931 44.9231C43.0499 44.6667 42.8409 44.5128 42.5796 44.5641ZM40.6983 34.4103C39.81 34.4103 39.1306 35.0769 39.0784 35.9487C39.0784 36.8205 39.7577 37.5385 40.6461 37.5385C41.4822 37.5385 42.2138 36.8205 42.2138 36C42.266 35.0769 41.5867 34.4103 40.6983 34.4103Z" fill="#9A70E2"/>
</svg>
