<svg width="56" height="56" viewBox="0 0 56 56" fill="none" xmlns="http://www.w3.org/2000/svg">
<path d="M47.2656 28.3333H46.1719V11.1111H18.8281V28.3333H17.7344V10.5556C17.7344 10.2222 17.9531 10 18.2812 10H46.7188C47.0469 10 47.2656 10.2222 47.2656 10.5556V28.3333Z" fill="#9A70E2"/>
<path d="M45.0781 27.2222C44.75 27.2222 44.5312 27 44.5312 26.6666V12.7777H20.4688V26.6666C20.4688 27 20.25 27.2222 19.9219 27.2222C19.5937 27.2222 19.375 27 19.375 26.6666V12.2222C19.375 11.8888 19.5937 11.6666 19.9219 11.6666H45.0781C45.4062 11.6666 45.625 11.8888 45.625 12.2222V26.6666C45.625 27 45.4062 27.2222 45.0781 27.2222Z" fill="#9A70E2"/>
<path d="M32.5 27.2222C32.1719 27.2222 31.9531 27 31.9531 26.6666V12.2222C31.9531 11.8888 32.1719 11.6666 32.5 11.6666C32.8281 11.6666 33.0469 11.8888 33.0469 12.2222V26.6666C33.0469 27 32.8281 27.2222 32.5 27.2222Z" fill="#9A70E2"/>
<path d="M39.0625 21.1111C37.5312 21.1111 36.3281 19.8889 36.3281 18.3333C36.3281 16.7778 37.5312 15.5555 39.0625 15.5555C40.5938 15.5555 41.7969 16.7778 41.7969 18.3333C41.7969 19.8889 40.5938 21.1111 39.0625 21.1111ZM39.0625 16.6667C38.1328 16.6667 37.4219 17.3889 37.4219 18.3333C37.4219 19.2778 38.1328 20 39.0625 20C39.9922 20 40.7031 19.2778 40.7031 18.3333C40.7031 17.3889 39.9922 16.6667 39.0625 16.6667Z" fill="#9A70E2"/>
<path d="M39.0625 14.9999C38.7344 14.9999 38.5156 14.7777 38.5156 14.4444V13.8888C38.5156 13.5555 38.7344 13.3333 39.0625 13.3333C39.3906 13.3333 39.6094 13.5555 39.6094 13.8888V14.4444C39.6094 14.7777 39.3906 14.9999 39.0625 14.9999Z" fill="#9A70E2"/>
<path d="M43.4375 18.8889H42.8906C42.5625 18.8889 42.3438 18.6667 42.3438 18.3334C42.3438 18.0001 42.5625 17.7778 42.8906 17.7778H43.4375C43.7656 17.7778 43.9844 18.0001 43.9844 18.3334C43.9844 18.6667 43.7656 18.8889 43.4375 18.8889Z" fill="#9A70E2"/>
<path d="M39.0625 23.3334C38.7344 23.3334 38.5156 23.1112 38.5156 22.7779V22.2223C38.5156 21.889 38.7344 21.6667 39.0625 21.6667C39.3906 21.6667 39.6094 21.889 39.6094 22.2223V22.7779C39.6094 23.1112 39.3906 23.3334 39.0625 23.3334Z" fill="#9A70E2"/>
<path d="M35.2344 18.8889H34.6875C34.3594 18.8889 34.1406 18.6667 34.1406 18.3334C34.1406 18.0001 34.3594 17.7778 34.6875 17.7778H35.2344C35.5625 17.7778 35.7812 18.0001 35.7812 18.3334C35.7812 18.6667 35.5625 18.8889 35.2344 18.8889Z" fill="#9A70E2"/>
<path d="M36.3281 16.1111C36.1641 16.1111 36.0547 16.0555 35.9453 15.9444L35.5625 15.5555C35.3438 15.3333 35.3438 15 35.5625 14.7778C35.7812 14.5555 36.1094 14.5555 36.3281 14.7778L36.7109 15.1666C36.9297 15.3889 36.9297 15.7222 36.7109 15.9444C36.6563 16.1111 36.4922 16.1111 36.3281 16.1111Z" fill="#9A70E2"/>
<path d="M41.7969 16.1111C41.6328 16.1111 41.5234 16.0555 41.4141 15.9444C41.1953 15.7222 41.1953 15.3889 41.4141 15.1666L41.7969 14.7778C42.0156 14.5555 42.3438 14.5555 42.5625 14.7778C42.7813 15 42.7813 15.3333 42.5625 15.5555L42.1797 15.9444C42.0703 16.1111 41.9063 16.1111 41.7969 16.1111Z" fill="#9A70E2"/>
<path d="M42.1797 22.0555C42.0156 22.0555 41.9063 22 41.7969 21.8889L41.4141 21.5C41.1953 21.2778 41.1953 20.9444 41.4141 20.7222C41.6328 20.5 41.9609 20.5 42.1797 20.7222L42.5625 21.1111C42.7813 21.3333 42.7813 21.6667 42.5625 21.8889C42.4531 22 42.2891 22.0555 42.1797 22.0555Z" fill="#9A70E2"/>
<path d="M35.9453 22.0555C35.7813 22.0555 35.6719 22 35.5625 21.8889C35.3438 21.6667 35.3438 21.3333 35.5625 21.1111L35.9453 20.7222C36.1641 20.5 36.4922 20.5 36.7109 20.7222C36.9297 20.9444 36.9297 21.2778 36.7109 21.5L36.3281 21.8889C36.2734 22 36.1094 22.0555 35.9453 22.0555Z" fill="#9A70E2"/>
<path d="M24.8438 17.7778H22.6562C21.7266 17.7778 21.0156 17.0555 21.0156 16.1111C21.0156 15.1667 21.7266 14.4444 22.6562 14.4444H22.8203C23.2031 13.7222 24.0234 13.2222 24.8984 13.3333C26.0469 13.3333 27.0312 14.3333 27.0312 15.5556C27.0312 16.7778 26.0469 17.7778 24.8438 17.7778ZM22.6562 15.5556C22.3281 15.5556 22.1094 15.7778 22.1094 16.1111C22.1094 16.4444 22.3281 16.6667 22.6562 16.6667H24.8438C25.4453 16.6667 25.9375 16.1667 25.9375 15.5556C25.9375 14.9444 25.4453 14.4444 24.8438 14.4444C24.2969 14.3889 23.8594 14.7222 23.75 15.1667C23.6953 15.3889 23.4766 15.5556 23.2031 15.5556H22.6562Z" fill="#9A70E2"/>
<path d="M19.9219 44.4444H15.5469C15.2187 44.4444 15 44.2222 15 43.8889V33.8889C15 32.3333 16.2031 31.1111 17.7344 31.1111C19.2656 31.1111 20.4688 32.3333 20.4688 33.8889V43.8889C20.4688 44.2222 20.25 44.4444 19.9219 44.4444ZM16.0938 43.3333H19.375V33.8889C19.375 32.9444 18.6641 32.2222 17.7344 32.2222C16.8047 32.2222 16.0938 32.9444 16.0938 33.8889V43.3333Z" fill="#9A70E2"/>
<path d="M32.5 40.5556H19.9219C19.5937 40.5556 19.375 40.3333 19.375 40V37.5C19.375 36.1111 20.4688 35 21.8359 35H30.5859C31.2422 35 31.8438 35.2222 32.3359 35.7222C32.8281 36.1667 33.0469 36.8333 33.0469 37.5V40C33.0469 40.3333 32.8281 40.5556 32.5 40.5556ZM20.4688 39.4444H31.9531V37.5C31.9531 37.1111 31.7891 36.7778 31.5703 36.5C31.3516 36.2222 30.9688 36.1111 30.5859 36.1111H21.8359C21.0703 36.1111 20.4688 36.7222 20.4688 37.5V39.4444Z" fill="#9A70E2"/>
<path d="M45.0781 40.5556H33.0469C32.7187 40.5556 32.5 40.3333 32.5 40V37.4444C32.5 36.1111 33.5938 35 34.9063 35H43.2187C44.5312 35 45.625 36.1111 45.625 37.4444V40C45.625 40.3333 45.4062 40.5556 45.0781 40.5556ZM33.5938 39.4444H44.5312V37.4444C44.5312 36.7222 43.9297 36.1111 43.2187 36.1111H34.9063C34.1953 36.1111 33.5938 36.7222 33.5938 37.4444V39.4444Z" fill="#9A70E2"/>
<path d="M45.0781 43.8889H19.9219C19.5937 43.8889 19.375 43.6667 19.375 43.3333V40C19.375 39.6667 19.5937 39.4445 19.9219 39.4445H45.0781C45.4062 39.4445 45.625 39.6667 45.625 40V43.3333C45.625 43.6667 45.4062 43.8889 45.0781 43.8889ZM20.4688 42.7778H44.5312V40.5556H20.4688V42.7778Z" fill="#9A70E2"/>
<path d="M49.4531 44.4444H45.0781C44.75 44.4444 44.5312 44.2222 44.5312 43.8889V33.8889C44.5312 32.3333 45.7344 31.1111 47.2656 31.1111C48.7969 31.1111 50 32.3333 50 33.8889V43.8889C50 44.2222 49.7812 44.4444 49.4531 44.4444ZM45.625 43.3333H48.9062V33.8889C48.9062 32.9444 48.1953 32.2222 47.2656 32.2222C46.3359 32.2222 45.625 32.9444 45.625 33.8889V43.3333Z" fill="#9A70E2"/>
<path d="M47.2656 32.2222C46.9375 32.2222 46.7188 32 46.7188 31.6666V30C46.7188 28.4444 45.5156 27.2222 43.9844 27.2222H21.0156C19.4844 27.2222 18.2812 28.4444 18.2812 30V31.6666C18.2812 32 18.0625 32.2222 17.7344 32.2222C17.4062 32.2222 17.1875 32 17.1875 31.6666V30C17.1875 27.8333 18.8828 26.1111 21.0156 26.1111H43.9844C46.1172 26.1111 47.8125 27.8333 47.8125 30V31.6666C47.8125 32 47.5938 32.2222 47.2656 32.2222Z" fill="#9A70E2"/>
<path d="M31.4062 27.2223C31.1875 27.2223 30.9687 27.1112 30.914 26.889L28.1797 20.4445C28.125 20.2223 27.9609 20.1112 27.7969 20.0556C27.4687 19.9445 27.1406 20.1112 26.9765 20.4445L24.2422 26.889C24.1328 27.1667 23.8047 27.2779 23.5312 27.1667C23.2578 27.0556 23.1484 26.7223 23.2578 26.4445L25.9922 20.0001C26.3203 19.1112 27.3047 18.6667 28.1797 19.0001C28.6719 19.1667 29 19.5556 29.2187 20.0556L31.9531 26.4445C32.0625 26.7223 31.9531 27.0556 31.6797 27.1667C31.5703 27.2223 31.4609 27.2223 31.4062 27.2223Z" fill="#9A70E2"/>
<path d="M26.4843 25.5556C26.4296 25.5556 26.375 25.5556 26.3203 25.5001L24.6796 24.9445C24.4062 24.8334 24.2421 24.5556 24.3515 24.2223C24.4609 23.9445 24.7343 23.7778 25.0625 23.8889L26.375 24.3334L27.25 23.4445C27.4687 23.2223 27.7968 23.2223 28.0156 23.4445L28.7265 24.1667L29.4375 23.4445C29.6562 23.2223 29.9843 23.2223 30.2031 23.4445C30.4218 23.6667 30.4218 24.0001 30.2031 24.2223L29.1093 25.3334C28.8906 25.5556 28.5625 25.5556 28.3437 25.3334L27.5781 24.6667L26.8671 25.3889C26.7578 25.5001 26.6484 25.5556 26.4843 25.5556Z" fill="#9A70E2"/>
<path d="M20 44V46.5C20 46.7761 20.2239 47 20.5 47H22.5C22.7761 47 23 46.7761 23 46.5V44" stroke="#9A70E2" stroke-linecap="round"/>
<path d="M42 44V46.5C42 46.7761 42.2239 47 42.5 47H44.5C44.7761 47 45 46.7761 45 46.5V44" stroke="#9A70E2" stroke-linecap="round"/>
<path d="M14.7415 24.8915C14.8109 25.2038 14.5733 25.5 14.2534 25.5L6.31564 25.5C5.98498 25.5 5.74538 25.1848 5.83388 24.8662L7.77833 17.8662C7.83844 17.6498 8.03548 17.5 8.26009 17.5L12.6978 17.5C12.9322 17.5 13.1351 17.6628 13.1859 17.8915L14.7415 24.8915Z" stroke="#9A70E2"/>
<path d="M10.5 26V46" stroke="#9A70E2" stroke-linecap="round"/>
<path d="M7 46C7.35 46 11.8125 46 14 46" stroke="#9A70E2" stroke-linecap="square"/>
</svg>
