<svg width="26" height="26" viewBox="0 0 26 26" fill="none" xmlns="http://www.w3.org/2000/svg">
<circle cx="13" cy="13" r="12.5" fill="white" stroke="#A7A7A7"/>
<path d="M13.4749 10.3219L15.6781 12.5255L10.6828 17.5203C10.5891 17.614 10.4619 17.6667 10.3293 17.6667H8.83325C8.55711 17.6667 8.33325 17.4428 8.33325 17.1667V15.6702C8.33325 15.5376 8.38594 15.4104 8.47972 15.3166L13.4749 10.3219ZM14.2093 9.58752L15.3109 8.48544C15.4083 8.38807 15.5403 8.33337 15.6781 8.33337C15.8158 8.33337 15.9479 8.38807 16.0452 8.48544L17.5145 9.95471C17.6119 10.0521 17.6666 10.1842 17.6666 10.3219C17.6666 10.4596 17.6119 10.5917 17.5145 10.6891L16.4124 11.7907L14.2093 9.58752Z" fill="#A7A7A7"/>
</svg>
