<svg width="80" height="37" viewBox="0 0 80 37" fill="none" xmlns="http://www.w3.org/2000/svg">
<rect width="80" height="37" rx="18.5" fill="#9A70E2"/>
<path d="M28.8806 19.119H28.49V12.9682H18.7244V19.119H18.3337V12.7698C18.3337 12.6508 18.4119 12.5714 18.5291 12.5714H28.6853C28.8025 12.5714 28.8806 12.6508 28.8806 12.7698V19.119Z" fill="white"/>
<path d="M23.6072 18.7223C23.49 18.7223 23.4119 18.6378 23.4119 18.5111V13.0207C23.4119 12.894 23.49 12.8096 23.6072 12.8096C23.7244 12.8096 23.8025 12.894 23.8025 13.0207V18.5111C23.8025 18.6378 23.7244 18.7223 23.6072 18.7223Z" fill="white"/>
<path d="M25.9509 16.5397C25.4041 16.5397 24.9744 16.1032 24.9744 15.5476C24.9744 14.992 25.4041 14.5555 25.9509 14.5555C26.4978 14.5555 26.9275 14.992 26.9275 15.5476C26.9275 16.1032 26.4978 16.5397 25.9509 16.5397ZM25.9509 14.9524C25.6189 14.9524 25.365 15.2103 25.365 15.5476C25.365 15.8849 25.6189 16.1428 25.9509 16.1428C26.283 16.1428 26.5369 15.8849 26.5369 15.5476C26.5369 15.2103 26.283 14.9524 25.9509 14.9524Z" fill="white"/>
<path d="M25.9509 14.3571C25.8337 14.3571 25.7556 14.2777 25.7556 14.1587V13.9603C25.7556 13.8412 25.8337 13.7618 25.9509 13.7618C26.0681 13.7618 26.1462 13.8412 26.1462 13.9603V14.1587C26.1462 14.2777 26.0681 14.3571 25.9509 14.3571Z" fill="white"/>
<path d="M27.5134 15.7461H27.3181C27.2009 15.7461 27.1228 15.6667 27.1228 15.5477C27.1228 15.4286 27.2009 15.3492 27.3181 15.3492H27.5134C27.6306 15.3492 27.7087 15.4286 27.7087 15.5477C27.7087 15.6667 27.6306 15.7461 27.5134 15.7461Z" fill="white"/>
<path d="M25.9509 17.3334C25.8337 17.3334 25.7556 17.254 25.7556 17.135V16.9366C25.7556 16.8175 25.8337 16.7382 25.9509 16.7382C26.0681 16.7382 26.1462 16.8175 26.1462 16.9366V17.135C26.1462 17.254 26.0681 17.3334 25.9509 17.3334Z" fill="white"/>
<path d="M24.5837 15.7461H24.3884C24.2712 15.7461 24.1931 15.6667 24.1931 15.5477C24.1931 15.4286 24.2712 15.3492 24.3884 15.3492H24.5837C24.7009 15.3492 24.7791 15.4286 24.7791 15.5477C24.7791 15.6667 24.7009 15.7461 24.5837 15.7461Z" fill="white"/>
<path d="M24.9744 14.754C24.9158 14.754 24.8767 14.7341 24.8376 14.6945L24.7009 14.5556C24.6228 14.4762 24.6228 14.3572 24.7009 14.2778C24.7791 14.1984 24.8962 14.1984 24.9744 14.2778L25.1111 14.4167C25.1892 14.496 25.1892 14.6151 25.1111 14.6945C25.0916 14.754 25.033 14.754 24.9744 14.754Z" fill="white"/>
<path d="M26.9275 14.754C26.8689 14.754 26.8298 14.7341 26.7908 14.6945C26.7126 14.6151 26.7126 14.496 26.7908 14.4167L26.9275 14.2778C27.0056 14.1984 27.1228 14.1984 27.2009 14.2778C27.2791 14.3572 27.2791 14.4762 27.2009 14.5556L27.0642 14.6945C27.0251 14.754 26.9666 14.754 26.9275 14.754Z" fill="white"/>
<path d="M27.0642 16.877C27.0056 16.877 26.9666 16.8572 26.9275 16.8175L26.7908 16.6786C26.7126 16.5992 26.7126 16.4802 26.7908 16.4008C26.8689 16.3215 26.9861 16.3215 27.0642 16.4008L27.2009 16.5397C27.2791 16.6191 27.2791 16.7381 27.2009 16.8175C27.1619 16.8572 27.1033 16.877 27.0642 16.877Z" fill="white"/>
<path d="M24.8376 16.877C24.7791 16.877 24.74 16.8572 24.7009 16.8175C24.6228 16.7381 24.6228 16.6191 24.7009 16.5397L24.8376 16.4008C24.9158 16.3215 25.033 16.3215 25.1111 16.4008C25.1892 16.4802 25.1892 16.5992 25.1111 16.6786L24.9744 16.8175C24.9548 16.8572 24.8962 16.877 24.8376 16.877Z" fill="white"/>
<path d="M20.8728 15.3492H20.0916C19.7595 15.3492 19.5056 15.0912 19.5056 14.7539C19.5056 14.4166 19.7595 14.1587 20.0916 14.1587H20.1501C20.2869 13.9008 20.5798 13.7222 20.8923 13.7619C21.3025 13.7619 21.6541 14.119 21.6541 14.5555C21.6541 14.992 21.3025 15.3492 20.8728 15.3492ZM20.0916 14.5555C19.9744 14.5555 19.8962 14.6349 19.8962 14.7539C19.8962 14.873 19.9744 14.9523 20.0916 14.9523H20.8728C21.0876 14.9523 21.2634 14.7738 21.2634 14.5555C21.2634 14.3373 21.0876 14.1587 20.8728 14.1587C20.6775 14.1389 20.5212 14.2579 20.4822 14.4166C20.4626 14.496 20.3845 14.5555 20.2869 14.5555H20.0916Z" fill="white"/>
<path d="M19.115 24.873H17.5525C17.4353 24.873 17.3572 24.7936 17.3572 24.6746V21.1031C17.3572 20.5476 17.7869 20.1111 18.3337 20.1111C18.8806 20.1111 19.3103 20.5476 19.3103 21.1031V24.6746C19.3103 24.7936 19.2322 24.873 19.115 24.873ZM17.7478 24.4762H18.9197V21.1031C18.9197 20.7658 18.6658 20.5079 18.3337 20.5079C18.0017 20.5079 17.7478 20.7658 17.7478 21.1031V24.4762Z" fill="white"/>
<path d="M23.6072 23.4841H19.115C18.9978 23.4841 18.9197 23.4048 18.9197 23.2857V22.3929C18.9197 21.8968 19.3103 21.5 19.7986 21.5H22.9236C23.158 21.5 23.3728 21.5794 23.5486 21.7579C23.7244 21.9167 23.8025 22.1548 23.8025 22.3929V23.2857C23.8025 23.4048 23.7244 23.4841 23.6072 23.4841ZM19.3103 23.0873H23.4119V22.3929C23.4119 22.254 23.3533 22.1349 23.2751 22.0357C23.197 21.9365 23.0603 21.8968 22.9236 21.8968H19.7986C19.5251 21.8968 19.3103 22.1151 19.3103 22.3929V23.0873Z" fill="white"/>
<path d="M28.0994 23.4841H23.8025C23.6853 23.4841 23.6072 23.4048 23.6072 23.2857V22.373C23.6072 21.8968 23.9978 21.5 24.4666 21.5H27.4353C27.9041 21.5 28.2947 21.8968 28.2947 22.373V23.2857C28.2947 23.4048 28.2166 23.4841 28.0994 23.4841ZM23.9978 23.0873H27.9041V22.373C27.9041 22.1151 27.6892 21.8968 27.4353 21.8968H24.4666C24.2126 21.8968 23.9978 22.1151 23.9978 22.373V23.0873Z" fill="white"/>
<path d="M28.0994 24.6746H19.115C18.9978 24.6746 18.9197 24.5952 18.9197 24.4762V23.2857C18.9197 23.1666 18.9978 23.0873 19.115 23.0873H28.0994C28.2166 23.0873 28.2947 23.1666 28.2947 23.2857V24.4762C28.2947 24.5952 28.2166 24.6746 28.0994 24.6746ZM19.3103 24.2778H27.9041V23.4841H19.3103V24.2778Z" fill="white"/>
<path d="M29.6619 24.873H28.0994C27.9822 24.873 27.9041 24.7936 27.9041 24.6746V21.1031C27.9041 20.5476 28.3337 20.1111 28.8806 20.1111C29.4275 20.1111 29.8572 20.5476 29.8572 21.1031V24.6746C29.8572 24.7936 29.7791 24.873 29.6619 24.873ZM28.2947 24.4762H29.4666V21.1031C29.4666 20.7658 29.2126 20.5079 28.8806 20.5079C28.5486 20.5079 28.2947 20.7658 28.2947 21.1031V24.4762Z" fill="white"/>
<path d="M28.8806 20.508C28.7634 20.508 28.6853 20.4286 28.6853 20.3096V19.7143C28.6853 19.1588 28.2556 18.7223 27.7087 18.7223H19.5056C18.9587 18.7223 18.5291 19.1588 18.5291 19.7143V20.3096C18.5291 20.4286 18.4509 20.508 18.3337 20.508C18.2166 20.508 18.1384 20.4286 18.1384 20.3096V19.7143C18.1384 18.9405 18.7439 18.3254 19.5056 18.3254H27.7087C28.4705 18.3254 29.0759 18.9405 29.0759 19.7143V20.3096C29.0759 20.4286 28.9978 20.508 28.8806 20.508Z" fill="white"/>
<path d="M23.2165 18.7222C23.1384 18.7222 23.0603 18.6826 23.0407 18.6032L22.0642 16.3016C22.0446 16.2222 21.986 16.1826 21.9274 16.1627C21.8103 16.123 21.6931 16.1826 21.6345 16.3016L20.6579 18.6032C20.6189 18.7024 20.5017 18.7421 20.404 18.7024C20.3064 18.6627 20.2673 18.5437 20.3064 18.4445L21.2829 16.1429C21.4001 15.8254 21.7517 15.6667 22.0642 15.7857C22.2399 15.8453 22.3571 15.9842 22.4353 16.1627L23.4118 18.4445C23.4509 18.5437 23.4118 18.6627 23.3142 18.7024C23.2751 18.7222 23.236 18.7222 23.2165 18.7222Z" fill="white"/>
<path d="M21.4586 18.127C21.4391 18.127 21.4196 18.127 21.4001 18.1071L20.8141 17.9087C20.7165 17.869 20.6579 17.7698 20.6969 17.6508C20.736 17.5516 20.8336 17.492 20.9508 17.5317L21.4196 17.6905L21.7321 17.373C21.8102 17.2936 21.9274 17.2936 22.0055 17.373L22.2594 17.6309L22.5133 17.373C22.5915 17.2936 22.7086 17.2936 22.7868 17.373C22.8649 17.4524 22.8649 17.5714 22.7868 17.6508L22.3961 18.0476C22.318 18.127 22.2008 18.127 22.1227 18.0476L21.8493 17.8095L21.5954 18.0674C21.5563 18.1071 21.5172 18.127 21.4586 18.127Z" fill="white"/>
<path d="M19.1428 24.7142V25.2857C19.1428 25.5618 19.3667 25.7857 19.6428 25.7857H19.7143C19.9904 25.7857 20.2143 25.5618 20.2143 25.2857V24.7142" stroke="white" stroke-width="0.5" stroke-linecap="round"/>
<path d="M27 24.7142V25.2857C27 25.5618 27.2239 25.7857 27.5 25.7857H27.5714C27.8476 25.7857 28.0714 25.5618 28.0714 25.2857V24.7142" stroke="white" stroke-width="0.5" stroke-linecap="round"/>
<path d="M17.0213 17.1229C17.1254 17.5913 16.769 18.0356 16.2892 18.0356L15.1014 18.0356C14.6054 18.0356 14.246 17.5628 14.3788 17.0849L14.7161 15.8706C14.8062 15.546 15.1018 15.3214 15.4387 15.3214L16.0193 15.3214C16.3708 15.3214 16.6752 15.5655 16.7514 15.9087L17.0213 17.1229Z" stroke="white" stroke-width="0.5"/>
<path d="M15.75 18.2856V25.4285" stroke="white" stroke-width="0.5" stroke-linecap="round"/>
<path d="M14.5 25.4286C14.625 25.4286 16.2188 25.4286 17 25.4286" stroke="white" stroke-width="0.5" stroke-linecap="square"/>
<path d="M44.7031 14.1406C44.7109 15.6797 45.7812 17.2344 47.5625 17.9062L46.9219 18.8438C45.5859 18.3281 44.625 17.3359 44.125 16.1406C43.6172 17.4609 42.6172 18.6406 41.25 19.2344L40.5781 18.2812C42.4062 17.4844 43.5234 15.6875 43.5312 14.1406V12.25H44.7031V14.1406ZM43.1094 22.7656C43.0938 21.1953 44.875 20.2734 47.7656 20.2812C50.6406 20.2734 52.4297 21.1953 52.4375 22.7656C52.4297 24.3203 50.6406 25.2344 47.7656 25.2344C44.875 25.2344 43.0938 24.3203 43.1094 22.7656ZM44.3281 22.7656C44.3125 23.7109 45.6328 24.2891 47.7656 24.2812C49.875 24.2891 51.2031 23.7109 51.2188 22.7656C51.2031 21.8047 49.875 21.2266 47.7656 21.2188C45.6328 21.2266 44.3125 21.8047 44.3281 22.7656ZM48.1875 19.5312V11.6562H49.3438V15.125H51.1875V11.3906H52.3594V19.9688H51.1875V16.1406H49.3438V19.5312H48.1875ZM65.3944 11.375V14.9375H67.4725V15.9844H65.3944V19.5781H64.16V11.375H65.3944ZM54.4881 18.3281C55.5975 18.3281 56.8944 18.3281 58.2537 18.2891V17.4297C56.6209 17.2969 55.5897 16.6484 55.5975 15.5938C55.5897 14.4531 56.8709 13.7891 58.8475 13.7969C60.8241 13.7891 62.0975 14.4531 62.1131 15.5938C62.0975 16.6406 61.0897 17.2891 59.4725 17.4297V18.2422C60.7694 18.1797 62.0819 18.0781 63.3006 17.9062L63.41 18.7344C60.41 19.2266 57.0741 19.25 54.6287 19.25L54.4881 18.3281ZM54.8319 13.3281V12.4375H58.2537V11.25H59.4725V12.4375H62.8787V13.3281H54.8319ZM56.3475 21.0781V20.2031H65.3944V23H57.5975V24.2344H65.9256V25.1094H56.3787V22.1719H64.1756V21.0781H56.3475ZM56.7694 15.5938C56.7616 16.2188 57.5662 16.6172 58.8475 16.625C60.1287 16.6172 60.9412 16.2188 60.9412 15.5938C60.9412 14.9844 60.1287 14.6172 58.8475 14.6094C57.5662 14.6172 56.7616 14.9844 56.7694 15.5938Z" fill="white"/>
</svg>
