<svg width="98" height="98" viewBox="0 0 98 98" fill="none" xmlns="http://www.w3.org/2000/svg">
<path d="M68.2656 36.3333H67.1719V19.1111H39.8281V36.3333H38.7344V18.5556C38.7344 18.2222 38.9531 18 39.2812 18H67.7188C68.0469 18 68.2656 18.2222 68.2656 18.5556V36.3333Z" fill="#9A70E2"/>
<path d="M66.0781 35.2222C65.75 35.2222 65.5312 35 65.5312 34.6666V20.7777H41.4688V34.6666C41.4688 35 41.25 35.2222 40.9219 35.2222C40.5937 35.2222 40.375 35 40.375 34.6666V20.2222C40.375 19.8888 40.5937 19.6666 40.9219 19.6666H66.0781C66.4062 19.6666 66.625 19.8888 66.625 20.2222V34.6666C66.625 35 66.4062 35.2222 66.0781 35.2222Z" fill="#9A70E2"/>
<path d="M53.5 35.2222C53.1719 35.2222 52.9531 35 52.9531 34.6666V20.2222C52.9531 19.8888 53.1719 19.6666 53.5 19.6666C53.8281 19.6666 54.0469 19.8888 54.0469 20.2222V34.6666C54.0469 35 53.8281 35.2222 53.5 35.2222Z" fill="#9A70E2"/>
<path d="M60.0625 29.1111C58.5312 29.1111 57.3281 27.8889 57.3281 26.3333C57.3281 24.7778 58.5312 23.5555 60.0625 23.5555C61.5938 23.5555 62.7969 24.7778 62.7969 26.3333C62.7969 27.8889 61.5938 29.1111 60.0625 29.1111ZM60.0625 24.6667C59.1328 24.6667 58.4219 25.3889 58.4219 26.3333C58.4219 27.2778 59.1328 28 60.0625 28C60.9922 28 61.7031 27.2778 61.7031 26.3333C61.7031 25.3889 60.9922 24.6667 60.0625 24.6667Z" fill="#9A70E2"/>
<path d="M60.0625 22.9999C59.7344 22.9999 59.5156 22.7777 59.5156 22.4444V21.8888C59.5156 21.5555 59.7344 21.3333 60.0625 21.3333C60.3906 21.3333 60.6094 21.5555 60.6094 21.8888V22.4444C60.6094 22.7777 60.3906 22.9999 60.0625 22.9999Z" fill="#9A70E2"/>
<path d="M64.4375 26.8889H63.8906C63.5625 26.8889 63.3438 26.6667 63.3438 26.3334C63.3438 26.0001 63.5625 25.7778 63.8906 25.7778H64.4375C64.7656 25.7778 64.9844 26.0001 64.9844 26.3334C64.9844 26.6667 64.7656 26.8889 64.4375 26.8889Z" fill="#9A70E2"/>
<path d="M60.0625 31.3334C59.7344 31.3334 59.5156 31.1112 59.5156 30.7779V30.2223C59.5156 29.889 59.7344 29.6667 60.0625 29.6667C60.3906 29.6667 60.6094 29.889 60.6094 30.2223V30.7779C60.6094 31.1112 60.3906 31.3334 60.0625 31.3334Z" fill="#9A70E2"/>
<path d="M56.2344 26.8889H55.6875C55.3594 26.8889 55.1406 26.6667 55.1406 26.3334C55.1406 26.0001 55.3594 25.7778 55.6875 25.7778H56.2344C56.5625 25.7778 56.7812 26.0001 56.7812 26.3334C56.7812 26.6667 56.5625 26.8889 56.2344 26.8889Z" fill="#9A70E2"/>
<path d="M57.3281 24.1111C57.1641 24.1111 57.0547 24.0555 56.9453 23.9444L56.5625 23.5555C56.3438 23.3333 56.3438 23 56.5625 22.7778C56.7812 22.5555 57.1094 22.5555 57.3281 22.7778L57.7109 23.1666C57.9297 23.3889 57.9297 23.7222 57.7109 23.9444C57.6563 24.1111 57.4922 24.1111 57.3281 24.1111Z" fill="#9A70E2"/>
<path d="M62.7969 24.1111C62.6328 24.1111 62.5234 24.0555 62.4141 23.9444C62.1953 23.7222 62.1953 23.3889 62.4141 23.1666L62.7969 22.7778C63.0156 22.5555 63.3438 22.5555 63.5625 22.7778C63.7813 23 63.7813 23.3333 63.5625 23.5555L63.1797 23.9444C63.0703 24.1111 62.9063 24.1111 62.7969 24.1111Z" fill="#9A70E2"/>
<path d="M63.1797 30.0555C63.0156 30.0555 62.9063 30 62.7969 29.8889L62.4141 29.5C62.1953 29.2778 62.1953 28.9444 62.4141 28.7222C62.6328 28.5 62.9609 28.5 63.1797 28.7222L63.5625 29.1111C63.7813 29.3333 63.7813 29.6667 63.5625 29.8889C63.4531 30 63.2891 30.0555 63.1797 30.0555Z" fill="#9A70E2"/>
<path d="M56.9453 30.0555C56.7813 30.0555 56.6719 30 56.5625 29.8889C56.3438 29.6667 56.3438 29.3333 56.5625 29.1111L56.9453 28.7222C57.1641 28.5 57.4922 28.5 57.7109 28.7222C57.9297 28.9444 57.9297 29.2778 57.7109 29.5L57.3281 29.8889C57.2734 30 57.1094 30.0555 56.9453 30.0555Z" fill="#9A70E2"/>
<path d="M45.8438 25.7778H43.6562C42.7266 25.7778 42.0156 25.0555 42.0156 24.1111C42.0156 23.1667 42.7266 22.4444 43.6562 22.4444H43.8203C44.2031 21.7222 45.0234 21.2222 45.8984 21.3333C47.0469 21.3333 48.0312 22.3333 48.0312 23.5556C48.0312 24.7778 47.0469 25.7778 45.8438 25.7778ZM43.6562 23.5556C43.3281 23.5556 43.1094 23.7778 43.1094 24.1111C43.1094 24.4444 43.3281 24.6667 43.6562 24.6667H45.8438C46.4453 24.6667 46.9375 24.1667 46.9375 23.5556C46.9375 22.9444 46.4453 22.4444 45.8438 22.4444C45.2969 22.3889 44.8594 22.7222 44.75 23.1667C44.6953 23.3889 44.4766 23.5556 44.2031 23.5556H43.6562Z" fill="#9A70E2"/>
<path d="M40.9219 52.4444H36.5469C36.2187 52.4444 36 52.2222 36 51.8889V41.8889C36 40.3333 37.2031 39.1111 38.7344 39.1111C40.2656 39.1111 41.4688 40.3333 41.4688 41.8889V51.8889C41.4688 52.2222 41.25 52.4444 40.9219 52.4444ZM37.0938 51.3333H40.375V41.8889C40.375 40.9444 39.6641 40.2222 38.7344 40.2222C37.8047 40.2222 37.0938 40.9444 37.0938 41.8889V51.3333Z" fill="#9A70E2"/>
<path d="M53.5 48.5556H40.9219C40.5937 48.5556 40.375 48.3333 40.375 48V45.5C40.375 44.1111 41.4688 43 42.8359 43H51.5859C52.2422 43 52.8438 43.2222 53.3359 43.7222C53.8281 44.1667 54.0469 44.8333 54.0469 45.5V48C54.0469 48.3333 53.8281 48.5556 53.5 48.5556ZM41.4688 47.4444H52.9531V45.5C52.9531 45.1111 52.7891 44.7778 52.5703 44.5C52.3516 44.2222 51.9688 44.1111 51.5859 44.1111H42.8359C42.0703 44.1111 41.4688 44.7222 41.4688 45.5V47.4444Z" fill="#9A70E2"/>
<path d="M66.0781 48.5556H54.0469C53.7187 48.5556 53.5 48.3333 53.5 48V45.4444C53.5 44.1111 54.5938 43 55.9063 43H64.2187C65.5312 43 66.625 44.1111 66.625 45.4444V48C66.625 48.3333 66.4062 48.5556 66.0781 48.5556ZM54.5938 47.4444H65.5312V45.4444C65.5312 44.7222 64.9297 44.1111 64.2187 44.1111H55.9063C55.1953 44.1111 54.5938 44.7222 54.5938 45.4444V47.4444Z" fill="#9A70E2"/>
<path d="M66.0781 51.8889H40.9219C40.5937 51.8889 40.375 51.6667 40.375 51.3333V48C40.375 47.6667 40.5937 47.4445 40.9219 47.4445H66.0781C66.4062 47.4445 66.625 47.6667 66.625 48V51.3333C66.625 51.6667 66.4062 51.8889 66.0781 51.8889ZM41.4688 50.7778H65.5312V48.5556H41.4688V50.7778Z" fill="#9A70E2"/>
<path d="M70.4531 52.4444H66.0781C65.75 52.4444 65.5312 52.2222 65.5312 51.8889V41.8889C65.5312 40.3333 66.7344 39.1111 68.2656 39.1111C69.7969 39.1111 71 40.3333 71 41.8889V51.8889C71 52.2222 70.7812 52.4444 70.4531 52.4444ZM66.625 51.3333H69.9062V41.8889C69.9062 40.9444 69.1953 40.2222 68.2656 40.2222C67.3359 40.2222 66.625 40.9444 66.625 41.8889V51.3333Z" fill="#9A70E2"/>
<path d="M68.2656 40.2222C67.9375 40.2222 67.7188 40 67.7188 39.6666V38C67.7188 36.4444 66.5156 35.2222 64.9844 35.2222H42.0156C40.4844 35.2222 39.2812 36.4444 39.2812 38V39.6666C39.2812 40 39.0625 40.2222 38.7344 40.2222C38.4062 40.2222 38.1875 40 38.1875 39.6666V38C38.1875 35.8333 39.8828 34.1111 42.0156 34.1111H64.9844C67.1172 34.1111 68.8125 35.8333 68.8125 38V39.6666C68.8125 40 68.5938 40.2222 68.2656 40.2222Z" fill="#9A70E2"/>
<path d="M52.4062 35.2223C52.1875 35.2223 51.9687 35.1112 51.914 34.889L49.1797 28.4445C49.125 28.2223 48.9609 28.1112 48.7969 28.0556C48.4687 27.9445 48.1406 28.1112 47.9765 28.4445L45.2422 34.889C45.1328 35.1667 44.8047 35.2779 44.5312 35.1667C44.2578 35.0556 44.1484 34.7223 44.2578 34.4445L46.9922 28.0001C47.3203 27.1112 48.3047 26.6667 49.1797 27.0001C49.6719 27.1667 50 27.5556 50.2187 28.0556L52.9531 34.4445C53.0625 34.7223 52.9531 35.0556 52.6797 35.1667C52.5703 35.2223 52.4609 35.2223 52.4062 35.2223Z" fill="#9A70E2"/>
<path d="M47.4843 33.5556C47.4296 33.5556 47.375 33.5556 47.3203 33.5001L45.6796 32.9445C45.4062 32.8334 45.2421 32.5556 45.3515 32.2223C45.4609 31.9445 45.7343 31.7778 46.0625 31.8889L47.375 32.3334L48.25 31.4445C48.4687 31.2223 48.7968 31.2223 49.0156 31.4445L49.7265 32.1667L50.4375 31.4445C50.6562 31.2223 50.9843 31.2223 51.2031 31.4445C51.4218 31.6667 51.4218 32.0001 51.2031 32.2223L50.1093 33.3334C49.8906 33.5556 49.5625 33.5556 49.3437 33.3334L48.5781 32.6667L47.8671 33.3889C47.7578 33.5001 47.6484 33.5556 47.4843 33.5556Z" fill="#9A70E2"/>
<path d="M41 52V54.5C41 54.7761 41.2239 55 41.5 55H43.5C43.7761 55 44 54.7761 44 54.5V52" stroke="#9A70E2" stroke-linecap="round"/>
<path d="M63 52V54.5C63 54.7761 63.2239 55 63.5 55H65.5C65.7761 55 66 54.7761 66 54.5V52" stroke="#9A70E2" stroke-linecap="round"/>
<path d="M35.7415 32.8915C35.8109 33.2038 35.5733 33.5 35.2534 33.5L27.3156 33.5C26.985 33.5 26.7454 33.1848 26.8339 32.8662L28.7783 25.8662C28.8384 25.6498 29.0355 25.5 29.2601 25.5L33.6978 25.5C33.9322 25.5 34.1351 25.6628 34.1859 25.8915L35.7415 32.8915Z" stroke="#9A70E2"/>
<path d="M31.5 34V54" stroke="#9A70E2" stroke-linecap="round"/>
<path d="M28 54C28.35 54 32.8125 54 35 54" stroke="#9A70E2" stroke-linecap="square"/>
<path d="M41.1152 76.373C41.1221 77.7197 42.0586 79.0801 43.6172 79.668L43.0566 80.4883C41.8877 80.0371 41.0469 79.1689 40.6094 78.123C40.165 79.2783 39.29 80.3105 38.0938 80.8301L37.5059 79.9961C39.1055 79.2988 40.083 77.7266 40.0898 76.373V74.7188H41.1152V76.373ZM39.7207 83.9199C39.707 82.5459 41.2656 81.7393 43.7949 81.7461C46.3105 81.7393 47.876 82.5459 47.8828 83.9199C47.876 85.2803 46.3105 86.0801 43.7949 86.0801C41.2656 86.0801 39.707 85.2803 39.7207 83.9199ZM40.7871 83.9199C40.7734 84.7471 41.9287 85.2529 43.7949 85.2461C45.6406 85.2529 46.8027 84.7471 46.8164 83.9199C46.8027 83.0791 45.6406 82.5732 43.7949 82.5664C41.9287 82.5732 40.7734 83.0791 40.7871 83.9199ZM44.1641 81.0898V74.1992H45.1758V77.2344H46.7891V73.9668H47.8145V81.4727H46.7891V78.123H45.1758V81.0898H44.1641ZM59.0801 73.9531V77.0703H60.8984V77.9863H59.0801V81.1309H58V73.9531H59.0801ZM49.5371 80.0371C50.5078 80.0371 51.6426 80.0371 52.832 80.0029V79.251C51.4033 79.1348 50.501 78.5674 50.5078 77.6445C50.501 76.6465 51.6221 76.0654 53.3516 76.0723C55.0811 76.0654 56.1953 76.6465 56.209 77.6445C56.1953 78.5605 55.3135 79.1279 53.8984 79.251V79.9619C55.0332 79.9072 56.1816 79.8184 57.248 79.668L57.3438 80.3926C54.7188 80.8232 51.7998 80.8438 49.6602 80.8438L49.5371 80.0371ZM49.8379 75.6621V74.8828H52.832V73.8438H53.8984V74.8828H56.8789V75.6621H49.8379ZM51.1641 82.4434V81.6777H59.0801V84.125H52.2578V85.2051H59.5449V85.9707H51.1914V83.4004H58.0137V82.4434H51.1641ZM51.5332 77.6445C51.5264 78.1914 52.2305 78.54 53.3516 78.5469C54.4727 78.54 55.1836 78.1914 55.1836 77.6445C55.1836 77.1113 54.4727 76.79 53.3516 76.7832C52.2305 76.79 51.5264 77.1113 51.5332 77.6445Z" fill="#9A70E2"/>
</svg>
