<svg width="24" height="24" viewBox="0 0 24 24" fill="none" xmlns="http://www.w3.org/2000/svg">
<path d="M6.29185 6.31779C6.47896 6.13131 6.7326 6.02656 6.99705 6.02656C7.2615 6.02656 7.51514 6.13131 7.70225 6.31779L11.9867 10.5932L16.2711 6.31779C16.3931 6.18671 16.5483 6.09088 16.7202 6.04041C16.8922 5.98994 17.0746 5.98668 17.2483 6.031C17.422 6.07531 17.5805 6.16554 17.707 6.29219C17.8336 6.41884 17.9237 6.57722 17.9676 6.75064C18.0121 6.92375 18.009 7.10561 17.9586 7.27711C17.9083 7.44861 17.8126 7.6034 17.6815 7.72521L13.3971 12.0006L17.6815 16.276C17.8129 16.3977 17.9089 16.5525 17.9595 16.7241C18.0101 16.8957 18.0133 17.0778 17.9689 17.2511C17.9245 17.4244 17.8341 17.5825 17.7072 17.7089C17.5803 17.8352 17.4216 17.925 17.2478 17.9689C17.0743 18.0132 16.892 18.0101 16.7202 17.9599C16.5483 17.9097 16.3932 17.8141 16.2711 17.6834L11.9867 13.408L7.70225 17.6834C7.51296 17.8592 7.26275 17.9549 7.00419 17.9505C6.74564 17.946 6.49889 17.8417 6.3158 17.6595C6.13319 17.4768 6.02866 17.2306 6.0242 16.9726C6.01973 16.7145 6.11567 16.4649 6.29185 16.276L10.5763 12.0006L6.29185 7.72521C6.10497 7.5385 6 7.2854 6 7.0215C6 6.75761 6.10497 6.50451 6.29185 6.31779Z" fill="black"/>
</svg>
