<svg width="24" height="24" viewBox="0 0 24 24" fill="none" xmlns="http://www.w3.org/2000/svg">
<circle cx="12" cy="12" r="12" fill="#9A70E2"/>
<path d="M7.24321 7.26483C7.39913 7.10942 7.6105 7.02213 7.83088 7.02213C8.05125 7.02213 8.26262 7.10942 8.41854 7.26483L11.9889 10.8276L15.5593 7.26483C15.6609 7.15559 15.7902 7.07574 15.9335 7.03368C16.0768 6.99161 16.2289 6.9889 16.3736 7.02583C16.5183 7.06276 16.6504 7.13795 16.7559 7.24349C16.8614 7.34904 16.9364 7.48102 16.973 7.62553C17.0101 7.76979 17.0075 7.92135 16.9655 8.06426C16.9236 8.20717 16.8438 8.33617 16.7346 8.43768L13.1642 12.0005L16.7346 15.5633C16.8441 15.6647 16.9241 15.7938 16.9663 15.9368C17.0084 16.0798 17.0111 16.2315 16.9741 16.3759C16.9371 16.5203 16.8618 16.6521 16.756 16.7574C16.6502 16.8626 16.518 16.9375 16.3731 16.9741C16.2286 17.011 16.0767 17.0084 15.9335 16.9666C15.7903 16.9247 15.661 16.8451 15.5593 16.7362L11.9889 13.1733L8.41854 16.7362C8.2608 16.8827 8.05229 16.9624 7.83683 16.9587C7.62137 16.955 7.41574 16.8681 7.26316 16.7162C7.11099 16.564 7.02389 16.3588 7.02016 16.1438C7.01644 15.9288 7.09639 15.7207 7.24321 15.5633L10.8136 12.0005L7.24321 8.43768C7.08747 8.28208 7 8.07116 7 7.85125C7 7.63134 7.08747 7.42042 7.24321 7.26483Z" fill="white"/>
</svg>
