<svg width="24" height="24" viewBox="0 0 24 24" fill="none" xmlns="http://www.w3.org/2000/svg">
<path d="M4 2.6V21.4C4 21.4788 4.01552 21.5568 4.04567 21.6296C4.07583 21.7024 4.12002 21.7685 4.17574 21.8243C4.23145 21.88 4.29759 21.9242 4.37039 21.9543C4.44319 21.9845 4.52121 22 4.6 22H19.4C19.4788 22 19.5568 21.9845 19.6296 21.9543C19.7024 21.9242 19.7685 21.88 19.8243 21.8243C19.88 21.7685 19.9242 21.7024 19.9543 21.6296C19.9845 21.5568 20 21.4788 20 21.4V5.75C20.0002 5.6709 19.9847 5.59254 19.9545 5.51943C19.9243 5.44632 19.88 5.3799 19.824 5.324L16.676 2.176C16.5636 2.06345 16.4111 2.00014 16.252 2H4.6C4.44087 2 4.28826 2.06321 4.17574 2.17574C4.06321 2.28826 4 2.44087 4 2.6Z" fill="#212529"/>
<path d="M8 10H16M8 14H12M8 18H16" stroke="white" stroke-width="1.5" stroke-linecap="round"/>
<path d="M16 2V5.4C16 5.55913 16.0632 5.71174 16.1757 5.82426C16.2883 5.93679 16.4409 6 16.6 6H20" fill="#212529"/>
<path d="M16 2V5.4C16 5.55913 16.0632 5.71174 16.1757 5.82426C16.2883 5.93679 16.4409 6 16.6 6H20" stroke="white" stroke-width="1.5" stroke-linecap="round" stroke-linejoin="round"/>
</svg>
