<svg width="47" height="32" viewBox="0 0 47 32" fill="none" xmlns="http://www.w3.org/2000/svg">
<path d="M7.2612 30.4799C6.72857 30.0295 6.317 29.4987 6.02648 28.8874C5.73596 28.2923 5.59069 27.6569 5.59069 26.9813C5.59069 26.3057 5.73596 25.6703 6.02648 25.0751C6.317 24.4639 6.72857 23.925 7.2612 23.4585C7.79382 22.992 8.43136 22.6221 9.17381 22.3486C9.93239 22.0752 10.7717 21.9384 11.6917 21.9384C12.6117 21.9384 13.4429 22.0752 14.1853 22.3486C14.9278 22.6221 15.5653 22.992 16.0979 23.4585C16.6305 23.925 17.034 24.4639 17.3084 25.0751C17.599 25.6703 17.7442 26.3057 17.7442 26.9813C17.7442 27.6569 17.599 28.2923 17.3084 28.8874C17.034 29.4987 16.6305 30.0295 16.0979 30.4799C15.5653 30.9464 14.9278 31.3164 14.1853 31.5898C13.4429 31.8633 12.6117 32 11.6917 32C10.7717 32 9.93239 31.8633 9.17381 31.5898C8.43136 31.3164 7.79382 30.9464 7.2612 30.4799ZM9.48854 26.9813C9.48854 27.5121 9.69836 27.9625 10.118 28.3325C10.5538 28.7185 11.159 28.9116 11.9338 28.9116C12.7085 28.9116 13.3057 28.7185 13.7253 28.3325C14.145 27.9625 14.3548 27.5121 14.3548 26.9813C14.3548 26.4505 14.145 26.0001 13.7253 25.6301C13.3057 25.244 12.7085 25.051 11.9338 25.051C11.159 25.051 10.5538 25.244 10.118 25.6301C9.69836 26.0001 9.48854 26.4505 9.48854 26.9813ZM15.2021 22.0591C14.7179 22.0591 14.4758 21.8178 14.4758 21.3352L14.4032 16.968H11.9822C11.7239 16.968 11.5141 16.8956 11.3527 16.7508C11.2075 16.59 11.1348 16.3808 11.1348 16.1235V14.2414C11.1348 13.9841 11.2075 13.783 11.3527 13.6382C11.5141 13.4774 11.7239 13.397 11.9822 13.397H14.3548L14.3306 10.1637C14.3306 9.68117 14.5646 9.43988 15.0327 9.43988H17.9863C18.4705 9.43988 18.7046 9.68117 18.6884 10.1637L18.4463 21.3352C18.414 21.8178 18.1719 22.0591 17.72 22.0591H15.2021ZM0.119189 20.1047C-0.00993241 19.8795 -0.0341426 19.6623 0.0465581 19.4532C0.143399 19.2441 0.32901 19.0752 0.603393 18.9465C3.2988 17.7401 5.12263 16.0833 6.0749 13.976H1.78969C1.49917 13.976 1.26514 13.8876 1.0876 13.7106C0.910055 13.5337 0.821285 13.3004 0.821285 13.0109V11.6114C0.821285 11.3219 0.910055 11.0887 1.0876 10.9117C1.26514 10.7348 1.49917 10.6463 1.78969 10.6463H4.1865L4.47703 8.66777C4.55773 8.15303 4.87246 7.93587 5.42122 8.0163L7.38225 8.28172C7.94715 8.36214 8.16505 8.68386 8.03592 9.24685L7.7454 10.6463H9.6338C10.1341 10.6463 10.5054 10.7911 10.7475 11.0806C10.9896 11.3541 11.0622 11.7401 10.9654 12.2388C10.8201 13.0109 10.5861 13.7589 10.2633 14.4827C9.9566 15.1905 9.56924 15.8661 9.10117 16.5095C9.66608 16.8795 10.2229 17.1932 10.7717 17.4505C11.3204 17.7079 11.8773 17.9492 12.4422 18.1744C12.9748 18.3835 13.1039 18.7374 12.8295 19.236L11.8853 20.8526C11.7562 21.0939 11.5948 21.2307 11.4011 21.2628C11.2236 21.2789 11.0299 21.2467 10.8201 21.1663C10.1099 20.8768 9.44012 20.547 8.81065 20.177C8.19733 19.791 7.59207 19.3326 6.99489 18.8017C5.62297 20.0082 3.97668 20.9652 2.05601 21.673C1.7332 21.8017 1.46689 21.8258 1.25707 21.7454C1.04725 21.665 0.877775 21.5122 0.748654 21.287L0.119189 20.1047Z" fill="#9A70E2"/>
<path d="M35.6811 28.6944C35.1969 28.6944 34.9548 28.4531 34.9548 27.9705V10.8876C34.9548 10.405 35.1889 10.1637 35.6569 10.1637H38.6106C39.0948 10.1637 39.3288 10.405 39.3127 10.8876L39.119 16.6302L41.1526 16.606C41.4109 16.606 41.6126 16.6865 41.7579 16.8473C41.9193 16.9921 42 17.1932 42 17.4505V19.4291C42 19.6864 41.9193 19.8956 41.7579 20.0564C41.6126 20.2012 41.4109 20.2736 41.1526 20.2736L39.0221 20.3218L38.78 27.9705C38.78 28.4531 38.5379 28.6944 38.0537 28.6944H35.6811ZM23.3824 25.4129C22.8982 24.9625 22.5189 24.4237 22.2445 23.7963C21.9862 23.169 21.8571 22.4773 21.8571 21.7213C21.8571 20.9652 21.9862 20.2736 22.2445 19.6462C22.5189 19.0028 22.8982 18.4559 23.3824 18.0055C23.8827 17.539 24.4718 17.1771 25.1497 16.9197C25.8437 16.6623 26.6023 16.5337 27.4255 16.5337C28.2486 16.5337 28.9991 16.6623 29.677 16.9197C30.3549 17.1771 30.9359 17.539 31.4201 18.0055C31.9043 18.4559 32.2756 19.0028 32.5338 19.6462C32.8082 20.2736 32.9454 20.9652 32.9454 21.7213C32.9454 22.4773 32.8082 23.169 32.5338 23.7963C32.2756 24.4237 31.9043 24.9625 31.4201 25.4129C30.9359 25.8633 30.3549 26.2092 29.677 26.4505C28.9991 26.6917 28.2486 26.8124 27.4255 26.8124C26.6023 26.8124 25.8437 26.6917 25.1497 26.4505C24.4718 26.2092 23.8827 25.8633 23.3824 25.4129ZM21.6876 15.8822C21.4617 15.8822 21.2841 15.8178 21.155 15.6892C21.0259 15.5605 20.9613 15.3835 20.9613 15.1583V13.0833C20.9613 12.8581 21.0259 12.6811 21.155 12.5525C21.2841 12.4238 21.4617 12.3594 21.6876 12.3594H25.2708L25.5855 9.87419C25.6662 9.34337 25.9809 9.12621 26.5297 9.22273L29.217 9.72942C29.7658 9.82594 29.9837 10.1477 29.8707 10.6946L29.5317 12.3353H33.0906C33.4941 12.3353 33.6959 12.5364 33.6959 12.9385V14.9894C33.6959 15.3916 33.4941 15.5926 33.0906 15.5926L21.6876 15.8822ZM25.5371 21.7213C25.5371 22.3325 25.7307 22.8151 26.1181 23.169C26.5216 23.5229 27.0542 23.6998 27.716 23.6998C28.3454 23.6998 28.8539 23.5229 29.2412 23.169C29.6447 22.8151 29.8465 22.3325 29.8465 21.7213C29.8465 21.11 29.6447 20.6274 29.2412 20.2736C28.8539 19.9197 28.3454 19.7427 27.716 19.7427C27.0542 19.7427 26.5216 19.9197 26.1181 20.2736C25.7307 20.6274 25.5371 21.11 25.5371 21.7213Z" fill="#9A70E2"/>
<path d="M38.75 8C37.9917 8 37.3438 7.7375 36.8065 7.2125C36.2692 6.6875 36.0003 6.04583 36 5.2875C36 4.6375 36.1958 4.05833 36.5875 3.55C36.9792 3.04167 37.4917 2.71667 38.125 2.575C38.3333 1.80833 38.75 1.1875 39.375 0.7125C40 0.2375 40.7083 0 41.5 0C42.475 0 43.3022 0.339667 43.9815 1.019C44.6608 1.69833 45.0003 2.52533 45 3.5C45.575 3.56667 46.0522 3.81467 46.4315 4.244C46.8108 4.67333 47.0003 5.17533 47 5.75C47 6.375 46.7813 6.90633 46.344 7.344C45.9067 7.78167 45.3753 8.00033 44.75 8H38.75Z" fill="#9A70E2"/>
</svg>
