<svg width="98" height="98" viewBox="0 0 98 98" fill="none" xmlns="http://www.w3.org/2000/svg">
<path d="M43.6698 27.0256C42.9382 27.0256 42.3634 26.4615 42.3634 25.7436C42.3634 25.0256 42.9382 24.4615 43.6698 24.4615H44.5059H48.4252H50.7767H54.905H55.5321C56.2637 24.4615 56.8385 25.0256 56.8385 25.7436C56.8385 26.4615 56.2637 27.0256 55.5321 27.0256H54.905H53.6508H45.4988H44.5059H43.6698ZM33.8979 37.2821H41.9454H47.4323H55.4798C56.2114 37.2821 56.7862 36.7179 56.7862 36C56.7862 35.2821 56.2114 34.7179 55.4798 34.7179H49.7316H47.4323H42.0499H39.2803H33.8979C33.1663 34.7179 32.5914 35.2821 32.5914 36C32.5914 36.7179 33.2185 37.2821 33.8979 37.2821ZM32.5914 30.8718C32.5914 31.5897 33.1663 32.1538 33.8979 32.1538H39.2803H42.5724H46.8052H49.6793H55.4798C56.2114 32.1538 56.7862 31.5897 56.7862 30.8718C56.7862 30.1538 56.2114 29.5897 55.4798 29.5897H45.7601H43.7221H33.8979C33.2185 29.5897 32.5914 30.1538 32.5914 30.8718ZM50.3064 42.4103C50.829 41.4872 51.4561 40.6154 52.1876 39.8462H47.0665H42.3634H33.8979C33.1663 39.8462 32.5914 40.4103 32.5914 41.1282C32.5914 41.8462 33.1663 42.4103 33.8979 42.4103H39.2803H43.2518H46.1781H49.7316H50.3064ZM33.8979 47.5385H42.2067H47.2755H48.8432C48.8955 46.6667 49.0523 45.7949 49.2613 44.9744H44.8195H44.6627H33.8979C33.1663 44.9744 32.5914 45.5385 32.5914 46.2564C32.5914 46.9744 33.2185 47.5385 33.8979 47.5385ZM33.7933 52.6667H49.5748C49.2613 51.8462 49 50.9744 48.8955 50.1026H33.7933C33.0618 50.1026 32.4869 50.6667 32.4869 51.3846C32.4869 52.1026 33.0618 52.6667 33.7933 52.6667ZM32.5392 58H53.6508C52.7102 57.2821 51.8219 56.4103 51.1425 55.4359H32.5392C30.9192 55.4359 29.6128 54.1538 29.6128 52.5641V26.1538H34.2637C37.2945 26.1538 39.8029 23.6923 39.8029 20.7179V16.5641H57.152C58.772 16.5641 60.0784 17.8462 60.0784 19.4359V22.359V36.0513C60.4964 36 60.9145 36 61.3325 36C61.8029 36 62.2209 36 62.6912 36.0513V23.2308V22.359V19.4359C62.6912 16.4103 60.2352 14 57.152 14H38.9667C38.6532 14 38.3397 14.0513 38.0261 14.1538C37.7126 14.2564 37.4513 14.4615 37.2423 14.6667L27.7316 23.641C27.4703 23.8462 27.3135 24.1538 27.1568 24.4615C27.0523 24.7179 27 25.0769 27 25.3846V52.5641C27 55.5385 29.4561 58 32.5392 58ZM61.2803 38.7692C66.6627 38.7692 71 43.0256 71 48.3077C71 53.5897 66.6627 57.8461 61.2803 57.8461C55.8979 57.8461 51.5606 53.5897 51.5606 48.3077C51.5606 43.0256 55.9501 38.7692 61.2803 38.7692ZM63.5796 52.5641C63.4228 52.6154 63.266 52.7179 63.1093 52.7692C62.9002 52.8205 62.7435 52.9231 62.5344 52.9231C62.2732 52.9744 62.1164 52.8205 62.0641 52.5641C62.0119 52.4103 62.0119 52.2051 62.0119 52.0513C62.0641 51.6923 62.1164 51.3333 62.2209 50.9231C62.4299 49.7949 62.639 48.7179 62.848 47.5897C62.9002 47.2821 62.9525 46.9744 62.9525 46.6667C62.9525 46.3077 62.7435 46.1538 62.3777 46.1538C61.8551 46.1538 61.3325 46.1538 60.81 46.1538C60.3397 46.1538 59.8171 46.1538 59.3468 46.1538C59.2423 46.1538 59.0855 46.1538 58.981 46.2051C58.772 46.2564 58.6675 46.359 58.6152 46.5128C58.6152 46.6667 58.6675 46.8205 58.8765 46.9231C59.0333 46.9744 59.2423 46.9744 59.3991 47.0256C59.8171 47.0769 59.9216 47.2308 59.9216 47.641C59.9216 47.6923 59.9216 47.7436 59.9216 47.8462C59.7648 48.8205 59.5558 49.7949 59.3991 50.7692C59.2945 51.3333 59.2423 51.8974 59.1378 52.4615C59.0333 53.282 59.8171 54.0513 60.4442 54.1538C60.81 54.2051 61.228 54.2051 61.5938 54.2051C62.4299 54.2051 63.1093 53.8461 63.6841 53.282C63.7886 53.1795 63.8931 53.0256 63.8931 52.9231C64.0499 52.6667 63.8409 52.5128 63.5796 52.5641ZM61.6983 42.4103C60.81 42.4103 60.1306 43.0769 60.0784 43.9487C60.0784 44.8205 60.7577 45.5385 61.6461 45.5385C62.4822 45.5385 63.2138 44.8205 63.2138 44C63.266 43.0769 62.5867 42.4103 61.6983 42.4103Z" fill="#A7A7A7"/>
<path d="M47.5684 73.9531V81.1992H46.4883V78.0137H44.041V77.125H46.4883V73.9531H47.5684ZM37.5469 80.2285C39.3516 79.5791 40.6367 77.9316 40.6367 76.1953V75.7441H37.8887V74.8418H44.4375V75.7441H41.7168V76.1816C41.7168 77.7676 42.9336 79.2783 44.7109 79.8867L44.1504 80.748C42.79 80.2559 41.7305 79.2305 41.2041 77.9795C40.6846 79.4014 39.5566 80.5361 38.1074 81.0898L37.5469 80.2285ZM39.4609 83.8379C39.4541 82.4092 41.0059 81.5752 43.5352 81.582C46.0576 81.5752 47.6094 82.4092 47.6094 83.8379C47.6094 85.2734 46.0576 86.0938 43.5352 86.1074C41.0059 86.0938 39.4541 85.2734 39.4609 83.8379ZM40.5273 83.8379C40.5205 84.7197 41.6689 85.2529 43.5352 85.2461C45.3945 85.2529 46.543 84.7197 46.543 83.8379C46.543 82.9492 45.3945 82.416 43.5352 82.416C41.6689 82.416 40.5205 82.9492 40.5273 83.8379ZM60.7207 83.6602V84.5488H49.5918V83.6602H54.5957V81.0352H50.9043V74.8145H51.9844V77.0156H58.3008V74.8145H59.3535V81.0352H55.6484V83.6602H60.7207ZM51.9844 80.1602H58.3008V77.8906H51.9844V80.1602Z" fill="#A7A7A7"/>
</svg>
