<svg width="98" height="98" viewBox="0 0 98 98" fill="none" xmlns="http://www.w3.org/2000/svg">
<path fill-rule="evenodd" clip-rule="evenodd" d="M49.9265 53.4475C52.46 55.5112 55.6667 56.7445 59.1543 56.7445C61.34 56.7445 63.4158 56.259 65.2854 55.3892L71.7837 57.9999L70.2008 51.6916C72.5633 48.9973 74 45.4356 74 41.5289C74 36.6955 71.7996 32.3905 68.372 29.6034C68.5023 30.5626 68.5714 31.5416 68.5714 32.538C68.5714 43.4962 60.3769 52.4941 49.9265 53.4475Z" fill="#9A70E2"/>
<path d="M35.5986 45.1634L35.7262 44.655L35.3806 44.2608C32.6581 41.1552 31 37.0481 31 32.5381C31 22.8289 38.6735 15 48.0875 15C57.5002 15 65.1738 22.8288 65.1738 32.5381C65.1738 42.2461 57.5003 50.075 48.0875 50.075C45.5731 50.075 43.1877 49.5173 41.0387 48.518L40.6461 48.3354L40.2443 48.4968L34.1475 50.9455L35.5986 45.1634Z" stroke="#9A70E2" stroke-width="2"/>
<path fill-rule="evenodd" clip-rule="evenodd" d="M44.3635 21.1612C46.4983 20.2763 48.9367 19.907 51.0918 20.9336C53.0509 21.8649 54.2656 23.7428 54.363 25.9516C54.4786 28.5646 53.0113 30.8918 51.0284 32.3992C50.6964 32.6826 50.4765 33.0229 50.3372 33.4398C50.2012 33.852 50.3462 34.2713 50.3383 34.6963C50.3156 35.7937 49.4307 36.6671 48.3588 36.6462C47.288 36.6252 46.4337 35.7159 46.4564 34.6173C46.4756 33.6697 46.3408 33.103 46.6558 32.1577C47.0841 30.8709 47.6971 30.0987 48.7055 29.2091C49.6358 28.5019 50.5377 27.3823 50.4811 26.1258C50.4505 25.4232 50.0868 24.8472 49.4624 24.5511C48.3259 24.0111 46.9492 24.3885 45.849 24.8542C43.5443 25.8273 42.0385 22.1239 44.3635 21.1612ZM48.1628 38.6645C49.4828 38.6645 50.5502 39.7608 50.5502 41.1126C50.5502 42.4655 49.4828 43.5606 48.1628 43.5606C46.8427 43.5606 45.7742 42.4655 45.7742 41.1126C45.7742 39.7608 46.8427 38.6645 48.1628 38.6645Z" fill="#9A70E2"/>
<path d="M47.5137 73.9531V80.2695H46.4609V73.9531H47.5137ZM37.6699 79.4355C39.4814 78.834 40.7803 77.3438 40.7871 75.6758V75.5391H37.9434V74.6504H44.6699V75.5391H41.8672V75.6758C41.874 77.2549 43.166 78.6494 44.998 79.1895L44.4648 80.0234C43.0293 79.5723 41.8877 78.6084 41.3477 77.3643C40.8213 78.7246 39.6592 79.7842 38.1758 80.2832L37.6699 79.4355ZM39.625 81.7051V80.8574H47.5273V83.7559H40.7051V85.1094H47.9648V85.9707H39.6523V82.9492H46.4609V81.7051H39.625ZM60.707 80.1738V81.0625H55.7578V83.5508H54.6914V81.0625H49.5781V80.1738H60.707ZM51 85.8477V82.3477H52.0801V84.9453H59.4629V85.8477H51ZM51.0273 78.7793V74.5547H59.2578V78.7793H51.0273ZM52.0801 77.918H58.1914V75.4023H52.0801V77.918Z" fill="#9A70E2"/>
</svg>
