<svg width="24" height="24" viewBox="0 0 24 24" fill="none" xmlns="http://www.w3.org/2000/svg">
<path fill-rule="evenodd" clip-rule="evenodd" d="M21.6746 21.6873C21.8829 21.4871 22 21.2155 22 20.9323V9.71132C22.0001 9.54863 21.9615 9.38806 21.8872 9.24188C21.8129 9.0957 21.7048 8.96777 21.5711 8.86788L12.6822 2.22495C12.4872 2.07915 12.2471 2 12 2C11.7529 2 11.5128 2.07915 11.3178 2.22495L2.42889 8.86788C2.29524 8.96777 2.18713 9.0957 2.1128 9.24188C2.03846 9.38806 1.99988 9.54863 2 9.71132V20.9323C2 21.2155 2.11706 21.4871 2.32544 21.6873C2.53381 21.8875 2.81643 22 3.11111 22H20.8889C21.1836 22 21.4662 21.8875 21.6746 21.6873ZM12.0003 13.5789C10.1594 13.5789 8.66699 15.0713 8.66699 16.9123V22H15.3337V16.9123C15.3337 15.0713 13.8413 13.5789 12.0003 13.5789Z" fill="#212529"/>
</svg>
