<svg width="27" height="25" viewBox="0 0 27 25" fill="none" xmlns="http://www.w3.org/2000/svg">
<path fill-rule="evenodd" clip-rule="evenodd" d="M15.129 20.9023L14.587 21.8183C14.104 22.6343 12.897 22.6343 12.413 21.8183L11.871 20.9023C11.451 20.1923 11.241 19.8363 10.903 19.6403C10.565 19.4433 10.14 19.4363 9.29 19.4213C8.034 19.4003 7.247 19.3233 6.587 19.0493C5.98037 18.798 5.42917 18.4297 4.96487 17.9654C4.50057 17.5011 4.13227 16.9499 3.881 16.3433C3.5 15.4253 3.5 14.2603 3.5 11.9303V10.9303C3.5 7.6573 3.5 6.0203 4.237 4.8183C4.64904 4.1455 5.21445 3.57975 5.887 3.1673C7.09 2.4303 8.728 2.4303 12 2.4303H15C18.273 2.4303 19.91 2.4303 21.113 3.1673C21.7854 3.57946 22.3508 4.14486 22.763 4.8173C23.5 6.0203 23.5 7.6583 23.5 10.9303V11.9303C23.5 14.2603 23.5 15.4253 23.12 16.3433C22.8686 16.95 22.5002 17.5013 22.0357 17.9656C21.5712 18.4299 21.0198 18.7981 20.413 19.0493C19.753 19.3233 18.966 19.3993 17.71 19.4213C16.86 19.4363 16.435 19.4433 16.097 19.6403C15.759 19.8363 15.549 20.1913 15.129 20.9023Z" fill="black"/>
<path d="M9.5 9.4303H17.5M9.5 13.4303H14.5" stroke="white" stroke-width="1.5" stroke-linecap="round"/>
</svg>
