<svg width="57" height="57" viewBox="0 0 57 57" fill="none" xmlns="http://www.w3.org/2000/svg">
<rect width="57" height="57" rx="5" fill="#E8E8FC"/>
<path d="M13.757 20.1796H13.7406C13.6432 21.5585 12.6178 21.5797 12.6178 21.5797C12.6178 21.5797 13.7486 21.6019 13.7486 23.1951C13.7486 21.6019 14.8794 21.5797 14.8794 21.5797C14.8794 21.5797 13.8543 21.5585 13.757 20.1796ZM33.6194 8.83525H33.6034C33.5083 10.2381 32.5067 10.2597 32.5067 10.2597C32.5067 10.2597 33.6112 10.2821 33.6112 11.9031C33.6112 10.2821 34.7156 10.2597 34.7156 10.2597C34.7156 10.2597 33.7145 10.2381 33.6194 8.83525ZM49.5166 14.3646H49.5005C49.4055 15.7675 48.4039 15.789 48.4039 15.789C48.4039 15.789 49.5084 15.8115 49.5084 17.4325C49.5084 15.8115 50.6128 15.789 50.6128 15.789C50.6128 15.789 49.6116 15.7675 49.5166 14.3646ZM10.5402 31.8097H10.5241C10.4291 33.2126 9.42749 33.2341 9.42749 33.2341C9.42749 33.2341 10.5319 33.2566 10.5319 34.8776C10.5319 33.2566 11.6364 33.2341 11.6364 33.2341C11.6364 33.2341 10.6352 33.2126 10.5402 31.8097ZM38.3554 18.1118H38.3433C38.2723 19.16 37.524 19.1761 37.524 19.1761C37.524 19.1761 38.3492 19.1929 38.3492 20.404C38.3492 19.1929 39.1744 19.1761 39.1744 19.1761C39.1744 19.1761 38.4264 19.16 38.3554 18.1118Z" fill="#E1E4E5"/>
<path d="M45.2125 48.4974H14.983C13.8285 48.4974 12.8923 47.7482 12.8923 46.8244V45.8297C12.8923 44.9055 13.8285 44.1568 14.983 44.1568H45.212C43.8291 45.3663 43.8055 47.215 45.1562 48.4473L45.2125 48.4974Z" fill="#31446C"/>
<path d="M44.7457 44.6533H27.9792C26.8247 44.6533 25.8884 45.4024 25.8884 46.3266C25.8884 47.2504 26.8242 47.9995 27.9792 47.9995H44.7471C43.9633 46.9733 43.9652 45.677 44.7457 44.6533Z" fill="url(#paint0_linear_3859_7455)"/>
<path d="M38.3657 41.1411C38.4094 41.0776 38.3426 41.0038 38.2411 41.0038H22.2459C20.9924 41.0038 19.9758 41.7094 19.9758 42.5802C19.9758 43.4506 20.9924 44.1567 22.2459 44.1567H38.2454C38.3473 44.1567 38.4147 44.0825 38.3699 44.0186C37.7367 43.1075 37.7386 42.0481 38.3657 41.1411Z" fill="#9A70E2"/>
<path d="M38.2649 41.2972H30.3375C28.866 41.2972 27.6731 41.8886 27.6731 42.618C27.6731 43.3474 28.866 43.9388 30.3375 43.9388H38.3168C37.7716 43.0984 37.7566 42.1413 38.2649 41.2972Z" fill="url(#paint1_linear_3859_7455)"/>
<path d="M35.9375 40.89H26.631C25.8058 40.89 25.1365 40.2774 25.1365 39.5216C25.1365 38.7659 25.8053 38.1533 26.631 38.1533H35.9379C35.2268 38.912 35.1989 40.0247 35.8716 40.8124L35.9375 40.89Z" fill="url(#paint2_linear_3859_7455)"/>
<path d="M25.1373 39.5206C25.1373 38.7648 25.8221 38.1523 26.667 38.1523H36.1148C36.1591 38.1523 36.1946 38.12 36.1941 38.0807C36.1936 38.0417 36.1586 38.0105 36.1148 38.0105H21.127C20.1946 38.0105 19.4387 38.6866 19.4387 39.5209C19.4387 40.355 20.1946 41.0314 21.127 41.0314H36.1148C36.1581 41.0314 36.1936 40.9999 36.1941 40.9612C36.1946 40.9219 36.1591 40.8896 36.1148 40.8896H26.667C25.8221 40.8888 25.1373 40.2764 25.1373 39.5206Z" fill="#31446C"/>
<path d="M41.5103 35.0762H17.6963C16.9568 35.0762 16.3572 35.5389 16.3572 36.1095V36.9785C16.3572 37.549 16.9568 38.0117 17.6963 38.0117H41.5103L41.4978 38.0017C40.4788 37.1832 40.4842 35.8892 41.5103 35.0762Z" fill="#9A70E2"/>
<path d="M41.0886 35.5111H28.358C27.6184 35.5111 27.0188 35.9738 27.0188 36.5443C27.0188 37.115 27.6184 37.5777 28.358 37.5777H41.0881C40.6203 36.9376 40.6208 36.1504 41.0886 35.5111Z" fill="url(#paint3_linear_3859_7455)"/>
<path d="M39.9603 36.7173C40.7528 36.4495 41.4396 35.8793 41.8407 35.1479C41.9539 34.9462 42.0465 34.7145 42.016 34.4851C42.0083 34.4384 41.9964 34.3831 41.9544 34.3613C41.9166 34.3395 41.8655 34.3515 41.8229 34.3635C40.4994 34.7206 39.0999 35.3224 37.7107 35.2589C37.6471 35.258 37.5837 35.2527 37.5282 35.2774C37.46 35.306 37.4166 35.3689 37.3859 35.4362C37.2808 35.655 37.1898 36.0691 37.2242 36.3153C37.2664 36.6085 37.5497 36.6509 37.7988 36.7141C38.5081 36.8943 39.2532 36.9565 39.9603 36.7173Z" fill="#F8AE9D"/>
<path d="M40.0821 35.0744C40.1888 35.0294 40.2997 34.9844 40.4141 34.982C40.5286 34.9795 40.6548 35.0407 40.6913 35.1515C40.7156 35.2282 40.6932 35.3083 40.6624 35.3799C40.5791 35.5652 40.4326 35.7155 40.2781 35.8488C39.6856 36.3484 38.9266 36.6505 38.1502 36.698C37.8065 36.7182 37.4467 36.6874 37.144 36.5259C37.2951 36.3417 37.2652 36.0785 37.2815 35.8456C37.33 35.164 37.911 35.4229 38.3773 35.4214C38.9624 35.4091 39.5448 35.2951 40.0821 35.0744Z" fill="#F8AE9D"/>
<path d="M22.3487 30.0324L22.3221 30.1083C22.1359 30.648 21.9918 31.2052 21.9324 31.7765C21.8231 32.826 22.0291 34.0541 22.8186 34.8163C23.8713 35.8325 25.56 35.9896 26.9327 35.7476C27.4946 35.6494 28.0237 35.4143 28.4732 35.0632C28.9206 35.4684 29.4013 35.9123 29.8013 36.3634C30.6048 36.0823 31.3697 35.7009 32.0777 35.2282C33.7529 35.9953 35.4617 36.513 37.2658 36.8879C37.472 36.3749 37.6167 35.8393 37.6969 35.2923C37.711 35.2035 36.5866 34.4447 36.4568 34.3368C36.0676 34.0087 35.2567 33.259 35.2567 33.259C35.2567 33.259 36.2788 32.3887 36.7257 31.98C37.1987 31.5554 37.6524 31.1097 38.0854 30.6444C38.443 30.2599 38.7925 29.854 39.0117 29.3742C39.2309 28.8985 39.3115 28.3361 39.1283 27.8416C38.5498 26.3028 36.2146 26.8437 35.13 27.374C34.2332 27.8139 33.4479 28.4547 32.692 29.1044C32.3871 29.3625 32.0864 29.6293 31.79 29.8918C31.5563 29.6508 31.2982 29.3375 31.0775 29.0842C30.84 28.8093 30.5685 28.5509 30.2403 28.389C29.8954 28.2142 29.5772 28.2391 29.2092 28.1869C29.0443 28.1632 28.884 28.1141 28.7233 28.0863C28.2414 27.9983 27.7314 28.0924 27.3081 28.3402C26.906 28.5757 26.5797 28.8548 26.1078 28.9451C25.5722 29.0471 24.9501 28.9868 24.4129 28.9151C23.9308 28.8485 23.4408 28.7392 22.9603 28.8337C22.7605 28.873 22.6843 29.1516 22.6182 29.3117C22.53 29.5434 22.4373 29.7836 22.3487 30.0324ZM26.6049 12.2824C26.6049 12.2824 25.3081 12.0761 24.9598 14.3655C24.5729 16.9107 23.5395 16.492 21.8986 18.5587C20.9396 19.7662 21.9489 21.899 23.9998 21.8567C26.0507 21.8154 27.9029 21.2224 29.0826 21.4761C30.2623 21.7298 30.3272 18.7082 29.1631 17.7759C27.999 16.8437 30.4809 14.1665 28.9686 12.9743C27.4563 11.7822 26.6049 12.2824 26.6049 12.2824Z" fill="#31446C"/>
<path d="M18.8532 22.3772C18.7349 22.1341 18.7421 21.8517 18.7848 21.5883C18.9696 20.4573 19.7621 19.5123 20.6705 18.8198C21.582 18.1255 22.6252 17.6298 23.584 17.0077C23.8329 16.8455 24.0824 16.6711 24.3681 16.5835C24.6538 16.4959 24.9859 16.5053 25.2218 16.6896C25.3884 16.8188 25.4847 17.0187 25.5407 17.2187C25.6635 17.6565 25.6165 18.1201 25.5416 18.5641C25.4479 19.1243 25.3104 19.6785 25.0847 20.1934C24.9039 20.6087 24.6093 21.036 24.1667 21.1174C24.0386 21.6136 23.775 22.0788 23.4051 22.4346C22.9821 22.8427 22.4457 23.1095 21.8891 23.2959C21.3762 23.4679 20.8153 23.5803 20.2994 23.4197C19.9932 23.3262 19.7236 23.1462 19.4598 22.9626C19.2245 22.8061 18.9803 22.635 18.8532 22.3772ZM23.4881 21.623L23.7909 21.1423C23.7263 21.149 23.6654 21.1615 23.6039 21.1865C23.4378 21.2584 23.3376 21.5202 23.4881 21.623Z" fill="#31446C"/>
<path d="M29.0985 14.296C29.1141 14.381 29.117 14.4701 29.1112 14.5717C29.0769 15.1653 28.9493 15.7498 28.7331 16.3037C28.601 16.6323 28.4392 16.9562 28.2104 17.2283C28.1155 17.3412 28.0079 17.4456 27.8675 17.4858C27.7227 17.526 27.5404 17.5317 27.3969 17.4956C27.2702 18.0193 27.323 19.0077 27.7751 19.3791C27.9133 19.4913 28.0775 19.5617 28.2418 19.6235C28.5622 19.747 28.8956 19.8411 29.2293 19.914C29.6094 19.9961 30.0239 20.0574 30.2909 20.337C30.3243 20.3714 30.3575 20.4186 30.3441 20.465C30.3352 20.4945 30.3136 20.5153 30.288 20.5319C30.0777 20.7025 29.8177 20.796 29.5578 20.8853C29.102 21.0395 28.6338 21.168 28.1578 21.2541C27.6605 21.344 27.147 21.387 26.6434 21.3327C26.2542 21.2887 25.8699 21.1896 25.5166 21.0147C25.1464 20.8311 24.7672 20.6812 24.3842 20.5058C24.0601 20.3568 23.7405 20.1867 23.3896 20.1262C23.5555 19.8109 23.9015 19.6339 24.2461 19.55C24.5906 19.4706 24.951 19.4633 25.2996 19.3965C25.4144 19.3728 25.5293 19.3449 25.6278 19.2744C25.8978 19.0792 25.8239 18.6458 25.8281 18.3619L25.8418 17.4636C25.8017 17.0349 25.6249 16.6762 25.4698 16.2839C25.2331 15.6826 25.1841 14.9995 25.3927 14.3838C25.6012 13.7724 26.0755 13.2413 26.6848 13.0259C27.2942 12.8106 28.0257 12.9319 28.4936 13.3798C28.7901 13.6683 29.032 13.9263 29.0985 14.296Z" fill="#F8AE9D"/>
<path d="M27.2242 12.3856C27.8315 12.3179 28.3849 12.6153 28.7952 13.0763C29.1405 13.4628 29.3434 13.9729 29.3331 14.4855C29.3317 14.5587 29.3234 14.6385 29.2822 14.7043C29.1724 14.8619 28.9339 14.8038 28.7555 14.7337C28.4647 14.6213 28.2483 14.4571 27.9846 14.3188C27.7211 14.1803 27.401 14.2005 27.1651 14.0093C26.9424 13.825 26.1777 13.4369 26.157 13.1368C26.131 12.77 26.8029 12.4705 27.0839 12.4095C27.124 12.397 27.1708 12.3913 27.2242 12.3856Z" fill="#31446C"/>
<path d="M25.4747 13.2147C24.9612 13.546 24.72 14.1262 24.6933 14.7428C24.67 15.2605 24.835 15.7841 25.1669 16.1749C25.2142 16.2308 25.2711 16.2873 25.3445 16.3123C25.5292 16.3651 25.6775 16.1693 25.7714 16.0023C25.9258 15.7314 25.9898 15.4675 26.1066 15.1936C26.2235 14.9197 26.4843 14.7331 26.5464 14.4359C26.6026 14.1524 26.9501 13.3684 26.7765 13.1227C26.5648 12.822 25.8547 13.0144 25.5985 13.1446C25.5595 13.1603 25.5196 13.1853 25.4747 13.2147Z" fill="#31446C"/>
<path d="M30.0426 20.2052C30.1237 20.1683 30.2207 20.1952 30.2748 20.268C30.8806 21.1165 31.1146 22.1796 31.3194 23.2042C31.5518 24.3691 31.7587 25.5379 31.957 26.7065C31.9689 26.7659 31.9764 26.8297 31.9502 26.8843C31.9239 26.9391 31.8641 26.9678 31.8086 26.9924C31.4585 27.1609 31.1042 27.3251 30.7541 27.4935C30.3763 26.6339 30.104 25.7318 29.943 24.8067C29.7182 25.3754 29.3123 25.8694 28.7945 26.1922C29.1803 26.7448 29.6552 27.8498 30.1182 28.3358C30.1892 28.4131 30.6276 28.2926 30.7255 28.2602C30.7864 28.4349 30.501 28.2483 30.5026 28.4264C30.2392 28.4647 29.9025 28.307 29.6318 28.2733C29.3053 28.2351 28.9756 28.2329 28.6486 28.2668C28.1052 28.3264 27.577 28.4964 27.0942 28.7519C26.8541 28.8796 26.6238 29.0248 26.4051 29.1864C26.2165 29.3277 25.7495 29.6596 25.7495 29.6596C25.7152 29.6845 25.5547 29.6482 25.5167 29.6391C25.4059 29.6203 25.2944 29.6059 25.1825 29.5959C24.903 29.5747 24.6197 29.5365 24.345 29.4857C23.7912 29.384 23.2469 29.2274 22.7245 29.0118C22.6743 28.9729 22.8537 28.6026 22.8633 28.5307C22.8538 28.5983 21.8251 28.515 21.7236 28.4965C21.318 28.414 20.9076 28.3696 20.502 28.2829C20.6836 26.6496 21.1823 25.072 21.6723 23.507C21.8639 22.8911 22.0597 22.2752 22.3313 21.6944C22.6205 21.0758 22.9938 20.4966 23.4424 19.982C23.4553 19.9695 23.4766 19.9613 23.4935 19.9659C23.7088 20.02 25.0219 20.3578 25.6751 20.6009C26.0081 20.7289 26.3454 20.8441 26.6869 20.9595C26.8219 21.004 26.9611 21.0485 27.101 21.0464C27.1943 21.0435 27.2879 21.0237 27.3771 21.004C28.2872 20.8016 29.1976 20.5823 30.0426 20.2052Z" fill="#9A70E2"/>
<path d="M24.1189 23.4596C24.0815 23.6922 24.0313 23.9287 23.9811 24.1611C23.8591 24.6883 23.7025 25.207 23.5125 25.7137C23.4154 25.9665 23.3141 26.215 23.2002 26.4635C23.1432 26.5854 23.0863 26.7075 23.0251 26.8295C22.9945 26.8884 22.9639 26.9515 22.9334 27.0103C22.9072 27.0608 22.8768 27.107 22.8506 27.1532C23.0329 27.1475 23.9329 27.1995 24.1191 27.215" stroke="white" stroke-width="0.2" stroke-miterlimit="10" stroke-linecap="round"/>
<path d="M24.1482 27.3969C24.1294 27.5153 24.1064 27.6337 24.0792 27.7518L23.9976 28.1067C23.9706 28.208 23.9093 28.3343 23.9077 28.4401C23.908 28.419 24.6295 28.3578 24.6974 28.3505C25.4487 28.2771 26.2038 28.2334 26.9548 28.1855C27.4427 28.1547 27.9214 28.1663 28.4088 28.1695C28.5529 28.1716 28.7227 28.1573 28.8008 28.0398C28.8659 27.939 28.8127 27.811 28.8649 27.7187C28.8987 27.7276 29.2914 27.8269 29.2873 27.8183C29.3029 27.9075 29.334 28.0945 29.4265 28.1382C29.4602 28.1515 29.4941 28.1563 29.5279 28.1568C29.5788 28.1576 29.6298 28.1499 29.6808 28.1421C29.6886 28.1421 29.6962 28.1392 29.7021 28.134C29.7107 28.1256 29.7024 28.1128 29.6942 28.1C29.5786 27.9292 29.518 27.7271 29.5207 27.5209C29.399 27.4385 29.2775 27.3434 29.1732 27.2401C29.0897 27.1541 29.0278 27.0429 28.9356 26.9695C28.8394 26.8875 28.7455 26.937 28.639 26.965C28.5159 26.9925 28.3938 27.0246 28.2731 27.0612C28.0389 27.1338 27.8044 27.2236 27.6071 27.369C27.5386 27.4187 27.4742 27.4729 27.3933 27.497C27.3166 27.5213 27.2319 27.52 27.1514 27.5188C26.6557 27.507 26.1602 27.4826 25.6693 27.4285C25.1658 27.3742 24.8224 27.3818 24.1626 27.2827C24.1625 27.287 24.1619 27.3251 24.1482 27.3969Z" fill="#F8AE9D"/>
<path d="M29.6074 23.4124C29.7259 23.9247 29.8114 24.442 29.8692 24.97" stroke="white" stroke-width="0.2" stroke-miterlimit="10" stroke-linecap="round"/>
<path d="M39.6028 22.5668L38.148 29.055L27.1008 28.8871C27.1067 28.5058 27.4208 28.1969 27.8063 28.2027L30.4463 28.2428L31.7619 22.2739C31.803 22.0795 31.9788 21.9424 32.1738 21.9453L39.1995 22.052C39.4664 22.0603 39.6619 22.3049 39.6028 22.5668Z" fill="#31446C"/>
<path d="M25.1712 38.4216C25.2223 38.1256 25.3668 37.8227 25.5022 37.5577C26.0612 36.4726 27.0603 35.7079 28.1364 35.1818C28.2475 35.1283 28.3585 35.075 28.4735 35.0343C28.4649 35.0469 28.4562 35.0594 28.4474 35.0763V35.0805H28.4432C28.456 35.0721 28.4646 35.0638 28.4774 35.0556C28.9123 35.4479 29.3763 35.8788 29.7723 36.3128C29.5105 36.525 29.1307 36.6973 28.942 36.8386C28.4962 37.1666 28.0671 37.5161 27.6047 37.8228C26.9838 38.2414 26.3222 38.545 25.5827 38.6778C25.2979 38.7286 25.1488 38.7815 25.1522 38.5611C25.1568 38.5272 25.1618 38.4808 25.1712 38.4216Z" fill="#F8AE9D"/>
<path d="M25.8927 37.5675C26.1807 37.0251 26.6277 36.6123 27.1165 36.2466C27.4595 35.9891 27.8233 35.7573 28.1701 35.5209C28.2686 35.4546 28.4621 35.2753 28.6287 35.1889C28.9757 35.5036 29.331 35.8352 29.6521 36.1792C28.5912 36.8243 27.6459 37.6662 26.4818 38.1232C26.3753 38.1639 26.2644 38.2046 26.15 38.2071C26.0355 38.2096 25.9133 38.1611 25.847 38.0669C25.7432 37.9212 25.8098 37.723 25.8927 37.5675Z" fill="#F8AE9D"/>
<path d="M43.8245 27.6123C45.0036 27.8916 46.2508 26.8916 46.2508 26.8916C46.2508 26.8916 45.5852 25.4392 44.4057 25.1607C43.2265 24.8813 41.9797 25.8805 41.9797 25.8805C41.9797 25.8805 42.6453 27.3329 43.8245 27.6123Z" fill="url(#paint4_linear_3859_7455)"/>
<path d="M44.5502 11.8657C42.7567 13.1009 40.0168 12.2375 40.0168 12.2375C40.0168 12.2375 40.1865 9.37139 41.9811 8.1373C43.7746 6.90206 46.5132 7.7643 46.5132 7.7643C46.5132 7.7643 46.3436 10.6303 44.5502 11.8657Z" fill="url(#paint5_linear_3859_7455)"/>
<path d="M8.3213 16.2583C9.39256 17.3486 11.3958 17.1187 11.3958 17.1187C11.3958 17.1187 11.6609 15.1211 10.5886 14.0315C9.51735 12.9411 7.51514 13.1703 7.51514 13.1703C7.51514 13.1703 7.25004 15.168 8.3213 16.2583Z" fill="url(#paint6_linear_3859_7455)"/>
<path d="M11.9467 38.7425C12.455 38.7425 12.8671 39.1546 12.8671 39.6629C12.8671 40.1712 12.455 40.5833 11.9467 40.5833C11.4384 40.5833 11.0264 40.1712 11.0264 39.6629C11.0264 39.1546 11.4384 38.7425 11.9467 38.7425Z" fill="#9A70E2"/>
<path d="M46.2312 39.1016C46.794 39.1016 47.2503 39.535 47.2503 40.0697C47.2503 40.6044 46.794 41.0378 46.2312 41.0378C45.6684 41.0378 45.2122 40.6044 45.2122 40.0697C45.2122 39.535 45.6684 39.1016 46.2312 39.1016Z" fill="#9A70E2"/>
<path d="M6.91717 43.4934C7.42371 43.4934 7.83434 43.1055 7.83434 42.6271C7.83434 42.1487 7.42371 41.7609 6.91717 41.7609C6.41063 41.7609 6 42.1487 6 42.6271C6 43.1055 6.41063 43.4934 6.91717 43.4934Z" fill="#E1E4E5"/>
<path d="M50.2634 24.6204C50.67 24.6204 50.9997 24.2907 50.9997 23.8841C50.9997 23.4774 50.67 23.1478 50.2634 23.1478C49.8567 23.1478 49.5271 23.4774 49.5271 23.8841C49.5271 24.2907 49.8567 24.6204 50.2634 24.6204Z" fill="#E1E4E5"/>
<path d="M16.2381 32.2355C16.481 32.2355 16.6779 32.0386 16.6779 31.7957C16.6779 31.5528 16.481 31.356 16.2381 31.356C15.9952 31.356 15.7983 31.5528 15.7983 31.7957C15.7983 32.0386 15.9952 32.2355 16.2381 32.2355Z" fill="#E1E4E5"/>
<path d="M17.8833 8.2564C18.2303 8.2564 18.5115 7.97515 18.5115 7.6282C18.5115 7.28125 18.2303 7 17.8833 7C17.5364 7 17.2551 7.28125 17.2551 7.6282C17.2551 7.97515 17.5364 8.2564 17.8833 8.2564Z" fill="#E1E4E5"/>
<path d="M47.5147 32.1997C47.4269 32.5272 47.6213 32.8638 47.9488 32.9516C48.2763 33.0394 48.613 32.845 48.7007 32.5175C48.7885 32.19 48.5941 31.8533 48.2666 31.7656C47.9391 31.6778 47.6024 31.8722 47.5147 32.1997Z" fill="#E1E4E5"/>
<path d="M47.0681 18.919C47.5191 18.919 47.8847 18.5534 47.8847 18.1024C47.8847 17.6514 47.5191 17.2858 47.0681 17.2858C46.6171 17.2858 46.2515 17.6514 46.2515 18.1024C46.2515 18.5534 46.6171 18.919 47.0681 18.919Z" fill="#E1E4E5"/>
<path d="M7.88455 24.428C8.23149 24.428 8.51275 24.203 8.51275 23.9254C8.51275 23.6479 8.23149 23.4229 7.88455 23.4229C7.5376 23.4229 7.25635 23.6479 7.25635 23.9254C7.25635 24.203 7.5376 24.428 7.88455 24.428Z" fill="#E1E4E5"/>
<path d="M12.9616 26.5775C12.779 27.2591 13.1834 27.9597 13.865 28.1423C14.5466 28.325 15.2472 27.9205 15.4298 27.2389C15.6124 26.5573 15.208 25.8567 14.5264 25.6741C13.8448 25.4915 13.1442 25.896 12.9616 26.5775Z" fill="#E1E4E5"/>
<defs>
<linearGradient id="paint0_linear_3859_7455" x1="35.7199" y1="49.8756" x2="35.7016" y2="41.0121" gradientUnits="userSpaceOnUse">
<stop stop-color="white"/>
<stop offset="1" stop-color="#EEEEEE"/>
</linearGradient>
<linearGradient id="paint1_linear_3859_7455" x1="33.2219" y1="45.4199" x2="33.2017" y2="38.4226" gradientUnits="userSpaceOnUse">
<stop stop-color="white"/>
<stop offset="1" stop-color="#EEEEEE"/>
</linearGradient>
<linearGradient id="paint2_linear_3859_7455" x1="30.7676" y1="42.4243" x2="30.7461" y2="35.1754" gradientUnits="userSpaceOnUse">
<stop stop-color="white"/>
<stop offset="1" stop-color="#EEEEEE"/>
</linearGradient>
<linearGradient id="paint3_linear_3859_7455" x1="34.3537" y1="38.7363" x2="34.3443" y2="33.2623" gradientUnits="userSpaceOnUse">
<stop stop-color="white"/>
<stop offset="1" stop-color="#EEEEEE"/>
</linearGradient>
<linearGradient id="paint4_linear_3859_7455" x1="48.2649" y1="28.3068" x2="37.9424" y2="23.4301" gradientUnits="userSpaceOnUse">
<stop stop-color="white"/>
<stop offset="1" stop-color="#EEEEEE"/>
</linearGradient>
<linearGradient id="paint5_linear_3859_7455" x1="37.564" y1="15.9188" x2="51.6814" y2="1.03235" gradientUnits="userSpaceOnUse">
<stop stop-color="white"/>
<stop offset="1" stop-color="#EEEEEE"/>
</linearGradient>
<linearGradient id="paint6_linear_3859_7455" x1="12.5955" y1="19.9826" x2="4.85087" y2="7.84234" gradientUnits="userSpaceOnUse">
<stop stop-color="white"/>
<stop offset="1" stop-color="#EEEEEE"/>
</linearGradient>
</defs>
</svg>
