<svg width="56" height="56" viewBox="0 0 56 56" fill="none" xmlns="http://www.w3.org/2000/svg">
<path fill-rule="evenodd" clip-rule="evenodd" d="M25.9265 45.4475C28.46 47.5112 31.6667 48.7445 35.1543 48.7445C37.34 48.7445 39.4158 48.259 41.2854 47.3892L47.7837 49.9999L46.2008 43.6916C48.5633 40.9973 50 37.4356 50 33.5289C50 28.6955 47.7996 24.3905 44.372 21.6034C44.5023 22.5626 44.5714 23.5416 44.5714 24.538C44.5714 35.4962 36.3769 44.4941 25.9265 45.4475Z" fill="#A7A7A7"/>
<path d="M11.5986 37.1634L11.7262 36.655L11.3806 36.2608C8.65815 33.1552 7 29.0481 7 24.5381C7 14.8289 14.6735 7 24.0875 7C33.5002 7 41.1738 14.8288 41.1738 24.5381C41.1738 34.2461 33.5003 42.075 24.0875 42.075C21.5731 42.075 19.1877 41.5173 17.0387 40.518L16.6461 40.3354L16.2443 40.4968L10.1475 42.9455L11.5986 37.1634Z" stroke="#A7A7A7" stroke-width="2"/>
<path fill-rule="evenodd" clip-rule="evenodd" d="M20.3635 13.1612C22.4983 12.2763 24.9367 11.907 27.0918 12.9336C29.0509 13.8649 30.2656 15.7428 30.363 17.9516C30.4786 20.5646 29.0113 22.8918 27.0284 24.3992C26.6964 24.6826 26.4765 25.0229 26.3372 25.4398C26.2012 25.852 26.3462 26.2713 26.3383 26.6963C26.3156 27.7937 25.4307 28.6671 24.3588 28.6462C23.288 28.6252 22.4337 27.7159 22.4564 26.6173C22.4756 25.6697 22.3408 25.103 22.6558 24.1577C23.0841 22.8709 23.6971 22.0987 24.7055 21.2091C25.6358 20.5019 26.5377 19.3823 26.4811 18.1258C26.4505 17.4232 26.0868 16.8472 25.4624 16.5511C24.3259 16.0111 22.9492 16.3885 21.849 16.8542C19.5443 17.8273 18.0385 14.1239 20.3635 13.1612ZM24.1628 30.6645C25.4828 30.6645 26.5502 31.7608 26.5502 33.1126C26.5502 34.4655 25.4828 35.5606 24.1628 35.5606C22.8427 35.5606 21.7742 34.4655 21.7742 33.1126C21.7742 31.7608 22.8427 30.6645 24.1628 30.6645Z" fill="#A7A7A7"/>
</svg>
