<svg width="57" height="57" viewBox="0 0 57 57" fill="none" xmlns="http://www.w3.org/2000/svg">
<rect width="57" height="57" rx="5" fill="#E8E8FC"/>
<path d="M26.8895 16.3135H8.53049C7.749 16.3135 7.11548 16.947 7.11548 17.7285V36.0876C7.11548 36.8691 7.749 37.5026 8.53049 37.5026H26.8895C27.671 37.5026 28.3045 36.8691 28.3045 36.0876V17.7285C28.3045 16.947 27.671 16.3135 26.8895 16.3135Z" fill="#9A70E2"/>
<path d="M17.661 40.7391C19.2593 40.7391 20.5549 39.4435 20.5549 37.8452C20.5549 36.2469 19.2593 34.9513 17.661 34.9513C16.0627 34.9513 14.7671 36.2469 14.7671 37.8452C14.7671 39.4435 16.0627 40.7391 17.661 40.7391Z" fill="#9A70E2"/>
<path d="M5.69322 30.5893C7.29149 30.5893 8.58713 29.2937 8.58713 27.6954C8.58713 26.0972 7.29149 24.8015 5.69322 24.8015C4.09496 24.8015 2.79932 26.0972 2.79932 27.6954C2.79932 29.2937 4.09496 30.5893 5.69322 30.5893Z" fill="#9A70E2"/>
<path d="M29.0399 26.0856C30.6382 26.0856 31.9338 24.7899 31.9338 23.1917C31.9338 21.5934 30.6382 20.2977 29.0399 20.2977C27.4416 20.2977 26.146 21.5934 26.146 23.1917C26.146 24.7899 27.4416 26.0856 29.0399 26.0856Z" fill="#9A70E2"/>
<path d="M18.5703 13.1532C18.5703 13.1532 16.8115 12.8735 16.3392 15.9782C15.8145 19.4298 14.4132 18.862 12.1879 21.6646C10.8873 23.3024 12.2559 26.1945 15.0372 26.1371C17.8185 26.0812 20.3303 25.2771 21.9302 25.6211C23.5301 25.9651 23.618 21.8675 22.0394 20.6032C20.4609 19.3389 23.8265 15.7083 21.7756 14.0916C19.7248 12.4749 18.5703 13.1532 18.5703 13.1532Z" fill="#31446C"/>
<path d="M8.05806 26.8438C7.89767 26.5142 7.90743 26.1313 7.9653 25.774C8.21597 24.2403 9.29081 22.9588 10.5227 22.0196C11.7587 21.0781 13.1734 20.4059 14.4738 19.5621C14.8113 19.3424 15.1496 19.1057 15.537 18.9869C15.9245 18.8682 16.3748 18.881 16.6949 19.1308C16.9208 19.3061 17.0513 19.5772 17.1273 19.8484C17.2938 20.4421 17.2299 21.0707 17.1284 21.6729C17.0014 22.4325 16.8151 23.1842 16.5089 23.8824C16.2636 24.4456 15.8642 25.0251 15.2639 25.1354C15.0902 25.8085 14.7327 26.4393 14.231 26.9219C13.6574 27.4752 12.93 27.837 12.1752 28.0897C11.4797 28.3231 10.719 28.4754 10.0194 28.2576C9.60417 28.1308 9.23846 27.8867 8.88081 27.6377C8.56173 27.4256 8.23055 27.1935 8.05806 26.8438ZM14.3437 25.8211L14.7543 25.1693C14.6668 25.1783 14.5842 25.1953 14.5007 25.2292C14.2753 25.3268 14.1396 25.6818 14.3437 25.8211Z" fill="#31446C"/>
<path d="M21.9518 15.883C21.9731 15.9983 21.977 16.1191 21.9691 16.2569C21.9224 17.0609 21.7493 17.8573 21.4564 18.6058C21.2772 19.0514 21.0578 19.4906 20.7476 19.8596C20.6188 20.0127 20.4729 20.1542 20.2824 20.2089C20.0861 20.2633 19.8389 20.2711 19.6442 20.2222C19.4725 20.9323 19.5441 22.2727 20.1572 22.7763C20.3446 22.9286 20.5673 23.0239 20.7902 23.1077C21.2244 23.2753 21.6766 23.4029 22.1292 23.5017C22.6448 23.613 23.2069 23.6963 23.569 24.0754C23.6143 24.1221 23.6593 24.186 23.6411 24.2489C23.629 24.289 23.5998 24.3173 23.5649 24.3397C23.2798 24.5711 22.9273 24.6979 22.5748 24.819C21.9566 25.028 21.3217 25.2023 20.6761 25.319C20.0017 25.4409 19.3054 25.4993 18.6225 25.4257C18.0946 25.3659 17.5736 25.2316 17.0944 24.9944C16.5923 24.7454 16.0781 24.5421 15.5587 24.3043C15.1191 24.1022 14.6858 23.8715 14.21 23.7895C14.4349 23.3619 14.9041 23.1218 15.3714 23.0082C15.8386 22.9004 16.3274 22.8905 16.8001 22.8C16.9557 22.7678 17.1115 22.73 17.2452 22.6343C17.6113 22.3697 17.511 21.7819 17.5168 21.3969L17.5354 20.1786C17.481 19.5972 17.2412 19.1108 17.0309 18.5788C16.7099 17.7634 16.6435 16.837 16.9263 16.0021C17.2091 15.1729 17.8523 14.4527 18.6786 14.1607C19.5051 13.8686 20.4969 14.0331 21.1315 14.6405C21.5336 15.0318 21.8617 15.3816 21.9518 15.883Z" fill="#F8AE9D"/>
<path d="M19.4106 13.2933C20.2342 13.2014 20.9847 13.6048 21.5412 14.23C22.0093 14.754 22.2845 15.4459 22.2706 16.141C22.2686 16.2403 22.2575 16.3484 22.2015 16.4376C22.0527 16.6513 21.7292 16.5727 21.4873 16.4775C21.093 16.3252 20.7994 16.1025 20.4419 15.9148C20.0844 15.7271 19.6504 15.7545 19.3304 15.4953C19.0284 15.2454 17.9913 14.7189 17.9634 14.312C17.9282 13.8146 18.8394 13.4084 19.2203 13.3257C19.2748 13.3087 19.3381 13.301 19.4106 13.2933Z" fill="#31446C"/>
<path d="M17.0374 14.4186C16.3409 14.8679 16.014 15.6547 15.9778 16.4909C15.9461 17.1929 16.17 17.903 16.6199 18.433C16.6843 18.5087 16.7612 18.5854 16.861 18.6192C17.1114 18.6909 17.3124 18.4255 17.4398 18.1988C17.6491 17.8317 17.736 17.4736 17.8944 17.1022C18.0529 16.7308 18.4067 16.4778 18.4908 16.0747C18.5671 15.6902 19.0382 14.6269 18.8027 14.2938C18.5158 13.886 17.5529 14.1469 17.2053 14.3235C17.1523 14.3448 17.0983 14.3787 17.0374 14.4186Z" fill="#31446C"/>
<path d="M23.2324 23.8985C23.3424 23.8484 23.474 23.885 23.5472 23.9837C24.3689 25.1343 24.6862 26.5761 24.964 27.9656C25.2791 29.5453 25.5597 31.1302 25.8287 32.715C25.8448 32.7957 25.855 32.8821 25.8193 32.9562C25.7837 33.0304 25.7027 33.0694 25.6275 33.1028C25.1526 33.3313 24.6722 33.5539 24.1974 33.7823C23.6863 32.6192 23.3141 31.3892 23.0974 30.1387C22.7925 30.91 22.242 31.5799 21.5399 32.0176C22.0631 32.767 22.6562 34.1472 23.2842 34.8063C23.3668 35.0432 23.2409 34.8497 23.0244 34.8497C22.6672 34.9017 22.6804 34.8161 22.3748 34.8063C21.9329 34.7536 21.7853 34.786 21.342 34.831C20.605 34.9118 19.8888 35.1423 19.234 35.4887C18.9085 35.662 18.5962 35.859 18.2996 36.0781C18.0438 36.2696 17.4105 36.7199 17.4105 36.7199C17.3639 36.7536 17.1463 36.7044 17.0947 36.6921C16.9445 36.6665 16.7933 36.647 16.6416 36.6335C16.2626 36.6047 15.8783 36.5529 15.5057 36.484C14.7549 36.3462 14.0166 36.1338 13.3083 35.8414C13.2401 35.7886 13.4834 35.2865 13.4964 35.189C13.4835 35.2807 12.0885 35.1675 11.9509 35.1425C11.4008 35.0306 10.8442 34.9705 10.2942 34.8529C10.5405 32.6379 11.2168 30.4985 11.8813 28.3761C12.1411 27.5409 12.4067 26.7057 12.7751 25.9181C13.1672 25.0792 13.6734 24.2936 14.2818 23.5959C14.2993 23.5789 14.3282 23.5678 14.3511 23.5739C14.6431 23.6473 16.4237 24.1055 17.3097 24.435C17.7611 24.6086 18.2186 24.765 18.6818 24.9214C18.8648 24.9817 19.0536 25.0421 19.2433 25.0392C19.3698 25.0354 19.4966 25.0086 19.6178 24.9817C20.852 24.7073 22.0865 24.4099 23.2324 23.8985Z" fill="white"/>
<path d="M15.1992 28.311C15.1485 28.6264 15.0803 28.9473 15.0123 29.2623C14.8468 29.9773 14.6345 30.6807 14.3768 31.3679C14.2452 31.7108 14.1079 32.0478 13.9533 32.3846C13.876 32.5502 13.7988 32.7156 13.7158 32.8811C13.6744 32.9609 13.6328 33.0465 13.5914 33.1263C13.5559 33.1948 13.5147 33.2574 13.4792 33.3201C13.7265 33.3123 14.9469 33.3827 15.1995 33.4038M22.6424 28.2472C22.803 28.9419 22.9189 29.6435 22.9974 30.3594" stroke="white" stroke-width="1.376" stroke-miterlimit="10" stroke-linecap="round"/>
<path d="M47.3712 46H29.0122C28.2307 46 27.5972 45.3665 27.5972 44.585V26.226C27.5972 25.4445 28.2307 24.8109 29.0122 24.8109H47.3712C48.1527 24.8109 48.7862 25.4445 48.7862 26.226V44.585C48.7862 45.3665 48.1527 46 47.3712 46Z" fill="#9A70E2"/>
<path d="M38.1427 21.5734C39.7409 21.5734 41.0366 22.8691 41.0366 24.4673C41.0366 26.0656 39.7409 27.3612 38.1427 27.3612C36.5444 27.3612 35.2488 26.0656 35.2488 24.4673C35.2488 22.8691 36.5444 21.5734 38.1427 21.5734Z" fill="#9A70E2"/>
<path d="M26.1749 31.7232C27.7732 31.7232 29.0688 33.0188 29.0688 34.6171C29.0688 36.2154 27.7732 37.511 26.1749 37.511C24.5767 37.511 23.281 36.2154 23.281 34.6171C23.281 33.0188 24.5767 31.7232 26.1749 31.7232Z" fill="#9A70E2"/>
<path d="M49.5218 36.228C51.1201 36.228 52.4157 37.5236 52.4157 39.1219C52.4157 40.7201 51.1201 42.0158 49.5218 42.0158C47.9236 42.0158 46.6279 40.7201 46.6279 39.1219C46.6279 37.5236 47.9236 36.228 49.5218 36.228Z" fill="#9A70E2"/>
<path d="M40.0746 22.173C40.1586 22.5089 40.0471 22.8582 39.8633 23.1516C39.7333 23.3589 39.5517 23.13 39.2869 23.0933C38.8773 23.0359 38.6179 22.6023 38.5292 21.5458C38.4882 20.7742 38.5075 20.3892 38.5505 20.3218C38.7035 20.0807 39.0971 20 39.4075 20.0233" fill="#31446C"/>
<path fill-rule="evenodd" clip-rule="evenodd" d="M29.3595 25.9277C29.3595 25.9277 29.6471 24.325 29.5437 24.0005C29.4554 23.72 28.6206 23.3156 28.6206 23.3156C28.6206 23.3156 27.1686 21.0219 26.8509 21.2554C26.5923 21.4448 27.607 23.1358 27.607 23.1358C27.607 23.1358 26.6818 24.1065 26.6947 24.5404C26.7076 24.9744 28.2048 26.3327 28.2048 26.3327L29.3595 25.9277ZM44.2826 26.3043C44.2826 26.3043 43.3263 26.0798 43.2931 24.5129C43.26 22.946 43.2832 22.4112 43.2832 22.4112L41.0162 22.3732C41.0162 22.3732 40.9933 24.1194 40.993 24.7511C40.992 26.1261 39.9708 26.4976 39.9708 26.4976C39.9708 26.4976 40.0557 28.0012 41.9643 28.1085C43.4545 28.1925 44.2826 26.3043 44.2826 26.3043Z" fill="#F8AE9D"/>
<path fill-rule="evenodd" clip-rule="evenodd" d="M43.4915 21.619C44.431 21.5826 44.2778 22.9581 43.3017 22.9563C43.3017 22.9563 42.2527 25.0656 40.6058 25.071C39.8124 25.0737 39.5534 24.367 39.3156 23.871C39.0778 23.3749 38.9032 22.6329 38.8887 22.1785C38.8731 21.6941 38.8711 20.1027 38.8711 20.1027L43.528 20.1005L43.4915 21.619Z" fill="#F8AE9D"/>
<path fill-rule="evenodd" clip-rule="evenodd" d="M39.9349 26.4041C39.9349 26.4041 37.4926 27.1664 36.9041 28.0772C35.0082 29.7427 32.637 32.0301 32.637 32.0301C32.637 32.0301 30.3787 26.362 29.6404 25.7158C29.1352 25.2737 28.1287 25.8204 27.9412 26.3823C27.7003 27.1039 29.2471 31.3371 29.9776 33.3363L29.9777 33.3365C30.1192 33.7237 30.2301 34.0271 30.2913 34.2049C30.7368 35.4973 31.8206 36.2385 33.1395 35.4171C33.6712 35.086 35.2534 34.001 36.6032 33.0175C36.6244 34.0508 36.66 35.1396 36.6937 36.1737V36.1738C36.7758 38.6861 36.8472 40.8754 36.6754 41.1599C35.824 42.57 36.956 43.5379 40.7038 43.8936C44.4516 44.2492 47.7764 43.958 47.1731 42.0763C47.0473 41.6841 47.0489 40.8401 47.1116 39.7437C47.4788 39.7241 47.8457 39.6999 48.2122 39.6711C49.7764 39.5479 50.9331 38.8758 51.0944 37.1304C51.2075 35.9081 48.8788 30.1699 48.0056 28.283C47.8014 27.8416 47.4856 27.5667 47.1278 27.4297C47.0445 27.3368 46.9507 27.2715 46.8453 27.2367C46.2038 27.0253 43.9042 26.0591 43.9042 26.0591L41.1685 27.8491L39.9349 26.4041ZM47.365 36.505L47.3712 36.5208L47.3636 36.5218L47.365 36.505Z" fill="white"/>
<path fill-rule="evenodd" clip-rule="evenodd" d="M41.2949 38.02C41.2949 38.02 40.4606 37.8523 40.119 37.5842C39.7776 37.3161 38.7434 37.1266 38.7434 37.1266L39.0743 37.8233C39.0743 37.8233 36.5396 37.5855 36.4796 37.8355C36.4195 38.0855 37.1526 38.3574 37.1526 38.3574C37.1526 38.3574 37.5142 39.0327 37.8642 39.4241C38.1953 39.7945 39.8405 39.7504 40.4173 39.5192C40.9156 39.3196 41.4575 39.4194 41.4575 39.4194L41.2949 38.02Z" fill="#F8AE9D"/>
<path d="M43.2358 20.1661C43.0985 20.3459 42.8564 20.3855 42.657 20.421C42.389 20.4687 42.2563 20.5683 42.1171 20.8353C42.0291 21.0059 41.9409 21.1927 41.7833 21.2851C41.6548 21.3607 41.6587 21.1694 41.6397 21.0216C41.6379 21.0078 41.6352 20.9941 41.6317 20.9806C41.6009 20.8624 41.4755 20.8822 41.4391 20.9988C41.4057 21.1044 41.3343 21.1938 41.2434 21.2435C41.2286 21.2516 41.2128 21.2587 41.197 21.2557C41.1757 21.2526 41.159 21.2323 41.1451 21.2141C41.1162 21.1761 41.0874 21.1278 41.0577 21.0768C40.9596 20.9081 40.7724 20.9673 40.6627 21.1288C40.5941 21.2293 40.5125 21.3329 40.4002 21.3562C40.3641 21.3644 40.3187 21.3583 40.302 21.3227C40.2806 21.279 40.314 21.2354 40.3084 21.1907C40.3038 21.1491 40.2862 21.1308 40.2667 21.0952C40.1907 20.9582 40.0146 20.9532 39.9073 21.0674C39.8327 21.1468 39.7548 21.2232 39.674 21.2963C39.6397 21.3268 39.5896 21.3572 39.5553 21.3268C39.5367 21.3105 39.5321 21.2831 39.5284 21.2567C39.5089 21.1278 39.4903 20.9988 39.4709 20.8698C39.4597 20.7977 39.4217 20.7033 39.3567 20.7216C39.3252 20.7307 39.3066 20.7642 39.289 20.7947C39.2677 20.8333 38.8865 21.2729 38.879 21.2395C38.8197 20.9897 38.6982 20.7622 38.6388 20.5124C38.2548 18.905 39.9588 17.6124 41.2601 17.6052C41.5495 17.6032 41.8138 17.608 42.0949 17.6761C42.3945 17.7491 42.7108 17.8652 42.9826 18.0287C43.3638 18.2571 43.6523 18.6724 43.5781 19.168" fill="#31446C"/>
<path d="M42.1778 19.6464C41.9943 19.8563 41.9457 20.1515 41.9286 20.4305C41.9035 20.8512 41.9376 21.2882 42.1301 21.6616C42.185 21.768 42.2254 22.2941 42.31 22.265C42.337 22.2559 42.3325 21.8479 42.4036 21.628C42.5133 21.2873 43.0188 21.1574 43.2464 21.3728C43.6099 21.7153 43.3966 22.1314 43.2762 22.3904C43.2041 22.5467 43.0899 22.722 43.0701 22.8874C43.0459 23.0991 43.0386 23.8705 43.1754 24.0504C43.2896 24.2012 43.4111 23.4725 43.5145 23.329C44.4774 22.6855 45.0141 19.5364 43.707 18.9459C43.5082 18.8559 42.8947 18.8096 42.7085 18.924" fill="#31446C"/>
<path d="M50.1923 17.2695L51.6041 18.0601L51.7029 18.3989L51.5194 18.8083C51.2511 18.8978 50.6638 19.0737 50.4606 19.0625C50.2572 19.0512 49.9899 19.246 49.8817 19.3448C49.8441 19.5613 49.7659 20.0197 49.7547 20.1213C49.7434 20.2229 49.5429 20.7378 49.4441 20.9825H48.7523L48.4982 20.4178L47.2699 17.4954L47.0017 16.4507L47.1852 16.1684L48.0888 16.5636L50.1923 17.2695Z" fill="#9A70E2"/>
<path fill-rule="evenodd" clip-rule="evenodd" d="M47.5936 15.914C47.0157 15.6732 46.436 16.2529 46.6768 16.8308L48.338 20.8177C48.6628 21.5974 49.8056 21.4656 49.9445 20.6324L50.1517 19.3889L51.3952 19.1816C52.2284 19.0428 52.3602 17.9001 51.5805 17.5752L47.5936 15.914ZM47.1945 16.6151C47.1463 16.4995 47.2623 16.3835 47.3778 16.4317L51.3648 18.0929C51.6246 18.2012 51.5808 18.5821 51.303 18.6284L50.0595 18.8357C49.9442 18.8549 49.8378 18.9096 49.7551 18.9923C49.6724 19.0749 49.6177 19.1814 49.5985 19.2967L49.3912 20.5402C49.3449 20.818 48.964 20.8619 48.8557 20.602L47.1945 16.6151Z" fill="#9A70E2"/>
<path fill-rule="evenodd" clip-rule="evenodd" d="M7.26416 43.6875H7.67254C7.7198 43.6875 7.76513 43.7063 7.79856 43.7397C7.83199 43.7731 7.85079 43.8184 7.85083 43.8657V44.2741C7.85079 44.3213 7.83199 44.3667 7.79857 44.4001C7.76514 44.4335 7.71981 44.4523 7.67254 44.4524H7.26416C7.21695 44.4522 7.17173 44.4333 7.13835 44.3999C7.10496 44.3665 7.08613 44.3213 7.08594 44.2741V43.8657C7.0851 43.7678 7.1654 43.6875 7.26416 43.6875ZM8.68002 43.6875H9.0884C9.13561 43.6877 9.18084 43.7065 9.21424 43.7399C9.24763 43.7733 9.26648 43.8185 9.26669 43.8657V44.2741C9.26665 44.3213 9.24785 44.3667 9.21443 44.4001C9.181 44.4335 9.13567 44.4523 9.0884 44.4524H8.68002C8.63281 44.4522 8.58758 44.4333 8.5542 44.3999C8.52082 44.3665 8.50199 44.3213 8.5018 44.2741V43.8657C8.50197 43.8185 8.5208 43.7732 8.55419 43.7399C8.58757 43.7065 8.63281 43.6876 8.68002 43.6875ZM10.0969 43.6875H10.5052C10.5525 43.6877 10.5977 43.7065 10.6311 43.7399C10.6645 43.7733 10.6833 43.8185 10.6835 43.8657V44.2741C10.6835 44.3213 10.6647 44.3667 10.6313 44.4001C10.5978 44.4335 10.5525 44.4523 10.5052 44.4524H10.0969C10.0497 44.4522 10.0044 44.4333 9.97105 44.3999C9.93767 44.3665 9.91884 44.3213 9.91865 44.2741V43.8657C9.9178 43.7678 9.99818 43.6875 10.0969 43.6875ZM11.5127 43.6875H11.9211C11.9683 43.6877 12.0136 43.7065 12.0469 43.7399C12.0803 43.7733 12.0992 43.8185 12.0994 43.8657V44.2741C12.0994 44.3213 12.0806 44.3667 12.0471 44.4001C12.0137 44.4335 11.9684 44.4523 11.9211 44.4524H11.5127C11.4654 44.4523 11.42 44.4336 11.3864 44.4002C11.3529 44.3668 11.3339 44.3214 11.3337 44.2741V43.8657C11.3342 43.8184 11.3532 43.7733 11.3867 43.7399C11.4202 43.7066 11.4655 43.6877 11.5127 43.6875ZM12.9288 43.6875H13.3372C13.3845 43.6875 13.4299 43.7062 13.4635 43.7396C13.4971 43.773 13.516 43.8184 13.5162 43.8657V44.2741C13.5162 44.2975 13.5115 44.3208 13.5025 44.3424C13.4935 44.3641 13.4803 44.3838 13.4636 44.4003C13.447 44.4169 13.4273 44.43 13.4056 44.4389C13.3839 44.4478 13.3606 44.4524 13.3372 44.4524H12.9288C12.8816 44.4522 12.8363 44.4333 12.8029 44.3999C12.7695 44.3665 12.7507 44.3213 12.7505 44.2741V43.8657C12.7507 43.8185 12.7696 43.7733 12.803 43.7399C12.8364 43.7065 12.8816 43.6877 12.9288 43.6875ZM8.73202 45.2315H9.1404C9.18761 45.2316 9.23285 45.2505 9.26623 45.2838C9.29962 45.3172 9.31845 45.3625 9.31862 45.4097V45.8189C9.31845 45.8661 9.29962 45.9114 9.26623 45.9447C9.23285 45.9781 9.18761 45.997 9.1404 45.9971H8.73202C8.68476 45.9971 8.63943 45.9783 8.606 45.9449C8.57257 45.9115 8.55377 45.8662 8.55373 45.8189V45.4105C8.55359 45.387 8.5581 45.3638 8.567 45.342C8.57591 45.3203 8.58902 45.3005 8.60559 45.2839C8.62217 45.2672 8.64187 45.254 8.66357 45.245C8.68527 45.236 8.70854 45.2314 8.73202 45.2315ZM10.1479 45.2315H10.5563C10.6035 45.2316 10.6487 45.2505 10.6821 45.2838C10.7155 45.3172 10.7343 45.3625 10.7345 45.4097V45.8189C10.7343 45.8661 10.7155 45.9114 10.6821 45.9447C10.6487 45.9781 10.6035 45.997 10.5563 45.9971H10.1479C10.1007 45.9969 10.0554 45.9781 10.022 45.9447C9.98865 45.9113 9.9698 45.8661 9.96959 45.8189V45.4105C9.96946 45.387 9.97398 45.3638 9.98288 45.342C9.99179 45.3203 10.0049 45.3005 10.0215 45.2839C10.038 45.2673 10.0577 45.2541 10.0794 45.2451C10.1011 45.2361 10.1244 45.2314 10.1479 45.2315ZM11.5639 45.2315H11.9723C12.0196 45.2314 12.065 45.2502 12.0986 45.2836C12.1322 45.317 12.1511 45.3623 12.1513 45.4097V45.8189C12.1511 45.8663 12.1322 45.9116 12.0986 45.945C12.065 45.9784 12.0196 45.9971 11.9723 45.9971H11.5639C11.5167 45.9969 11.4714 45.9781 11.438 45.9447C11.4047 45.9113 11.3858 45.8661 11.3856 45.8189V45.4105C11.3856 45.3632 11.4044 45.3178 11.4378 45.2842C11.4712 45.2506 11.5165 45.2317 11.5639 45.2315ZM10.0969 42.0288H10.5052C10.5525 42.029 10.5977 42.0478 10.6311 42.0812C10.6645 42.1146 10.6833 42.1598 10.6835 42.207V42.6154C10.6835 42.6627 10.6647 42.708 10.6313 42.7414C10.5978 42.7748 10.5525 42.7936 10.5052 42.7937H10.0969C10.0497 42.7935 10.0044 42.7746 9.97105 42.7412C9.93767 42.7078 9.91884 42.6626 9.91865 42.6154V42.207C9.9178 42.1091 9.99818 42.0288 10.0969 42.0288ZM8.68144 42.0288H9.08988C9.1371 42.029 9.18233 42.0478 9.21572 42.0812C9.2491 42.1146 9.26793 42.1598 9.2681 42.207V42.6154C9.26806 42.6627 9.24928 42.708 9.21587 42.7414C9.18245 42.7748 9.13714 42.7936 9.08988 42.7937H8.68144C8.63422 42.7935 8.589 42.7746 8.55562 42.7412C8.52224 42.7078 8.5034 42.6626 8.50322 42.6154V42.207C8.50237 42.1091 8.58274 42.0288 8.68144 42.0288ZM11.5127 42.0288H11.9211C11.9683 42.029 12.0136 42.0478 12.0469 42.0812C12.0803 42.1146 12.0992 42.1598 12.0994 42.207V42.6154C12.0994 42.6627 12.0806 42.708 12.0471 42.7414C12.0137 42.7748 11.9684 42.7936 11.9211 42.7937H11.5127C11.4654 42.7937 11.42 42.7749 11.3864 42.7415C11.3529 42.7081 11.3339 42.6627 11.3337 42.6154V42.207C11.3342 42.1598 11.3532 42.1146 11.3867 42.0813C11.4202 42.0479 11.4655 42.0291 11.5127 42.0288Z" fill="white"/>
<path d="M4.93388 19.9075C4.5236 19.9075 4.191 19.5749 4.191 19.1646C4.191 18.7544 4.5236 18.4218 4.93388 18.4218C5.34416 18.4218 5.67676 18.7544 5.67676 19.1646C5.67676 19.5749 5.34416 19.9075 4.93388 19.9075Z" fill="#9A70E2"/>
<path d="M53.2453 27.3922C52.8738 27.3922 52.5726 27.0911 52.5726 26.7195C52.5726 26.348 52.8738 26.0468 53.2453 26.0468C53.6168 26.0468 53.918 26.348 53.918 26.7195C53.918 27.0911 53.6168 27.3922 53.2453 27.3922Z" fill="#9A70E2"/>
<path d="M22.6373 41.4042C22.1596 41.4042 21.7723 41.0169 21.7723 40.5392C21.7723 40.0615 22.1596 39.6743 22.6373 39.6743C23.115 39.6743 23.5022 40.0615 23.5022 40.5392C23.5022 41.0169 23.115 41.4042 22.6373 41.4042Z" fill="white"/>
<path d="M12.8793 14.9016C12.3541 14.9016 11.9284 14.4759 11.9284 13.9508C11.9284 13.4257 12.3541 13 12.8793 13C13.4044 13 13.8301 13.4257 13.8301 13.9508C13.8301 14.4759 13.4044 14.9016 12.8793 14.9016Z" fill="white"/>
<path d="M37.0396 16.3054C36.4558 16.3054 35.9825 15.8322 35.9825 15.2483C35.9825 14.6645 36.4558 14.1913 37.0396 14.1913C37.6234 14.1913 38.0967 14.6645 38.0967 15.2483C38.0967 15.8322 37.6234 16.3054 37.0396 16.3054Z" fill="white"/>
<path d="M4.79924 37.7333C4.93493 38.2397 4.63441 38.7602 4.12801 38.8959C3.62162 39.0316 3.1011 38.7311 2.96541 38.2247C2.82972 37.7183 3.13024 37.1978 3.63664 37.0621C4.14304 36.9264 4.66355 37.2269 4.79924 37.7333Z" fill="white"/>
<path d="M51.7993 32.0198C51.2629 32.0198 50.8279 31.6718 50.8279 31.2427C50.8279 30.8135 51.2629 30.4655 51.7993 30.4655C52.3358 30.4655 52.7708 30.8135 52.7708 31.2427C52.7708 31.6718 52.3358 32.0198 51.7993 32.0198Z" fill="white"/>
<path d="M44.8935 14.5888C45.0346 15.1155 44.722 15.6568 44.1954 15.7979C43.6687 15.939 43.1274 15.6265 42.9862 15.0998C42.8451 14.5732 43.1577 14.0318 43.6843 13.8907C44.211 13.7496 44.7523 14.0621 44.8935 14.5888Z" fill="white"/>
<path d="M53.7962 34.276H53.8141C53.92 35.7643 55.0359 35.7873 55.0359 35.7873C55.0359 35.7873 53.8054 35.8111 53.8054 37.5309C53.8054 35.8111 52.5749 35.7873 52.5749 35.7873C52.5749 35.7873 53.6903 35.7643 53.7962 34.276ZM33.4743 18.1605H33.4969C33.6304 20.0903 35.0374 20.12 35.0374 20.12C35.0374 20.12 33.4859 20.1508 33.4859 22.3807C33.4859 20.1508 31.9343 20.12 31.9343 20.12C31.9343 20.12 33.3408 20.0903 33.4743 18.1605Z" fill="white"/>
</svg>
