<svg width="24" height="24" viewBox="0 0 24 24" fill="none" xmlns="http://www.w3.org/2000/svg">
<path d="M16.5452 7.46937L15.2654 5.49781C14.9957 5.19125 14.626 5 14.2115 5H9.78846C9.37404 5 9.00433 5.19125 8.73462 5.49781L7.45481 7.46937C7.1851 7.77641 6.8375 8 6.42308 8H3.53846C3.13044 8 2.73912 8.15804 2.4506 8.43934C2.16209 8.72064 2 9.10218 2 9.5V18.5C2 18.8978 2.16209 19.2794 2.4506 19.5607C2.73912 19.842 3.13044 20 3.53846 20H20.4615C20.8696 20 21.2609 19.842 21.5494 19.5607C21.8379 19.2794 22 18.8978 22 18.5V9.5C22 9.10218 21.8379 8.72064 21.5494 8.43934C21.2609 8.15804 20.8696 8 20.4615 8H17.625C17.2091 8 16.8149 7.77641 16.5452 7.46937Z" stroke="black" stroke-linecap="round" stroke-linejoin="round"/>
<path d="M12 17C14.1241 17 15.8461 15.3211 15.8461 13.25C15.8461 11.1789 14.1241 9.5 12 9.5C9.87579 9.5 8.15381 11.1789 8.15381 13.25C8.15381 15.3211 9.87579 17 12 17Z" stroke="black" stroke-miterlimit="10"/>
<path d="M5.65385 7.90625V6.875H4.5V7.90625" fill="black"/>
<path d="M5.65385 7.90625V6.875H4.5V7.90625" stroke="black" stroke-linecap="round" stroke-linejoin="round"/>
</svg>
